/* XPM */
static char *result[] = {
/* columns rows colors chars-per-pixel */
"64 64 97 2 ",
"   c black",
".  c #060606",
"X  c #070707",
"o  c gray3",
"O  c #090909",
"+  c #0C0C0C",
"@  c #0E0E0E",
"#  c gray6",
"$  c #101010",
"%  c #111111",
"&  c gray7",
"*  c #232323",
"=  c gray14",
"-  c #252525",
";  c #2C2C2C",
":  c #343434",
">  c gray22",
",  c #393939",
"<  c #3A3A3A",
"1  c gray23",
"2  c #3C3C3C",
"3  c gray25",
"4  c #414141",
"5  c #464646",
"6  c #4C4C4C",
"7  c gray31",
"8  c gray32",
"9  c gray34",
"0  c #585858",
"q  c gray36",
"w  c #5D5D5D",
"e  c gray37",
"r  c #5F5F5F",
"t  c #606060",
"y  c gray38",
"u  c #626262",
"i  c gray39",
"p  c #646464",
"a  c gray40",
"s  c #676767",
"d  c #686868",
"f  c DimGray",
"g  c #6A6A6A",
"h  c gray42",
"j  c #6C6C6C",
"k  c #6D6D6D",
"l  c gray43",
"z  c #6F6F6F",
"x  c gray44",
"c  c #717171",
"v  c #727272",
"b  c gray45",
"n  c #747474",
"m  c gray46",
"M  c #767676",
"N  c #777777",
"B  c gray47",
"V  c #797979",
"C  c gray48",
"Z  c #7B7B7B",
"A  c #7C7C7C",
"S  c gray49",
"D  c #7E7E7E",
"F  c gray50",
"G  c #975554",
"H  c #9B5A58",
"J  c #9E5D5B",
"K  c #9F5D5B",
"L  c #9F5D5C",
"P  c #9F5E5C",
"I  c #A05F5D",
"U  c #A1605E",
"Y  c #A2615F",
"T  c #A36260",
"R  c #808080",
"E  c #818181",
"W  c gray53",
"Q  c #8B8B8B",
"!  c gray55",
"~  c #8D8D8D",
"^  c #8E8E8E",
"/  c gray56",
"(  c #909090",
")  c gray57",
"_  c #929292",
"`  c #939393",
"'  c gray58",
"]  c #959595",
"[  c gray59",
"{  c #979797",
"}  c #989898",
"|  c gray60",
" . c #9A9A9A",
".. c #9B9B9B",
"X. c gray61",
"o. c #9D9D9D",
"O. c gray62",
/* pixels */
"E E E E E E E E E O.O.O.O.O.O.O.O.O.O.O.O.O.O.O.O.O.O.O.O.O.O.O.O.O.O.O.O.O.O.O.O.O.O.O.O.O.O.O.O.O.O.O.O. .] A E E E E E E E E ",
"E E E E E E E E R o.O.O.O.O.O.O.O.O.O.O.O.O.O.O.O.O.O.O.O.O.O.O.O.O.O.O.O.O.O.O.O.O.O.O.O.O.O.O.O.O.O.O.o.] / B R E E E E E E E ",
"E E E E E E F Z V ] | o.O.O.O.O.O.O.O.O.O.O.O.O.O.O.O.O.O.O.O.O.O.O.O.O.O.O.O.O.O.O.O.O.O.O.O.O.O.O.O.O.X.` ! n B D R R E E E E ",
"E E E R D Z n l E ~ ` X.O.O.O.O.O.O.O.O.O.O.O.O.O.O.O.O.O.O.O.O.O.O.O.O.O.O.O.O.O.O.O.O.O.O.O.O.O.O.O.O.o.] ! W c c M C F E E E ",
"E E R N ) / ~ ~ ~ ~ ` X.O.O.O.O.O.O.O.O.O.O.O.O.T T T T T T T T T T T T T T T T O.O.O.O.O.O.O.O.O.O.O.O.O. ./ Q Q ! ~ ( V E E E ",
"E E S z ! ! ~ _ ] [  .o.O.O.O.O.O.O.O.O.O.O.X...Y T T T T T T T T T T T T T T T O.O.O.O.O.O.O.O.O.O.O.O.O.O.| / ! Q Q ! m R E E ",
"E E A j Q ! _  .O.O.O.O.O.O.O.O.O.O.O.O.O.o.` ) K Y T T T T T T T T T T T T T T  .X.O.O.O.O.O.O.O.O.O.O.O.O.O.o.O.| Q ! b R E E ",
"E E Z j Q ~ { O.O.O.O.O.O.O.O.O.O.O.O.O.O.X.! ! G H J I U Y Y U I L P P I U U Y ' { O.O.O.O.O.O.O.O.O.O.O.O.O.X.O.O.! ! v F E E ",
"E E Z j Q ^ | O.O.O.O.O.O.O.O.O.O.O.O.O.O.o._ Q ! ! ^ ! ! ! ! ! ! ! ! ! ( ! ! ~ _ | O.O.O.O.O.O.O.O.O.O.O.O.O.O.O.o.` ! c F E E ",
"E E A j Q ^  .O.O.O.O.O.O.O.O.O.O.O.O.X. .| { ] { ] [ ' _ ) ) ) _ _ ) ( ( ] [ } X.O.O.O.O.O.O.O.O.O.O.O.O.O.O.O.o.o.] Q x F E E ",
"E E A j Q ^  .O.O.O.O.O.O.O.O.O.{ / ! Q ! Q Q ! / / _ _ _ _ ( / / / ^ ( _ _ _ ` _ ( ` }  .X.o.O.O.O.O.O.O.O.O.O.O.X.] Q x F E E ",
"E E S k Q ^ | O.O.O.O.O.O.O.O.[ Q F > $                                               $ > R ! | O.O.O.O.O.O.O.O.O.O.` Q x F E E ",
"E E D k Q /  .O.O.O.O.O.O.o. .! 0 o + : 5 8 w e r t i f k k l l l z c n n n n n v w 6 2 @ O 0 Q ' O.O.O.O.O.O.O.o.O. .Q z D E E ",
"E E F l ! ) ..O.O.O.O.O.O. .[ 0   = 0 w w w w w w w w e r y i a d h z b n n n n n v x b k ;   q ! o.O.O.O.O.O.O.o.O. .Q l S E E ",
"E E F x ! _ X.O.O.O.O.O.O...W o - w w w w w w w w e r i f l c b b n n n n n n n n n n n n n ; O F | O.O.O.O.O.O.X.O.| Q l S E E ",
"E E R c ! ` o.O.O.O.O.O.O.[ < + 0 w w w w s A Q ! ~ _ | o.O.O.O.O.O.O.O.O.O.O.O.) F n n n n k # > ` O.O.O.O.O.O.o.O.| Q z D E E ",
"E E R c ! ` o.O.O.O.O.O.O.) $ : w w w w m Q Q ~ ( ' | O.O.O.O.O.O.O.O.O.O.O.O.O.O.O.^ n n n n 4 % ! O.O.O.O.O.O.o.O.{ ! x D E E ",
"E E R v ! ) X.O.O.O.O.O.O.(   5 w w w B Q Q ~ _ } X.o.O.O.O.O.O.O.O.O.O.O.O.O.O.O.O.O.! n n n 9   ~ O.O.O.O.O.O.o.O.] ! c F E E ",
"E E R c Q ( ..O.O.O.O.O.O.~   0 w w s Q Q ! _  .o.O.O.O.O.O.O.O.O.O.O.O.O.O.O.O.O.O.O.O.F n n a   / O.O.O.O.O.O.O.O.] ! v F E E ",
"E E F x Q ^ ..O.O.O.O.O.O.!   e w w A Q Q ^ { o.O.O.O.O.O.O.O.O.O.O.O.O.O.O.O.O.O.O.O.O.) n n n   / O.O.O.O.O.O.O.O.] ! b F E E ",
"E E S l Q ~  .O.O.O.O.O.O.~   e w w Q Q ! ) ..O.O.O.O.O.O.O.O.O.O.O.O.O.O.O.O.O.O.O.O.O.O.n n n   / O.O.O.O.O.O.O.O.] ! n R E E ",
"E E A k Q ! | O.O.O.O.O.O.~   e w w Q Q ! ` o.O.O.O.O.O.O.O.O.O.O.O.O.O.O.O.O.O.O.O.O.O.O.n n n   ( O.O.O.O.O.O.O.o.' ! m R E E ",
"E E A k Q ! | O.O.O.O.O.O.^   e w w Q Q ! ] o.O.O.O.O.O.O.O.O.O.O.O.O.O.O.O.O.O.O.O.O.O.O.n n n   ) O.O.O.O.O.O.O. .^ ! m R E E ",
"E E S k Q ! | O.O.O.O.O.O./   e w w Q Q ~ { O.O.O.O.O.O.O.O.O.O.O.O.O.O.O.O.O.O.O.O.O.O.O.n n n   _ O.O.O.O.O.O.O. .~ ! m R E E ",
"E E S l Q !  .O.O.O.O.O.O./   e w w Q Q ^ | O.O.O.O.O.O.O.O.O.O.O.O.O.O.O.O.O.O.O.O.O.O.O.n n n   _ O.O.O.O.O.O.O. .~ ! n R E E ",
"E E A l ! ~ ..O.O.O.O.O.O.)   e w w Q Q / ..O.O.O.O.O.O.O.O.O.O.O.O.O.O.O.O.O.O.O.O.O.O.O.n n n   _ O.O.O.O.O.O.O. .^ ! v D E E ",
"E R B k Q ( o.O.O.O.O.O.O._   e w w Q Q / X.O.O.O.O.O.O.O.O.O.O.O.O.O.O.O.O.O.O.O.O.O.O.O.n n n   ) O.O.O.O.O.O.O...^ Q l C E E ",
"R V x h ! [ O.O.O.O.O.O.O.`   e w w Q Q ( X.O.O.O.O.O.O.O.O.O.O.O.O.O.O.O.O.O.O.O.O.O.O.O.n n n   ( O.O.O.O.O.O.O...( Q h n F E ",
"F c ! Q !  .O.O.O.O.O.O.O.]   e w w Q Q / X.O.O.O.O.O.O.O.O.O.O.O.O.O.O.O.O.O.O.O.O.O.O.O.n n n   ~ O.O.O.O.O.O.O.X.) Q ! ( V F ",
"F z Q Q ^ ..O.O.O.O.O.O.O.`   e w w Q Q ~ X.O.O.O.O.O.O.O.O.O.O.O.O.O.O.O.O.O.O.O.O.O.O.O.n n n   / O.O.O.O.O.O.O.o._ Q Q ! c Z ",
"F l Q Q o.o.O.O.O.O.O.O.o.)   e w w Q Q ~ ..O.O.O.O.O.O.O.O.O.O.O.O.O.O.O.O.O.O.O.O.O.O.O.n n n   / O.O.O.O.O.O.O.o.` Q Q Q k C ",
"F z Q Q O.O.O.O.O.O.O.O...^   e w w Q Q !  .O.O.O.O.O.O.O.O.O.O.O.O.O.O.O.O.O.O.O.O.O.O.O.n n n   Q O.O.O.O.O.O.O.o.' Q Q Q k Z ",
"F z Q Q O.O.O.O.O.O.O.o. .^   w w w Q Q !  .O.O.O.O.O.O.O.O.O.O.O.O.O.O.O.O.O.O.O.O.O.O.O.n n n   Q O.O.O.O.O.O.O.o.` Q Q Q k A ",
"D z Q Q o.o.O.O.O.O.O.O.o.`   e w w Q Q ! | O.O.O.O.O.O.O.O.O.O.O.O.O.O.O.O.O.O.O.O.O.O.O.n n n   ! O.o.| ] ` ` ' [ ) Q Q Q k Z ",
"A l Q Q n C V V C A S F O.`   y w w Q Q !  .O.O.O.O.O.O.O.O.O.O.O.O.O.O.O.O.O.O.O.O.O.O.O.n n n   ! X.                Q Q Q j C ",
"C k Q Q g g f f g h l m ..'   t w w Q Q !  .O.O.O.O.O.O.O.O.O.O.O.O.O.O.O.O.O.O.O.O.O.O.O.n n n   ! |                 Q Q Q j B ",
"V k Q Q Q Q Q Q Q Q Q ~ ] (   e w w Q Q !  .O.O.O.O.O.O.O.O.O.O.O.O.O.O.O.O.O.O.O.O.O.O.O.n n n   ! } ! Q Q Q Q Q Q Q Q Q Q h M ",
"B k Q Q Q Q Q Q Q Q Q Q / /   e w w Q Q !  .O.O.O.O.O.O.O.O.O.O.O.O.O.O.O.O.O.O.O.O.O.O.O.n n n   ~  .^ Q Q ! ~ ~ ! Q ! Q Q g b ",
"B k Q Q                 / /   e w w Q Q !  .O.O.O.O.O.O.O.O.O.O.O.O.O.O.O.O.O.O.O.O.O.O.O.n n n   / o.{ ^ ^ ` [ { ' ( ( Q Q g c ",
"B k Q Q                 ' (   e w w Q Q ~  .O.O.O.O.O.O.O.O.O.O.O.O.O.O.O.O.O.O.O.O.O.O.O.n n n   ( O.o... .X.O.O.o...{ ! Q g x ",
"V k Q Q Q Q ! ~ ! ! ~ ' ..(   e w w Q Q ~ ..O.O.O.O.O.O.O.O.O.O.O.O.O.O.O.O.O.O.O.O.O.O.O.n n n   ) O.O.O.O.O.O.O.O.O...~ Q f x ",
"C l ! Q ! ^ _ ' ' ) ' ..O.(   e w w Q Q ~ ..O.O.O.O.O.O.O.O.O.O.O.O.O.O.O.O.O.O.O.O.O.O.O.n n n   _ O.O.O.O.O.O.O.O.O...^ Q g x ",
"S c ! } X.}  .X.o... .o.O.!   w w w Q Q ~ ..O.O.O.O.O.O.O.O.O.O.O.O.O.O.O.O.O.O.O.O.O.O.O.n n n   ` O.O.O.O.O.O.O.O.O...^ Q g x ",
"F b ! O.O.X.O.O.O.O.O.O.O.!   w w w Q Q ^ X.O.O.O.O.O.O.O.O.O.O.O.O.O.O.O.O.O.O.O.O.O.O.O.n n n   _ O.O.O.O.O.O.O.O.O.X./ Q g x ",
"R m ~ O.O.O.O.O.O.O.O.O.O.!   w w w Q Q ( X.O.O.O.O.O.O.O.O.O.O.O.O.O.O.O.O.O.O.O.O.O.O.O.n n n   / O.O.O.O.O.O.O.O.O.X.) Q g x ",
"R m ! O.O.O.O.O.O.O.O.O.O.!   w w w Q Q ) o.O.O.O.O.O.O.O.O.O.O.O.O.O.O.O.O.O.O.O.O.O.O.O.n n n   / O.O.O.O.O.O.O.O.O.X._ Q g x ",
"R m ! ( ..O.O.O.O.O.O.O.O.^   w w w Q ! ) o.O.O.O.O.O.O.O.O.O.O.O.O.O.O.O.O.O.O.O.O.O.O.O.n n n   ' O.O.O.O.O.O.O.O.O.X._ Q g x ",
"F n ! ~ }  .| | |  ...o.O.~   w w w Q ! ) o.O.O.O.O.O.O.O.O.O.O.O.O.O.O.O.O.O.O.O.O.O.O.O.n n n   ] O.O.O.O.O.O.O.O.O.o._ Q g x ",
"R m ~ !                 X.^   w w w Q ! ) o.O.O.O.O.O.O.O.O.O.O.O.O.O.O.O.O.O.O.O.O.O.O.O.n n n   ] O.O.O.O.O.O.O.O.O.o.` Q g c ",
"F n ~ Q                 [ /   w w w Q ! _ o.O.O.O.O.O.O.O.O.O.O.O.O.O.O.O.O.O.O.O.O.O.O.O.n n n   ' O.O.O.O.O.O.O.O.O.o.` Q g c ",
"F n ! Q Q Q Q Q Q ! ! ! ` _   w w w Q ! _ o.O.O.O.O.O.O.O.O.O.O.O.O.O.O.O.O.O.O.O.O.O.O.O.n n n   ` O.O.O.O.O.O.O.O.O.o.` Q h n ",
"D b ! Q Q ! ~ / ) _ ) ( ' ]   w w w Q ! _ o.O.O.O.O.O.O.O.O.O.O.O.O.O.O.O.O.O.O.O.O.O.O.O.n n n   _ O.O.O.O.O.O.O.O.O.o.` Q j N ",
"S v ! Q ! ) [ | ..X...}  .]   w w w Q ! ) o.O.O.O.O.O.O.O.O.O.O.O.O.O.O.O.O.O.O.O.O.O.O.O.n n n   _ O.O.O.O.O.O.O.O.O.o.' Q k V ",
"D v ! ! _ | o.O.O.O.O.O.o.[   w w w Q ! / ..O.O.O.O.O.O.O.O.O.O.O.O.O.O.O.O.O.O.O.O.O.O.O.n n n   ( O.O.O.O.O.O.O.O.O.o.] Q l C ",
"D b ~ / | O.O.O.O.O.O.O.O.'   w w w Q Q ~ | O.O.O.O.O.O.O.O.O.O.O.O.O.O.O.O.O.O.O.O.O.O.O.n n n   ^ O.O.O.O.O.O.O.O.O.O.] Q l C ",
"D b ~ _ X.O.O.O.O.O.O.O.O._   w w w Q Q ! ` o.O.O.O.O.O.O.O.O.O.O.O.O.O.O.O.O.O.O.O.O.O.O.n n n   ) O.O.O.O.O.O.O.O.O.o.] Q k V ",
"F n ^ ] O.O.O.O.O.O.O.O.O._   8 w w A Q Q ~ | O.O.O.O.O.O.O.O.O.O.O.O.O.O.O.O.O.O.O.O.O.) n n k   ) O.O.O.O.O.O.O.O.O.o.] Q k N ",
"F n ^ { O.O.O.O.O.O.O.O.O._   5 w w s Q Q Q /  .O.O.O.O.O.O.O.O.O.O.O.O.O.O.O.O.O.O.O.O.F n n 9   ) O.O.O.O.O.O.O.O.O.o.] Q j M ",
"R n / } O.O.O.O.O.O.O.O.O.' & : w w w m Q Q Q / | o.O.O.O.O.O.O.O.O.O.O.O.O.O.O.O.O.O.! n n n 4 # ) O.O.O.O.O.O.O.O.O.o.] Q k M ",
"F n ^ [ O.O.O.O.O.O.O.O.O._ 1 + 0 w w w m Q Q Q ~ '  .o.O.O.O.O.O.O.O.O.O.O.O.O.O.O.! n n n k # , ( O.O.O.O.O.O.O.O.O.o.] Q k N ",
"F b ~ ` o.O.O.O.O.O.O.O.O.( F o * w w w w s A Q Q Q ^ ) ' {  ...X.o.O.O.O.O.O.O.) F n n n n ; X M ~ O.O.O.O.O.O.O.O.O.o.] Q k N ",
"F v ! (  .O.O.O.O.O.O.O.O.' ~ 0   * 0 w w w w w w w w e e e t u p s f h k l x c b n n n k ;   7 Q / O.O.O.O.O.O.O.O.O.o.] Q j M ",
"D x ! ~ { O.O.O.O.O.O.O.O.O.) Q 0 o + : 5 0 w w w w w w w w w w e w e e e r y p h i 9 4 # . 7 Q Q ..O.O.O.O.O.O.O.O.O.o.] Q j M ",
"A l Q ! ` X.O.O.O.O.O.O.O.O.X.Q Q F > $                                               # 3 M Q ] [ O.O.O.O.O.O.O.O.O.O.o.] Q j M "
};
