/* XPM */
static char * C:\Users\pc\Documents\door\enemy_xpm[] = {
"80 100 19 1",
" 	c #FF00FF",
".	c #000000",
"+	c #180B0F",
"@	c #34292E",
"#	c #806C8A",
"$	c #5B4951",
"%	c #AAAAAA",
"&	c #EAEAEA",
"*	c #2E1D23",
"=	c #463511",
"-	c #8F6A20",
";	c #4D0E05",
">	c #FFBAAF",
",	c #D3B139",
"'	c #EB0000",
")	c #493B43",
"!	c #F3DA94",
"~	c #231418",
"{	c #494349",
"                                                                                ",
"                                                                                ",
"                                                                                ",
"                                                                                ",
"                                                                                ",
"                                                                                ",
"                               ..                                               ",
"                                ....                                            ",
"                                   ..                                           ",
"                                   ..                                           ",
"                             .......                                            ",
"                           ...                                                  ",
"                          ..                                                    ",
"                           ........                                             ",
"                              ........                                          ",
"                               .........                                        ",
"                                .........                                       ",
"                                ..........                                      ",
"                                ...+@##$+..                                     ",
"                                ..@%%%##$+.                                     ",
"                               ..+%&&&%##*+.                                    ",
"                               ..@%&&&%##*+.                                    ",
"                               ..#%&&&%##*@.          ..                        ",
"                    ...        ..##%%%###@@.         .  .                       ",
"                   .  ...      ..#######$@$.        .   .                       ",
"                   .    ..++++ ..$###%%#$#$. ........  .                        ",
"                    .    .=---+..@$#+..$$....+==--..   .                        ",
"                ;.   .    ..**-+.+@$#$@@$$+.+.+-=.      .;.                     ",
"               ;>;.  .      .+*-+.+**@@$$@+..=,=.       ;>;.                    ",
"               .;'. .        .+*,=.+@@$$@+..=,+.        .;'.                    ",
"                ....          .+*,=........=,+.          ..                     ",
"                             +++)*,-=.....=,+.                                  ",
"                             ..++)--,,-..+!!+..                                 ",
"                            ++*.+)*~,~!-+!*!+.+..                               ",
"                       ..++++@)+..+*!~!!+!*!.+~.....                            ",
"                      .=--~~@-!,-+++!!,,+,,-*~~=--+..                           ",
"          ..+         .=.=-=-!@-,-**~++,+,~***--=..+.         ....              ",
"         ....+        ..+..,,#)@-,~++=,-+-,=*~,=+....         .  ..             ",
"         .  ..+++++++++*@@*......,**=!,-+-,,=~,..+++...   .....   ..            ",
"         .   ..==+~~*)$)$$))@@)$#,-=!~-,+,-~,-,@@*~~~+.....=..     ;.           ",
"         .     ..-=**!!,#)$##)@@)#,,@*),+,+++,-+~**~...+++=..     ;>;.          ",
"          ..    ..-,!-.!,#@)$#####)***~-+-++++~**~~+=-=~+=..      .;'.          ",
"           ..     .....-!-)*@)#)@)$@))*-+-+~~~*~~++=-.+==.         ..           ",
"            ..       ...-!@)*@)#$$*,!,)-+-~,!,~*@@~-=....                       ",
"             .        ...,!-**@{{**!~!*-+-~!~!~~~~=-....                        ",
"        ;.   .         ..+,!!,-@@*-!~**,+,..~!-~=--...                          ",
"       ;>;.  .         +*++++-,,,!!!!,,=+=,,!!!,-=...                           ",
"       .;'...         +****+....................++++..                          ",
"        ...          ++$#{~+.   ............. ..~~**+.                          ",
"                     +@{{**@++..+++~===..===...+****~~.                         ",
"                     +-{*-!,-@@@@*~~~==+.==~@**~*@~-=~.                         ",
"                     ++--,{{--$$*{***{-+.-{~{@**@@-*~=.                         ",
"                     +++*{@@~-$@-!,-*{,+.!@@-,,-=-=+..                          ",
"                        +++~~-,-!*@--{!+.!{@!~*,-=..                            ",
"                           +++-,-*{@-@!+.!{,-~~**.                              ",
"                             ++@***--,!+.,!,-@~+.                               ",
"                               +**-,--,+.,--,-+.                                ",
"                                +~,{~*,+.,{@-,.                                 ",
"                                .+-@{*,+.,{--.                                  ",
"                               +..+-{*,+.,{-+.                                  ",
"                               +.+.+@-!+.!--.                                   ",
"                              +++++.*!,++,,.                                    ",
"                              +~+~+..!-.+-,.                                    ",
"                             +~~+~++.-...+=.                                    ",
"                             +~~~~++..+~+...                                    ",
"                            ++*@~*+~+++~+~++.                                   ",
"                            +~)@@*~@~++~~@+~.                                   ",
"                           +~$)~@*~@~++~@@~~+.                                  ",
"                          +~@$@*)*~@*~+@@$*~~.                                  ",
"                          +~$@*@)*~~@*+)@$@~~.                                  ",
"                         +~$$@*@)*~*@$~)@$)~~+.                                 ",
"              ...       +~$#@*@@)***@$*)@$$*~~.                                 ",
"            ;.. ..     +~$#@@*@@$**@@#*)@)$)~~~.                                ",
"           ;>;.  .    +@$#@@~*@)#*~)#$*)@@#$*~*~.                               ",
"           .;'.  .   +@$#$@~~*@$#**$#@*)@@#$@~~*~.           ;.                 ",
"            ..  ..  +$$#$@@+~*)#$**$$@@))@$$@~+~@*.         ;>;.                ",
"               ..  +$$$$@@~+**$#@~*)$@@*)@)$@@++@@*.      ...;'.                ",
"              ..  +$$$$)@~+**)$$*~~)$@@*))@$)@@+~@@~.    ..  ..                 ",
"             .   .+#$$$)~+~*$$$$~~+~)@@@@)*$$@@*+~$@+.   .                      ",
"             ....=!!,$$@++*$$,,$~~++@))@*)~@$)@@*+@$@.   .                      ",
"              ..-,..-,$+++)$!!,,-*~+~@)@*))@$$)@@~+@@~.  .                      ",
"               ..--=..=)~+)!~~~~=-{++@@,!,--)$$$@~~+++....                      ",
"                 .....~=-))),~...=-{+=,!-.=--$-,,--~+=~..                       ",
"                   .....~,,,......~---=....=--,-..~-=~..                    ;.  ",
"                    .........+++++..............+.....                     ;>;. ",
"  ...               +.+~+++.++++++++..++++....+++++.                       .;'. ",
" .  ..              +.@~~+.++~@~~~~+.+++++++++++~~++.                       ..  ",
".    .             +~@@~~++~@@@{~~~+++++~@@~++~~@@@++.              ....    .   ",
".    ..           +~@{@~++~@@@{{@~~+++~~@{@@~+~~@@@@+.             ..  ..    .  ",
".     ..        ++~{#{@++~~@@${{@~~++~~~@{{@@++~~@@@@+.          ...    ..   .  ",
" ...  .....+++++~@$#${~+~~~@$${{@~++~~~@@$${@@++~~@@@@~..       .=.      ....   ",
"   ;.  .--=~~~@{$$${{@+~~~@@$#{{@~++~~~@@{$${@@~+~~~@@@~+..   ..==.             ",
"  ;>;.  .=-,,-{{$${{@~+~~~@{##{@@~+~~~~@@{$$${{@~~~~~@@@~+....+=-.              ",
"  .;'.   ..=!!,-{{{@~~~~~@@{#{{@@~+~~~@@@{{$$${{@~@~~~~~~~@@@---.               ",
"   ..      ..=-,,-{@~~~~@@{{{{{{@~~~~~@@{{{$$$${{{@@@@@@@@@---=.                ",
"             ..=-,--=@@@@{{{,!!,{@~~~@@@{,!!,----{-{{@@@@=,,=..                 ",
"               ...+=---=@@,!!-..--@~~@@@,!!=...+=-------,,=..                   ",
"                  ...+=-,,,-..  .=--@@{,,=..   ..+==----=..                     ",
"                     .......     ..=--,,=.       ........                       ",
"                                   ......                                       "};
