/* XPM */
static char * floor_1_xpm[] = {
"64 64 49 1",
" 	c #2A2D30",
".	c #858686",
"+	c #58595A",
"@	c #292B2E",
"#	c #222426",
"$	c #242628",
"%	c #27292C",
"&	c #2A2D2F",
"*	c #2B2D30",
"=	c #2D2F32",
"-	c #2E3134",
";	c #2D3033",
">	c #2B2E31",
",	c #2B2E30",
"'	c #2D3032",
")	c #515253",
"!	c #232527",
"~	c #26282A",
"{	c #242629",
"]	c #252729",
"^	c #292C2F",
"/	c #25272A",
"(	c #2A2C2F",
"_	c #57595A",
":	c #292C2E",
"<	c #282A2C",
"[	c #222425",
"}	c #212325",
"|	c #222527",
"1	c #282B2D",
"2	c #232528",
"3	c #272A2C",
"4	c #242729",
"5	c #2C2F32",
"6	c #282A2D",
"7	c #25282A",
"8	c #232628",
"9	c #222427",
"0	c #2C2E31",
"a	c #26292B",
"b	c #2E3033",
"c	c #2E3133",
"d	c #282B2E",
"e	c #2C2F31",
"f	c #26282B",
"g	c #27292B",
"h	c #222325",
"i	c #202224",
"j	c #2F3235",
"                                                              .+",
"@##############$%@&*                *=-;>                   ,')+",
"@#############!%>&~${{{{{{{{{{{{{{{$]^;,~${{{{{{{{{{{{{{{{{$/(_+",
"@############$%:&<![###############}|1;&$}#################}!@@+",
"@###########!%>&~!##################!1; $###################!@@+",
"@##########$%:&<2###################!1; $###################!@@+",
"@#########!%>&~!####################!1; $###################!@@+",
"@########$3:&<2#####################!1;&$}##################!@@+",
"@#######!%>&~!######################!1; 4#!!!!!!!###########!@@+",
"@######$3:(32#######################!1;5:6111111<7!#########!@@+",
"@#####!%>&~!########################!1;-;;;;;;;;;@8#########!@@+",
"@####$%@(3!}#######################}96;;,     *;-&$#########!@@+",
"@!!!!%0*a$!!!!!!!!!!!!!!!!!!!!!!!!!#2@;,~$$$$$](;&$#########!@@+",
"@1111,-;^611111111111111111111111166@0-&$}###}!1;&$#########!@@+",
"@;;;;b--;;;;;;;;;;;;;;;;;;;;;;;;;;;;;--($#####!@;&$#########!@@+",
"@    &&&                       &*5-;, (%!#####!@;&$#########!@@+",
"@$$$$$$$$$$$$$$$$$$$$$$$$$$$$$$$]:;,~$$!######!@;&$#########!@@+",
"@##############################}#6; $}########!@;(8}#######}!@@+",
"@###############################!1; $#########!@; 4|!!!!!!!|$:@+",
"@###############################!1; $#########!1;5:111111111@0@+",
"@###############################!1; $#########!1c-;;;;;;;;;;;-@+",
"@###############################!1; $}#######}!1;;*&&&&&&&&& =@+",
"@###############################!1;*]!!!!!!!!!$@;*7$$$$$$$$$](@+",
"@###############################!1;=^1ddddddd1@e-&8}#######}!@@+",
"@###############################!6;-;;;;;;;;;;;-c^$#########!@@+",
"@###############################!6;;*&&&&&&&&&&&^a!#########!@@+",
"@###############################!1;,78$$$$$$$$$$$!##########!@@+",
"@###############################!1; $}######################!@@+",
"@###############################!1; $#######################!@@+",
"@###############################!1; $#######################!@@+",
"@###############################!1; $#######################!@@+",
"@##############################}#6; $#######################!@@+",
"@!!!!!!!!!!!!!!!!!!!!!!!!!!!!!!!$@; $#######################!@@+",
"@@@@@@@@@@@@@@@@@@@@@@@@@@@@@@@d:e- $}######################!@@+",
"@;;;;;;;;;;;;;;;;;;;;;;;;;;;;;-b;-c&]#######################!@@+",
"@((((((((((((((((((((((((((((5-;*(^^@f!#####################!@@+",
"@$$$$$$$$$$$$$$$$$$$$$$$$$$$]:= /!$60^4#####################!@@+",
"@}#######################}#46::a!}#7@(@f!###################!@@+",
"@!########################2<>(]!####$10:4###################!@@+",
"@g!######################]6^:g!######7@(@f!#################!@@+",
"@(]!####################2<>(]!########$10:4#################!@@+",
"@a6a![###############h#]1^:g!##########7@(@f!h#############}!@@+",
"@} *7!!!!!!!!!!!!!!!!!$<>(]!############$10:4!!!!!!!!!!!!!!!$:@+",
"@i>; ::::::::::::@@@:@@::g!##############7@^@@:::::::::::::@^5@+",
"@i>jb;;;;;;;;;;;;;-c;b;&/!################$1'-;;;;;;;;;;;;;;;-@+",
"@i>;*^^^^^^^^^^^(e-;*5-*$}###############}#1-; ^^^^^^^^^^^^^&5@+",
"@i>0~!222222222!$1;,~65 ]|################$@5&]!22222222222!{^@+",
"@i>>4}[########}#<' 4]1^@a!##############/1^@f!h###########}!@@+",
"@}*,7!##########!6;*4#$6>(]!############$60^]!##############!@@+",
"@f1::g!#########!6;*4}#]1(:a!##########/1(:a!###############!@@+",
"@^7%>&/!########!6;*4###$6>(]!########$60^]!################!@@+",
"@%841(:%2#######!6;*4####]1(:a!######/1(:a!################h!@@+",
"@!##23>({#######!6;*4#####$6>(]!####$60^]!##################$@@+",
"@####]6%2#######!6;*4######]1(:a!}#/1(:a!##################7@:@+",
"@####9!!########!6;*4#######$6>(]!$60^]!##################$10@@+",
"@###############!6;*4########]1::::^@a!##################7@(@~@+",
"@###############!6;*4#########$1'-;:]|##################$10:{#@+",
"@###############!6;*4########[#6;;(f!##################7@(@~!#@+",
"@###############!6;*4#########!1;*]9##################$10:{###@+",
"@###############!6;*4#########!1; $h#################7@(@~!###@+",
"@###############!6;*4#########!1; $#################$10:{#####@+",
"@###############!6;*4#########!1; $###############|~@^@~!#####@+",
"@@@@@@@@@@@@@@@@@@;@@@@@@@@@@@@@;@@@@@@@@@@@@@@@@@@@@@@@@@@@@@@+",
"++++++++++++++++++++++++++++++++;+++++++++++++++++++++++++++++++"};
