/* XPM */
static char * C:\Users\pc\Music\openning_door_xpm[] = {
"64 64 131 2",
"  	c #828282",
". 	c #989898",
"+ 	c #9F9F9F",
"@ 	c #9B9B9B",
"# 	c #969696",
"$ 	c #8D8D8D",
"% 	c #818181",
"& 	c #979797",
"* 	c #9E9E9E",
"= 	c #909090",
"- 	c #898989",
"; 	c #808080",
"> 	c #7C7C7C",
", 	c #777777",
"' 	c #919191",
") 	c #9A9A9A",
"! 	c #9D9D9D",
"~ 	c #949494",
"{ 	c #858585",
"] 	c #797979",
"^ 	c #7F7F7F",
"/ 	c #757575",
"( 	c #6E6E6E",
"_ 	c #8E8E8E",
": 	c #7D7D7D",
"< 	c #727272",
"[ 	c #7B7B7B",
"} 	c #787878",
"| 	c #8B8B8B",
"1 	c #B37271",
"2 	c #B76260",
"3 	c #AE8180",
"4 	c #8C8C8C",
"5 	c #8A8A8A",
"6 	c #7E7E7E",
"7 	c #707070",
"8 	c #939393",
"9 	c #9C9C9C",
"0 	c #B2716F",
"a 	c #878787",
"b 	c #6C6C6C",
"c 	c #848484",
"d 	c #929292",
"e 	c #AE6B6A",
"f 	c #B6615F",
"g 	c #AB7C7B",
"h 	c #A76261",
"i 	c #AF5A57",
"j 	c #B25D5B",
"k 	c #B45F5D",
"l 	c #B5605E",
"m 	c #B35D5C",
"n 	c #B35E5C",
"o 	c #A47473",
"p 	c #8F8F8F",
"q 	c #838383",
"r 	c #959595",
"s 	c #999999",
"t 	c #6D6D6D",
"u 	c #464646",
"v 	c #111111",
"w 	c #000000",
"x 	c #232323",
"y 	c #505050",
"z 	c #686868",
"A 	c #070707",
"B 	c #010101",
"C 	c #242424",
"D 	c #444444",
"E 	c #5D5D5D",
"F 	c #5E5E5E",
"G 	c #5F5F5F",
"H 	c #606060",
"I 	c #636363",
"J 	c #696969",
"K 	c #737373",
"L 	c #4B4B4B",
"M 	c #494949",
"N 	c #1A1A1A",
"O 	c #020202",
"P 	c #0A0A0A",
"Q 	c #515151",
"R 	c #616161",
"S 	c #666666",
"T 	c #6B6B6B",
"U 	c #747474",
"V 	c #717171",
"W 	c #565656",
"X 	c #121212",
"Y 	c #575757",
"Z 	c #353535",
"` 	c #525252",
" .	c #FF00FF",
"..	c #222222",
"+.	c #474747",
"@.	c #191919",
"#.	c #303030",
"$.	c #1C1C1C",
"%.	c #868686",
"&.	c #2E2E2E",
"*.	c #1E1E1E",
"=.	c #7A7A7A",
"-.	c #2D2D2D",
";.	c #1B1B1B",
">.	c #313131",
",.	c #323232",
"'.	c #333333",
").	c #6A6A6A",
"!.	c #767676",
"~.	c #373737",
"{.	c #404040",
"].	c #363636",
"^.	c #656565",
"/.	c #343434",
"(.	c #1F1F1F",
"_.	c #888888",
":.	c #272727",
"<.	c #545454",
"[.	c #A09EA0",
"}.	c #4F4F4F",
"|.	c #939192",
"1.	c #2B2B2B",
"2.	c #615D60",
"3.	c #635F62",
"4.	c #626262",
"5.	c #646464",
"6.	c #676767",
"7.	c #0B0B0B",
"8.	c #282828",
"9.	c #131313",
"0.	c #252525",
"                  . + + + + + + + + + + + + + + + + + + + + + + + + + + + + + + + + + + + + + + + + + + + @ # $                 ",
"                % & + + + + + + + + + + + + + + + + + + + + + + + + + + + + + + + + + + + + + + + + + + * # = - %               ",
"            ; > , ' ) * + + + + + + + + + + + + + + + + + + + + + + + + + + + + + + + + + + + + + + + + ! ~ $ { ] ^ % %         ",
"      % ^ > / ( ] _ ~ ! + + + + + + + + + + + + + + + + + + + + + + + + + + + + + + + + + + + + + + + + * # $ $ : < , [ ;       ",
"    % } | = _ _ _ _ ~ ! + + + + + + + + + + + + 1 2 2 2 2 2 2 2 2 2 2 2 2 2 2 2 3 + + + + + + + + + + + + @ = 4 4 $ _ ' 5       ",
"    6 7 { $ _ 8 # & @ * + + + + + + + + + + ! 9 0 2 2 2 2 2 2 2 2 2 2 2 2 2 2 2 3 + + + + + + + + + + + + + ) = $ 4 4 $ a %     ",
"    : b c $ 8 @ + + + + + + + + + + + + + * ~ d e f 2 2 2 2 2 2 2 2 2 2 2 2 2 2 g ! + + + + + + + + + + + + + * + ) 4 $ { %     ",
"    > b c _ . + + + + + + + + + + + + + + ! $ $ h i j k l f f l k m n n k l l f o . + + + + + + + + + + + + + ! + + $ $ c ;     ",
"    > b c p ) + + + + + + + + + + + + + + * 8 4 $ $ p $ $ $ $ $ $ $ $ $ ' $ $ _ 8 ) + + + + + + + + + + + + + + + * ~ $ q ;     ",
"    : b c p @ + + + + + + + + + + + + ! @ ) . # . # & r 8 d d d 8 8 d ' ' # & s ! + + + + + + + + + + + + + + + * * # 4   ;     ",
"    : b c p @ + + + + + + + + + . = $ 4 $ 4 4 $ = = 8 8 8 8 ' = = = p ' 8 8 8 ~ 8 ' ~ s @ ! * + + + + + + + + + + ! # 4   ;     ",
"    6 t c p ) + + + + + + + + & 4 ; u v w w w w w w w w w w w w w w w w w w w w w w w w x y $ ) + + + + + + + + + + ~ 4   ;     ",
"    ^ t c = @ + + + + + + * @ $ z A B C D D E F G H I J t t ( ( ( 7 < / / / / / K I L M C w N ; r + + + + + + + * + @ 4 % ^     ",
"    ; ( c d 9 + + + + + + @ & z O P Q E E E E E E E E F G R I S z T 7 U / / / / / K V U / W B X % * + + + + + + * + @ 4 ; 6     ",
"    ; V { 8 ! + + + + + + 9 8 v P Y E E E E E E E F G I J ( < U U / / / / / / / / / / / / / E B Z ) + + + + + + ! + ) 4 ; 6     ",
"    % < { ~ * + + + + + + & ` A ; 4 4 4 4 4 4 4 $ _ 5  . . . . . . . . . . . . . . . ./ / / / u w : + + + + + + * + ) 4 % ^     ",
"    % < { ~ * + + + + + + d ..u 4 4 4 4 4 4 4 _ ' r ) +  . . . . . . . . . . . . . . . ./ / / / B +.+ + + + + + * + . $   ^     ",
"    % K c d ! + + + + + + ' O z 4 4 4 4 4 4 _ 8 s ! * + +  . . . . . . . . . . . . . . ./ / / / @.x + + + + + + * + # $ q ;     ",
"    % < c ' 9 + + + + + + _ w 4 4 4 4 4 4 $ 8 @ * + + + +  . . . . . . . . . . . . . . . ./ / / #.$.+ + + + + + + + # $ c ;     ",
"    ; V c p 9 + + + + + + $ w 4 4 4 4 4 4 p . * + + + + + +  . . . . . . . . . . . . . . ./ / / #.$.+ + + + + + + + # $ { ;     ",
"    6 ( c _ @ + + + + + + _ w 4 4 4 4 4 $ d 9 + + + + + + +  . . . . . . . . . . . . . . . ./ / #.$.+ + + + + + + + # $ %.%     ",
"    : t c $ ) + + + + + + _ w 4 4 4 4 4 $ ~ * + + + + + + +  . . . . . . . . . . . . . . . ./ / &.$.+ + + + + + + * r $ %.%     ",
"    : t c $ ) + + + + + + p w 4 4 4 4 4 $ # * + + + + + + +  . . . . . . . . . . . . . . . ./ / &.*.+ + + + + + + @ p $ a %     ",
"    6 t c $ ) + + + + + + = w 4 4 4 4 4 _ . + + + + + + + +  . . . . . . . . . . . . . . . ./ / &.*.+ + + + + + + @ _ $ %.%     ",
"    6 ( c $ @ + + + + + + = w 4 4 4 4 4 p ) + + + + + + + +  . . . . . . . . . . . . . . . ./ / &.*.+ + + + + + + @ _ $ { %     ",
"    : ( c _ 9 + + + + + + d w 4 4 4 4 4 = 9 + + + + + + + +  . . . . . . . . . . . . . . . ./ / &.*.+ + + + + + + @ p $ c ^     ",
"  % ] t c ' * + + + + + + 8 w 4 4 4 4 4 = ! + + + + + + + + +  . . . . . . . . . . . . . . ./ / &.*.+ + + + + + + 9 p 4 ; [     ",
"% =.V T c & + + + + + + + ~ w 4 4 4 4 4 ' ! + + + + + + + + +  . . . . . . . . . . . . . . ./ / &.$.+ + + + + + + 9 ' 4 6 / ;   ",
"; < { 4 $ @ + + + + + + + # w 4 4 4 4 4 = ! + + + + + + + + +  . . . . . . . . . . . . . . ./ / -.;.+ + + + + + + ! d 4 $ ' 5 ; ",
"; 7 c 4 p 9 + + + + + + + ~ w 4 4 4 4 4 _ ! + + + + + + + + +  . . . . . . . . . . . . . . ./ / #.$.+ + + + + + + * 8 4 4 $ q > ",
"; ( c 4 * * + + + + + + * d w 4 4 4 4 4 _ 9 + + + + + + + + +  . . . . . . . . . . . . . . ./ / >.$.+ + + + + + + * ~ 4 4 4 ^ [ ",
"; 7 c 4 + + + + + + + + 9 p w 4 4 4 4 4 $ @ + + + + + + + + +  . . . . . . . . . . . . . . ./ / >.N + + + + + + + * r 4 4 4 ^ > ",
"; 7 c 4 + + + + + + + * @ p w 4 4 4 4 4 $ @ + + + + + + + + +  . . . . . . . . . . . . . . ./ / >.N + + + + + + + * ~ 4 4 4 ^ : ",
"^ 7 c 4 * * + + + + + + * ~ w $ 4 4 4 4 $ ) + + + + + + + + +  . . . . . . . . . . . . . . ./ / ,.N + * ) # ~ ~ r & d 4 4 4 ^ > ",
": ( c 4 / [ =.=.[ : 6 ; . ~ w p 4 4 4 4 $ @ + + + + + + + + +  . . . . . . . . . . . . . . ./ / '.N ! u w w w w w w w N 4 4 ^ [ ",
"[ t c 4 ).).J J ).T ( !.r r w p 4 4 4 4 $ @ + + + + + + + + +  . . . . . . . . . . . . . . ./ / ~.;.) {.w w w w w w w N 4 4 6 ] ",
"=.t c 4 4 4 4 4 4 4 4 _ # ' w 4 4 4 4 4 $ @ + + + + + + + + +  . . . . . . . . . . . . . . ./ / ~.;.s $ 4 4 4 4 4 4 4 4 4 4 6 , ",
"] t c 4 4 4 4 4 4 4 4 4 = = w 4 4 4 4 4 $ @ + + + + + + + + +  . . . . . . . . . . . . . . ./ / ].;.@ p 4 4 $ _ _ $ 4 $ 4 4 : U ",
"] t c 4 w w w w w w w w ^.= w 4 4 4 4 4 $ @ + + + + + + + + +  . . . . . . . . . . . . . . ./ / Z $.* . p p ~ & . r ' ' 4 4 : < ",
"] t c 4 w w w w w w w w T ' w 4 4 4 4 4 _ @ + + + + + + + + +  . . . . . . . . . . . . . . ./ / Z $.+ * 9 @ ! + + * 9 . $ 4 : V ",
"=.t c 4 4 4 $ _ $ $ _ r 9 ' w 4 4 4 4 4 _ 9 + + + + + + + + +  . . . . . . . . . . . . . . ./ / /.$.+ + + + + + + + + 9 _ 4 > V ",
"[ ( c 4 $ p 8 r r d r 9 + ' w 4 4 4 4 4 _ 9 + + + + + + + + +  . . . . . . . . . . . . . . ./ / '.*.+ + + + + + + + + 9 p 4 : V ",
"6 < { s ! s @ ! * 9 @ * + $ w 4 4 4 4 4 _ 9 + + + + + + + + +  . . . . . . . . . . . . . . ./ / '.*.+ + + + + + + + + 9 p 4 : V ",
"; U { + + ! + + + + + + + $ w 4 4 4 4 4 p ! + + + + + + + + +  . . . . . . . . . . . . . . ./ / ,.*.+ + + + + + + + + ! = 4 : V ",
"% !.{ + + + + + + + + + + $ w 4 4 4 4 4 ' ! + + + + + + + + +  . . . . . . . . . . . . . . ./ / #.$.+ + + + + + + + + ! d 4 : V ",
"% !.{ + + + + + + + + + + $ w 4 4 4 4 4 d * + + + + + + + + +  . . . . . . . . . . . . . . ./ / #.$.+ + + + + + + + + ! 8 4 : V ",
"% !.{ ' 9 + + + + + + + + p w 4 4 4 4 $ d * + + + + + + + + +  . . . . . . . . . . . . . . ./ / ,.(.+ + + + + + + + + ! 8 4 : V ",
"; / { _ s @ ) ) ) @ 9 * + _ w 4 4 4 4 $ d * + + + + + + + + +  . . . . . . . . . . . . . . ./ / ,.(.+ + + + + + + + + * 8 4 : V ",
"% !.{ $ w w w w w w w w / p w 4 4 4 4 $ d * + + + + + + + + +  . . . . . . . . . . . . . . ./ / ,.(.+ + + + + + + + + * ~ 4 : < ",
"; / { 4 w w w w w w w w ( = w 4 4 4 4 $ 8 * + + + + + + + + +  . . . . . . . . . . . . . . ./ / ,.(.+ + + + + + + + + * ~ 4 : < ",
"; / { 4 4 4 4 4 4 $ $ $ ~ 8 w 4 4 4 4 $ 8 * + + + + + + + + +  . . . . . . . . . . . . . . ./ / '.*.+ + + + + + + + + * ~ 4 : / ",
"^ U { 4 4 $ _ = d 8 d ' r # w 4 4 4 4 $ 8 * + + + + + + + + +  . . . . . . . . . . . . . . ./ / '.*.+ + + + + + + + + * ~ 4 ^ } ",
"6 K { 4 $ d & ) 9 ! 9 s @ # w 4 4 4 4 $ d * + + + + + + + + +  . . . . . . . . . . . . . . ./ / '.*.+ + + + + + + + + * r 4 ; =.",
"^ K { $ 8 ) * + + + + + * & w 4 4 4 4 $ = 9 + + + + + + + + +  . . . . . . . . . . . . . . ./ / ,.$.+ + + + + + + + + * # 4 ; [ ",
"^ U %.= ) + + + + + + + + r w 4 4 4 4 4 _ ) + + + + + + + + +  . . . . . . . . . . . . . . ./ / ,.;.+ + + + + + + + + + # 4 ; [ ",
"^ U %.8 ! + + + + + + + + 8 w 4 4 4 4 4 $ ~ * + + + + + + + +  . . . . . . . . . . . . . . ./ / ].*.+ + + + + + + + + * # 4 ; =.",
"; / a # + + + + + + + + + 8 w 4 4 4 4 4 4 _ ) + + + + + + + +  . . . . . . . . . . . . . . ./ / ].*.+ + + + + + + + + * # 4 ^ } ",
"; / a . + + + + + + + + + 8 O ; 4 4 4 4 4 4 = @ + + + + + +  . . . . . . . . . . . . . . ./ / / *.C + + + + + + + + + * # 4 ^ , ",
"% / _.s + + + + + + + + + r :.Y 4 4 4 4 4 4 4 = ) * + + +  . . . . . . . . . . . . . . ./ / / / B M + + + + + + + + + * # 4 ^ , ",
"; / a & + + + + + + + + + 8 <.;.4 4 4 4 4 4 4 4 _ ~ ) * [. . . . . . . . . . . . . . ./ / / / +.w V + + + + + + + + + * # 4 ^ } ",
"; U %.~ * + + + + + + + + ' 4 X }.4 4 4 4 4 4 4 4 4 p |. . . . . . . . . . . . . . ./ / / / F B 1._ + + + + + + + + + * # 4 ^ } ",
"; K { ' @ + + + + + + + + r _ z O P Q E E E E E E E E F 2.2.3.4.5.6.J T t ( V < U / / / / W B 7.=.= + + + + + + + + + * # 4 ^ , ",
"^ V c _ . + + + + + + + + + d 4 z A B C D D E E E E E E E E E E F E F F F G R 5.T ).W }.8.w 9.=.4 9 + + + + + + + + + * # 4 ^ , ",
": ( c $ ~ ! + + + + + + + + ! 4 4 ; u v w w w w w w w w w w w w w w w w w w w w w w w w 0.L - # & + + + + + + + + + + * # 4 ^ , "};
