/* XPM */
static char *result[] = {
/* columns rows colors chars-per-pixel */
"64 64 162 2 ",
"   c black",
".  c #060606",
"X  c #070707",
"o  c gray3",
"O  c #090909",
"+  c #101010",
"@  c gray7",
"#  c #131313",
"$  c #181818",
"%  c #191919",
"&  c gray10",
"*  c gray12",
"=  c #202020",
"-  c gray13",
";  c #222222",
":  c #232323",
">  c gray14",
",  c #272727",
"<  c #282828",
"1  c gray16",
"2  c #2A2A2A",
"3  c gray17",
"4  c #2C2C2C",
"5  c #2F2F2F",
"6  c #313131",
"7  c #323232",
"8  c gray20",
"9  c #343434",
"0  c #353535",
"q  c gray21",
"w  c #373737",
"e  c gray22",
"r  c #393939",
"t  c #3A3A3A",
"y  c gray26",
"u  c #464646",
"i  c #484848",
"p  c #494949",
"a  c gray29",
"s  c #4C4C4C",
"d  c #505050",
"f  c #515151",
"g  c gray32",
"h  c #535353",
"j  c #555555",
"k  c gray34",
"l  c #585858",
"z  c #5D5D5D",
"x  c gray37",
"c  c #5F5F5F",
"v  c #605D60",
"b  c #625F62",
"n  c #606060",
"m  c gray38",
"M  c #626262",
"N  c gray39",
"B  c #646464",
"V  c #656565",
"C  c gray40",
"Z  c #676767",
"A  c #686868",
"S  c DimGray",
"D  c #6A6A6A",
"F  c gray42",
"G  c #6C6C6C",
"H  c #6D6D6D",
"J  c gray43",
"K  c #6F6F6F",
"L  c #7F6B7F",
"P  c gray44",
"I  c #717171",
"U  c #727272",
"Y  c gray45",
"T  c #747474",
"R  c gray46",
"E  c #767676",
"W  c #777777",
"Q  c gray47",
"!  c #797979",
"~  c gray48",
"^  c #7B7B7B",
"/  c #7C7C7C",
"(  c gray49",
")  c #7E7E7E",
"_  c gray50",
"`  c #9B5A58",
"'  c #9E5D5B",
"]  c #9F5D5C",
"[  c #9F5E5C",
"{  c #A05F5D",
"}  c #A1605E",
"|  c #A2615F",
" . c #966261",
".. c #9D6B6A",
"X. c #977372",
"o. c #9E7B7A",
"O. c #A36260",
"+. c #A1706F",
"@. c #A27170",
"#. c #A1807F",
"$. c #AE63AE",
"%. c #ED0FED",
"&. c #E71FE7",
"*. c #EC1EEC",
"=. c #FB03FB",
"-. c #F805F8",
";. c #FA05FA",
":. c #FB04FB",
">. c #FB06FB",
",. c #FB07FB",
"<. c #FD01FD",
"1. c #FC02FC",
"2. c #FC03FC",
"3. c #FD02FD",
"4. c #FD03FD",
"5. c #FE00FE",
"6. c #FE01FE",
"7. c magenta",
"8. c #FF01FF",
"9. c #FE02FE",
"0. c #FC04FC",
"q. c #FC05FC",
"w. c #FD04FD",
"e. c #FC06FC",
"r. c #F90BF9",
"t. c #E726E7",
"y. c #E32DE3",
"u. c #D248D2",
"i. c #808080",
"p. c #818181",
"a. c gray51",
"s. c #838383",
"d. c #848484",
"f. c gray52",
"g. c #868686",
"h. c gray53",
"j. c #888888",
"k. c #898989",
"l. c gray54",
"z. c #8B8B8B",
"x. c gray55",
"c. c #8D8D8D",
"v. c #8E8E8E",
"b. c gray56",
"n. c #909090",
"m. c #919091",
"M. c gray57",
"N. c #929292",
"B. c #939393",
"V. c gray58",
"C. c #959595",
"Z. c gray59",
"A. c #979797",
"S. c #989898",
"D. c gray60",
"F. c #9A9A9A",
"G. c #9B9B9B",
"H. c gray61",
"J. c #9D9D9D",
"K. c #9E9D9E",
"L. c gray62",
"P. c #AB8AAB",
/* pixels */
"p.p.p.p.p.p.p.p.p.A.L.L.L.L.L.L.L.L.L.L.L.L.L.L.L.L.L.L.L.L.L.L.L.L.L.L.L.L.L.L.L.L.L.L.L.L.L.L.L.L.L.L.L.F.C.x.p.p.p.p.p.p.p.p.",
"p.p.p.p.p.p.p.p.i.Z.L.L.L.L.L.L.L.L.L.L.L.L.L.L.L.L.L.L.L.L.L.L.L.L.L.L.L.L.L.L.L.L.L.L.L.L.L.L.L.L.L.L.J.C.b.j.i.p.p.p.p.p.p.p.",
"p.p.p.p.p.p._ ^ E n.D.J.L.L.L.L.L.L.L.L.L.L.L.L.L.L.L.L.L.L.L.L.L.L.L.L.L.L.L.L.L.L.L.L.L.L.L.L.L.L.L.L.H.B.x.d.Q ) i.i.p.p.p.p.",
"p.p.p.i.) ^ T J Q c.B.H.L.L.L.L.L.L.L.L.L.L.L.L.L.L.L.L.L.L.L.L.L.L.L.L.L.L.L.L.L.L.L.L.L.L.L.L.L.L.L.L.J.C.x.x./ I E ~ _ p.p.p.",
"p.p.i.W l.b.c.c.c.c.B.H.L.L.L.L.L.L.L.L.L.L.L.L.@.O.O.O.O.O.O.O.O.O.O.O.O.O.O.O.#.L.L.L.L.L.L.L.L.L.L.L.L.F.b.z.z.x.c.n.k.p.p.p.",
"p.p.( K d.x.c.N.C.Z.F.J.L.L.L.L.L.L.L.L.L.L.H.G.+.O.O.O.O.O.O.O.O.O.O.O.O.O.O.O.#.L.L.L.L.L.L.L.L.L.L.L.L.L.D.b.x.z.z.x.g.i.p.p.",
"p.p./ G s.x.N.F.L.L.L.L.L.L.L.L.L.L.L.L.L.J.B.M...| O.O.O.O.O.O.O.O.O.O.O.O.O.O.o.H.L.L.L.L.L.L.L.L.L.L.L.L.L.J.L.D.z.x.d.i.p.p.",
"p.p.^ G s.c.A.L.L.L.L.L.L.L.L.L.L.L.L.L.L.H.x.x. .` ' { } | | } { ] [ [ { } } | X.A.L.L.L.L.L.L.L.L.L.L.L.L.L.H.L.L.x.x.s._ p.p.",
"p.p.^ G s.v.D.L.L.L.L.L.L.L.L.L.L.L.L.L.L.J.N.z.x.x.v.x.x.x.x.x.x.x.x.x.n.x.x.c.N.D.L.L.L.L.L.L.L.L.L.L.L.L.L.L.L.J.B.x.a._ p.p.",
"p.p./ G s.v.F.L.L.L.L.L.L.L.L.L.L.L.L.H.F.D.A.C.A.C.Z.V.N.M.M.M.N.N.M.n.n.C.Z.S.H.L.L.L.L.L.L.L.L.L.L.L.L.L.L.L.J.J.C.z.p._ p.p.",
"p.p./ G s.v.F.L.L.L.L.L.L.L.L.L.A.b.x.z.x.z.z.x.b.b.N.N.N.N.n.b.b.b.v.n.N.N.N.B.N.n.B.S.F.H.J.L.L.L.L.L.L.L.L.L.L.H.C.z.p._ p.p.",
"p.p.( H s.v.D.L.L.L.L.L.L.L.L.Z.z._ i $                                                 < f x.D.L.L.L.L.L.L.L.L.L.L.B.z.p._ p.p.",
"p.p.) H s.b.F.L.L.L.L.L.L.J.F.x.A + . 1 u u z x c n N S H H J J J K I T T T T T U N s a 1   = _ V.L.L.L.L.L.L.L.J.L.F.z.i.) p.p.",
"p.p._ J s.M.G.L.L.L.L.L.L.F.Z.A o @ g z z z z z z z z x c m N C A F K Y T T T T T U P Y T k X % i.J.L.L.L.L.L.L.J.L.F.z._ ( p.p.",
"p.p._ P d.N.H.L.L.L.L.L.L.G.N.$ @ l z z z z z z z x c N S J I Y Y T T T T T T T T T T T T T z . e D.L.L.L.L.L.L.H.L.D.z._ ( p.p.",
"p.p.i.I d.B.J.L.L.L.L.L.L.Z.h + _ z.z.z.z.z.z.z.x.c.k.$.0.7.7.7.7.7.7.7.7.7.7.7.7.2.:.T T T T i   / L.L.L.L.L.L.J.L.D.z.i.) p.p.",
"p.p.i.I d.B.J.L.L.L.L.L.L.M., i z.z.z.z.z.z.z.c.n.V.D.L.t.7.7.7.7.7.7.7.7.7.7.7.7.7.7.;.T T T T . p L.L.L.L.L.L.J.L.A.x.p.) p.p.",
"p.p.i.U s.M.H.L.L.L.L.L.L.n.o A z.z.z.z.z.z.c.N.S.H.J.L.L.0.7.7.7.7.7.7.7.7.7.7.7.7.7.7.T T T T * < L.L.L.L.L.L.J.L.C.x.a._ p.p.",
"p.p.i.I s.n.G.L.L.L.L.L.L.c.  z.z.z.z.z.z.x.N.F.J.L.L.L.L.u.7.7.7.7.7.7.7.7.7.7.7.7.7.7.-.T T T 8 ; L.L.L.L.L.L.L.L.C.x.s._ p.p.",
"p.p._ P s.v.G.L.L.L.L.L.L.x.  z.z.z.z.z.z.v.A.J.L.L.L.L.L.L.4.7.7.7.7.7.7.7.7.7.7.7.7.7.7.T T T 8 ; L.L.L.L.L.L.L.L.C.x.d._ p.p.",
"p.p.( J s.c.F.L.L.L.L.L.L.c.  z.z.z.z.z.x.M.G.L.L.L.L.L.L.L.7.7.7.7.7.7.7.7.7.7.7.7.7.7.7.=.T T 8 ; L.L.L.L.L.L.L.L.C.x.f.i.p.p.",
"p.p./ H s.x.D.L.L.L.L.L.L.c.  z.z.z.z.z.x.B.J.L.L.L.L.L.L.L.q.7.7.7.7.7.7.7.7.7.7.7.7.7.7.7.T T 7 ; L.L.L.L.L.L.L.J.V.x.f.i.p.p.",
"p.p./ H s.x.D.L.L.L.L.L.L.v.  z.z.z.z.z.x.C.J.L.L.L.L.L.L.L.P.9.7.7.7.7.7.7.7.7.7.7.7.7.7.6.T T 7 : L.L.L.L.L.L.L.F.v.x.g.i.p.p.",
"p.p.( H s.x.D.L.L.L.L.L.L.b.  z.z.z.z.z.c.A.L.L.L.L.L.L.L.L.L.9.7.7.7.7.7.7.7.7.7.7.7.7.7.:.T T 7 : L.L.L.L.L.L.L.F.c.x.f.i.p.p.",
"p.p.( J s.x.F.L.L.L.L.L.L.b.  z.z.z.z.z.v.D.L.L.L.L.L.L.L.L.L.9.7.7.7.7.7.7.7.7.7.7.7.7.7.:.T T 7 : L.L.L.L.L.L.L.F.c.x.d.i.p.p.",
"p.p./ J s.c.G.L.L.L.L.L.L.M.  z.z.z.z.z.b.G.L.L.L.L.L.L.L.L.L.9.7.7.7.7.7.7.7.7.7.7.7.7.7.=.T T 7 : L.L.L.L.L.L.L.F.v.x.s.) p.p.",
"p.i.Q H s.n.J.L.L.L.L.L.L.N.  z.z.z.z.z.b.H.L.L.L.L.L.L.L.L.L.9.7.7.7.7.7.7.7.7.7.7.7.7.7.=.T T 7 : L.L.L.L.L.L.L.G.v.z._ ~ p.p.",
"i.! P F s.Z.L.L.L.L.L.L.L.B.  z.z.z.z.z.n.H.L.L.L.L.L.L.L.L.L.9.7.7.7.7.7.7.7.7.7.7.7.7.7.2.T T 7 ; L.L.L.L.L.L.L.G.n.z.( T _ p.",
"_ I d.z.x.F.L.L.L.L.L.L.L.C.  z.z.z.z.z.b.H.L.L.L.L.L.L.L.L.L.9.7.7.7.7.7.7.7.7.7.7.7.7.7.1.T T 6 - L.L.L.L.L.L.L.H.M.z.x.n.k._ ",
"_ K s.z.v.G.L.L.L.L.L.L.L.B.  z.z.z.z.z.c.H.L.L.L.L.L.L.L.L.L.3.7.7.7.7.7.7.7.7.7.7.7.7.7.3.T T 8 ; L.L.L.L.L.L.L.J.N.z.z.x.a.^ ",
"_ J s.z.J.J.L.L.L.L.L.L.J.M.  z.z.z.z.z.c.G.L.L.L.L.L.L.L.L.L.3.7.7.7.7.7.7.7.7.7.7.7.7.7.3.T T 9 ; L.L.L.L.L.L.L.J.B.z.z.z.) ~ ",
"_ K s.z.L.L.L.L.L.L.L.L.G.v.  z.z.z.z.z.x.F.L.L.L.L.L.L.L.L.L.4.7.7.7.7.7.7.7.7.7.7.7.7.7.3.T T 9 = L.L.L.L.L.L.L.J.V.z.z.z.) ^ ",
"_ K s.z.L.L.L.L.L.L.L.J.F.v.  z.z.z.z.z.x.F.L.L.L.L.L.L.L.L.L.3.7.7.7.7.7.7.7.7.7.7.7.7.7.<.T T 9 = L.L.L.L.L.L.L.J.B.z.z.z.) / ",
") K s.z.J.J.L.L.L.L.L.L.J.B.  x.z.z.z.z.x.D.L.L.L.L.L.L.L.L.L.4.7.7.7.7.7.7.7.7.7.7.7.7.7.<.T T 0 = L.J.D.C.B.B.V.Z.M.z.z.z.) ^ ",
"/ J s.z.T ~ ! ! ~ / ( _ A.B.  v.z.z.z.z.x.F.L.L.L.L.L.L.L.L.L.4.7.7.7.7.7.7.7.7.7.7.7.7.7.<.T T q = H.i               = z.z.) ~ ",
"~ H s.z.D D S S D F J R V.V.  v.z.z.z.z.x.F.L.L.L.L.L.L.L.L.L.4.7.7.7.7.7.7.7.7.7.7.7.7.7.6.T T t - D.y               = z.z.( Q ",
"! H s.z.z.z.z.z.z.z.z.c.C.n.  z.z.z.z.z.x.F.L.L.L.L.L.L.L.L.L.4.7.7.7.7.7.7.7.7.7.7.7.7.7.6.T T t - S.x.z.z.z.z.z.z.z.z.z.z.( E ",
"Q H s.z.z.z.z.z.z.z.z.z.b.b.  z.z.z.z.z.x.F.L.L.L.L.L.L.L.L.L.4.7.7.7.7.7.7.7.7.7.7.7.7.7.<.T T r - F.v.z.z.x.c.c.x.z.x.z.z./ Y ",
"Q H s.z.                V b.  z.z.z.z.z.x.F.L.L.L.L.L.L.L.L.L.4.7.7.7.7.7.7.7.7.7.7.7.7.7.3.T T e ; J.A.v.v.B.Z.A.V.n.n.z.z./ I ",
"Q H s.z.                F n.  z.z.z.z.z.c.F.L.L.L.L.L.L.L.L.L.4.7.7.7.7.7.7.7.7.7.7.7.7.7.1.T T e ; L.J.G.F.H.L.L.J.G.A.x.z./ P ",
"! H s.z.z.z.x.c.x.x.c.V.G.n.  z.z.z.z.z.c.G.L.L.L.L.L.L.L.L.L.4.7.7.7.7.7.7.7.7.7.7.7.7.7.1.T T w ; L.L.L.L.L.L.L.L.L.G.c.z.^ P ",
"~ J s.z.x.v.N.V.V.M.V.G.L.n.  z.z.z.z.z.c.G.L.L.L.L.L.L.L.L.L.4.7.7.7.7.7.7.7.7.7.7.7.7.7.1.T T q : L.L.L.L.L.L.L.L.L.G.v.z./ P ",
"( I d.S.H.S.F.H.J.G.F.J.L.x.  z.z.z.z.z.c.G.L.L.L.L.L.L.L.L.L.4.7.7.7.7.7.7.7.7.7.7.7.7.7.3.T T q : L.L.L.L.L.L.L.L.L.G.v.z./ P ",
"_ Y d.L.L.H.L.L.L.L.L.L.L.x.  z.z.z.z.z.v.H.L.L.L.L.L.L.L.L.L.4.7.7.7.7.7.7.7.7.7.7.7.7.7.6.T T 0 : L.L.L.L.L.L.L.L.L.H.b.z./ P ",
"i.R d.L.L.L.L.L.L.L.L.L.L.x.  z.z.z.z.z.n.H.L.L.L.L.L.L.L.L.L.w.7.7.7.7.7.7.7.7.7.7.7.7.7.6.T T 8 ; L.L.L.L.L.L.L.L.L.H.M.z./ P ",
"i.R d.L.L.L.L.L.L.L.L.L.L.x.  z.z.z.z.z.M.J.L.L.L.L.L.L.L.L.L.w.7.7.7.7.7.7.7.7.7.7.7.7.7.5.T T 8 ; L.L.L.L.L.L.L.L.L.H.N.z./ P ",
"i.R d.n.G.L.L.L.L.L.L.L.L.v.  z.z.z.z.x.M.J.L.L.L.L.L.L.L.L.L.0.7.7.7.7.7.7.7.7.7.7.7.7.7.5.T T 0 > L.L.L.L.L.L.L.L.L.H.N.z./ P ",
"_ T d.c.S.F.D.D.D.F.G.J.L.c.  z.z.z.z.x.M.J.L.L.L.L.L.L.L.L.L.q.7.7.7.7.7.7.7.7.7.7.7.7.7.5.T T 0 > L.L.L.L.L.L.L.L.L.J.N.z./ P ",
"i.R d.x.                T v.  z.z.z.z.x.M.J.L.L.L.L.L.L.L.L.L.>.7.7.7.7.7.7.7.7.7.7.7.7.7.5.T T 0 > L.L.L.L.L.L.L.L.L.J.B.z./ I ",
"_ T d.z.                J b.  z.z.z.z.x.N.J.L.L.L.L.L.L.L.L.L.,.7.7.7.7.7.7.7.7.7.7.7.7.7.5.T T 0 > L.L.L.L.L.L.L.L.L.J.B.z./ I ",
"_ T d.z.z.z.z.z.z.x.x.x.B.N.  z.z.z.z.x.N.J.L.L.L.L.L.L.L.L.L.,.7.7.7.7.7.7.7.7.7.7.7.7.7.5.T T q : L.L.L.L.L.L.L.L.L.J.B.z./ T ",
") Y d.z.z.x.c.b.M.N.M.n.V.C.  z.z.z.z.x.N.J.L.L.L.L.L.L.L.L.L.>.7.7.7.7.7.7.7.7.7.7.7.7.7.6.T T q : L.L.L.L.L.L.L.L.L.J.B.z.) W ",
"( U d.z.x.M.Z.D.G.H.G.S.F.C.  z.z.z.z.x.M.J.L.L.L.L.L.L.L.L.L.e.7.7.7.7.7.7.7.7.7.7.7.7.7.5.T T q : L.L.L.L.L.L.L.L.L.J.V.z._ ! ",
") U d.x.N.D.J.L.L.L.L.L.J.Z.  z.z.z.z.x.b.G.L.L.L.L.L.L.L.L.L.w.7.7.7.7.7.7.7.7.7.7.7.7.7.5.T T 0 ; L.L.L.L.L.L.L.L.L.J.C.z._ ~ ",
") Y f.b.D.L.L.L.L.L.L.L.L.V.  z.z.z.z.z.c.D.L.L.L.L.L.L.L.L.L.w.7.7.7.7.7.7.7.7.7.7.7.7.7.6.T T 0 - L.L.L.L.L.L.L.L.L.L.C.z._ ~ ",
") Y f.N.H.L.L.L.L.L.L.L.L.N.  z.z.z.z.z.x.B.J.L.L.L.L.L.L.L.L.6.7.7.7.7.7.7.7.7.7.7.7.7.7.6.T T r : L.L.L.L.L.L.L.L.L.J.C.z._ ! ",
"_ T g.C.L.L.L.L.L.L.L.L.L.N.  z.z.z.z.z.z.c.D.L.L.L.L.L.L.L.L.7.7.7.7.7.7.7.7.7.7.7.7.7.7.%.T T r : L.L.L.L.L.L.L.L.L.J.C.z.) W ",
"_ T g.A.L.L.L.L.L.L.L.L.L.N.O _ z.z.z.z.z.z.b.F.L.L.L.L.L.L.r.7.7.7.7.7.7.7.7.7.7.7.7.7.6.T T T : 1 L.L.L.L.L.L.L.L.L.J.C.z.) E ",
"i.T h.S.L.L.L.L.L.L.L.L.L.V.3 l z.z.z.z.z.z.z.b.D.J.L.L.L.y.7.7.7.7.7.7.7.7.7.7.7.7.7.7.T T T T X a L.L.L.L.L.L.L.L.L.J.C.z.) E ",
"_ T g.Z.L.L.L.L.L.L.L.L.L.N.j - z.z.z.z.z.z.z.z.c.B.D.J.K.*.7.7.7.7.7.7.7.7.7.7.7.7.5.T T T T p   P L.L.L.L.L.L.L.L.L.J.C.z.) W ",
"_ Y f.B.J.L.L.L.L.L.L.L.L.n.z.% d z.z.z.z.z.z.z.z.z.v.m.&.7.7.7.8.8.8.9.3.3.3.6.2.7.L T T T x X 5 c.L.L.L.L.L.L.L.L.L.J.C.z.) W ",
"_ U d.n.F.L.L.L.L.L.L.L.L.V.c.A o @ g z z z z z z z z x v v b M B Z S F H J P I Y T T T T k . # ! b.L.L.L.L.L.L.L.L.L.J.C.z.) E ",
") P s.c.A.L.L.L.L.L.L.L.L.L.M.z.A + . 1 u u z z z z z z z z z z x z x x x c m B F D k d 4   & ! z.G.L.L.L.L.L.L.L.L.L.J.C.z.) E ",
"/ J s.x.B.H.L.L.L.L.L.L.L.L.H.z.z._ i $                                                 2 s j.C.Z.L.L.L.L.L.L.L.L.L.L.J.C.z.) E "
};
