/* XPM */
static char *result[] = {
/* columns rows colors chars-per-pixel */
"64 64 139 2 ",
"   c black",
".  c #060606",
"X  c #070707",
"o  c gray3",
"O  c #090909",
"+  c #101010",
"@  c gray7",
"#  c #131313",
"$  c #181818",
"%  c #191919",
"&  c gray10",
"*  c gray12",
"=  c #202020",
"-  c gray13",
";  c #222222",
":  c #232323",
">  c gray14",
",  c #272727",
"<  c #282828",
"1  c gray16",
"2  c #2A2A2A",
"3  c gray17",
"4  c #2C2C2C",
"5  c #2F2F2F",
"6  c #313131",
"7  c #323232",
"8  c gray20",
"9  c #343434",
"0  c #353535",
"q  c gray21",
"w  c #373737",
"e  c gray22",
"r  c #393939",
"t  c #3A3A3A",
"y  c gray26",
"u  c #464646",
"i  c #484848",
"p  c #494949",
"a  c gray29",
"s  c #4C4C4C",
"d  c #505050",
"f  c #515151",
"g  c gray32",
"h  c #535353",
"j  c #555555",
"k  c gray34",
"l  c #585858",
"z  c #5D5D5D",
"x  c gray37",
"c  c #5F5F5F",
"v  c #606060",
"b  c gray38",
"n  c #626262",
"m  c gray39",
"M  c #646464",
"N  c #656565",
"B  c gray40",
"V  c #676767",
"C  c #686868",
"Z  c DimGray",
"A  c #6A6A6A",
"S  c gray42",
"D  c #6C6C6C",
"F  c #6D6D6D",
"G  c gray43",
"H  c #6F6F6F",
"J  c gray44",
"K  c #717171",
"L  c #727272",
"P  c gray45",
"I  c #747474",
"U  c gray46",
"Y  c #767676",
"T  c #777777",
"R  c gray47",
"E  c #797979",
"W  c gray48",
"Q  c #7B7B7B",
"!  c #7C7C7C",
"~  c gray49",
"^  c #7E7E7E",
"/  c gray50",
"(  c #9B5A58",
")  c #9E5D5B",
"_  c #9F5D5C",
"`  c #9F5E5C",
"'  c #A05F5D",
"]  c #A1605E",
"[  c #A2615F",
"{  c #966261",
"}  c #9D6B6A",
"|  c #977372",
" . c #9E7B7A",
".. c #A36260",
"X. c #A1706F",
"o. c #A27170",
"O. c #A1807F",
"+. c #D52DD5",
"@. c #E80CE8",
"#. c #E51EE5",
"$. c #F505F5",
"%. c #F10CF1",
"&. c #FA05FA",
"*. c #FB04FB",
"=. c #FE00FE",
"-. c #FE01FE",
";. c magenta",
":. c #FF01FF",
">. c #808080",
",. c #818181",
"<. c gray51",
"1. c #838383",
"2. c #848484",
"3. c gray52",
"4. c #868686",
"5. c gray53",
"6. c #888888",
"7. c #898989",
"8. c gray54",
"9. c #8B8B8B",
"0. c gray55",
"q. c #8D8D8D",
"w. c #8E8E8E",
"e. c gray56",
"r. c #909090",
"t. c gray57",
"y. c #929292",
"u. c #939393",
"i. c gray58",
"p. c #959595",
"a. c gray59",
"s. c #979797",
"d. c #989898",
"f. c gray60",
"g. c #9A9A9A",
"h. c #9B9B9B",
"j. c gray61",
"k. c #9D9D9D",
"l. c gray62",
/* pixels */
",.,.,.,.,.,.,.,.,.s.l.l.l.l.l.l.l.l.l.l.l.l.l.l.l.l.l.l.l.l.l.l.l.l.l.l.l.l.l.l.l.l.l.l.l.l.l.l.l.l.l.l.l.g.p.0.,.,.,.,.,.,.,.,.",
",.,.,.,.,.,.,.,.>.a.l.l.l.l.l.l.l.l.l.l.l.l.l.l.l.l.l.l.l.l.l.l.l.l.l.l.l.l.l.l.l.l.l.l.l.l.l.l.l.l.l.l.k.p.e.6.>.,.,.,.,.,.,.,.",
",.,.,.,.,.,./ Q Y r.f.k.l.l.l.l.l.l.l.l.l.l.l.l.l.l.l.l.l.l.l.l.l.l.l.l.l.l.l.l.l.l.l.l.l.l.l.l.l.l.l.l.j.u.0.2.R ^ >.>.,.,.,.,.",
",.,.,.>.^ Q I G R q.u.j.l.l.l.l.l.l.l.l.l.l.l.l.l.l.l.l.l.l.l.l.l.l.l.l.l.l.l.l.l.l.l.l.l.l.l.l.l.l.l.l.k.p.0.0.! K Y W / ,.,.,.",
",.,.>.T 8.e.q.q.q.q.u.j.l.l.l.l.l.l.l.l.l.l.l.l.o...............................O.l.l.l.l.l.l.l.l.l.l.l.l.g.e.9.9.0.q.r.7.,.,.,.",
",.,.~ H 2.0.q.y.p.a.g.k.l.l.l.l.l.l.l.l.l.l.j.h.X...............................O.l.l.l.l.l.l.l.l.l.l.l.l.l.f.e.0.9.9.0.4.>.,.,.",
",.,.! D 1.0.y.g.l.l.l.l.l.l.l.l.l.l.l.l.l.k.u.t.} [ ............................ .j.l.l.l.l.l.l.l.l.l.l.l.l.l.k.l.f.9.0.2.>.,.,.",
",.,.Q D 1.q.s.l.l.l.l.l.l.l.l.l.l.l.l.l.l.j.0.0.{ ( ) ' ] [ [ ] ' _ ` ` ' ] ] [ | s.l.l.l.l.l.l.l.l.l.l.l.l.l.j.l.l.0.0.1./ ,.,.",
",.,.Q D 1.w.f.l.l.l.l.l.l.l.l.l.l.l.l.l.l.k.y.9.0.0.w.0.0.0.0.0.0.0.0.0.r.0.0.q.y.f.l.l.l.l.l.l.l.l.l.l.l.l.l.l.l.k.u.0.<./ ,.,.",
",.,.! D 1.w.g.l.l.l.l.l.l.l.l.l.l.l.l.j.g.f.s.p.s.p.a.i.y.t.t.t.y.y.t.r.r.p.a.d.j.l.l.l.l.l.l.l.l.l.l.l.l.l.l.l.k.k.p.9.,./ ,.,.",
",.,.! D 1.w.g.l.l.l.l.l.l.l.l.l.s.e.0.9.0.9.9.0.e.e.y.y.y.y.r.e.e.e.w.r.y.y.y.u.y.r.u.d.g.j.k.l.l.l.l.l.l.l.l.l.l.j.p.9.,./ ,.,.",
",.,.~ F 1.w.f.l.l.l.l.l.l.l.l.a.9./ i $                                                 < f 0.f.l.l.l.l.l.l.l.l.l.l.u.9.,./ ,.,.",
",.,.^ F 1.e.g.l.l.l.l.l.l.k.g.0.C + . 1 u u z x c v m Z F F G G G H K I I I I I L m s a 1   = / i.l.l.l.l.l.l.l.k.l.g.9.>.^ ,.,.",
",.,./ G 1.t.h.l.l.l.l.l.l.g.a.C o @ g z z z z z z z z x c b m B C S H P I I I I I L J P I k X % >.k.l.l.l.l.l.l.k.l.g.9./ ~ ,.,.",
",.,./ J 2.y.j.l.l.l.l.l.l.h.y.$ @ l z z z z z z z x c m Z G K P P I I I I I I I I I I I I I z . e f.l.l.l.l.l.l.j.l.f.9./ ~ ,.,.",
",.,.>.K 2.u.k.l.l.l.l.l.l.a.h + Y D z z z z =.;.;.;.;.;.;.;.;.;.;.;.;.;.;.;.;.;.;.&.I I I I I i   ! l.l.l.l.l.l.k.l.f.9.>.^ ,.,.",
",.,.>.K 2.u.k.l.l.l.l.l.l.t., i 9.9./ v @.;.;.;.;.;.;.;.;.;.;.;.;.;.;.;.;.;.;.;.;.;.=.I I I I I . p l.l.l.l.l.l.k.l.s.0.,.^ ,.,.",
",.,.>.L 1.t.j.l.l.l.l.l.l.r.o C 9.9.9.<.;.;.;.;.;.;.;.;.;.;.;.;.;.;.;.;.;.;.;.;.;.;.;.;.I I I I * < l.l.l.l.l.l.k.l.p.0.<./ ,.,.",
",.,.>.K 1.r.h.l.l.l.l.l.l.q.  9.9.9.9.9.:.;.;.;.;.;.;.;.;.;.;.;.;.;.;.;.;.;.;.;.;.;.;.;.=.I I I 8 ; l.l.l.l.l.l.l.l.p.0.1./ ,.,.",
",.,./ J 1.w.h.l.l.l.l.l.l.0.  9.9.9.9.9.#.;.;.;.;.;.;.;.;.;.;.;.;.;.;.;.;.;.;.;.;.;.;.;.;.I I I 8 ; l.l.l.l.l.l.l.l.p.0.2./ ,.,.",
",.,.~ G 1.q.g.l.l.l.l.l.l.q.  9.9.9.9.9.0.;.;.;.;.;.;.;.;.;.;.;.;.;.;.;.;.;.;.;.;.;.;.;.;.-.I I 8 ; l.l.l.l.l.l.l.l.p.0.3.>.,.,.",
",.,.! F 1.0.f.l.l.l.l.l.l.q.  9.9.9.9.9.0.;.;.;.;.;.;.;.;.;.;.;.;.;.;.;.;.;.;.;.;.;.;.;.;.=.I I 7 ; l.l.l.l.l.l.l.k.i.0.3.>.,.,.",
",.,.! F 1.0.f.l.l.l.l.l.l.w.  9.9.9.9.9.0.;.;.;.;.;.;.;.;.;.;.;.;.;.;.;.;.;.;.;.;.;.;.;.;.=.I I 7 : l.l.l.l.l.l.l.g.w.0.4.>.,.,.",
",.,.~ F 1.0.f.l.l.l.l.l.l.e.  9.9.9.9.9.q.;.;.;.;.;.;.;.;.;.;.;.;.;.;.;.;.;.;.;.;.;.;.;.;.=.I I 7 : l.l.l.l.l.l.l.g.q.0.3.>.,.,.",
",.,.~ G 1.0.g.l.l.l.l.l.l.e.  9.9.9.9.9.w.;.;.;.;.;.;.;.;.;.;.;.;.;.;.;.;.;.;.;.;.;.;.;.;.=.I I 7 : l.l.l.l.l.l.l.g.q.0.2.>.,.,.",
",.,.! G 1.q.h.l.l.l.l.l.l.t.  9.9.9.9.9.e.;.;.;.;.;.;.;.;.;.;.;.;.;.;.;.;.;.;.;.;.;.;.;.;.=.I I 7 : l.l.l.l.l.l.l.g.w.0.1.^ ,.,.",
",.>.R F 1.r.k.l.l.l.l.l.l.y.  9.9.9.9.9.e.;.;.;.;.;.;.;.;.;.;.;.;.;.;.;.;.;.;.;.;.;.;.;.;.=.I I 7 : l.l.l.l.l.l.l.h.w.9./ W ,.,.",
">.E J S 1.a.l.l.l.l.l.l.l.u.  9.9.9.9.9.r.;.;.;.;.;.;.;.;.;.;.;.;.;.;.;.;.;.;.;.;.;.;.;.;.=.I I 7 ; l.l.l.l.l.l.l.h.r.9.~ I / ,.",
"/ K 2.9.0.g.l.l.l.l.l.l.l.p.  9.9.9.9.9.e.;.;.;.;.;.;.;.;.;.;.;.;.;.;.;.;.;.;.;.;.;.;.;.;.=.I I 6 - l.l.l.l.l.l.l.j.t.9.0.r.7./ ",
"/ H 1.9.w.h.l.l.l.l.l.l.l.u.  9.9.9.9.9.q.;.;.;.;.;.;.;.;.;.;.;.;.;.;.;.;.;.;.;.;.;.;.;.;.=.I I 8 ; l.l.l.l.l.l.l.k.y.9.9.0.<.Q ",
"/ G 1.9.k.k.l.l.l.l.l.l.k.t.  9.9.9.9.9.q.;.;.;.;.;.;.;.;.;.;.;.;.;.;.;.;.;.;.;.;.;.;.;.;.=.I I 9 ; l.l.l.l.l.l.l.k.u.9.9.9.^ W ",
"/ H 1.9.l.l.l.l.l.l.l.l.h.w.  9.9.9.9.9.0.;.;.;.;.;.;.;.;.;.;.;.;.;.;.;.;.;.;.;.;.;.;.;.;.=.I I 9 = l.l.l.l.l.l.l.k.i.9.9.9.^ Q ",
"/ H 1.9.l.l.l.l.l.l.l.k.g.w.  9.9.9.9.9.0.;.;.;.;.;.;.;.;.;.;.;.;.;.;.;.;.;.;.;.;.;.;.;.;.=.I I 9 = l.l.l.l.l.l.l.k.u.9.9.9.^ ! ",
"^ H 1.9.k.k.l.l.l.l.l.l.k.u.  0.9.9.9.9.0.;.;.;.;.;.;.;.;.;.;.;.;.;.;.;.;.;.;.;.;.;.;.;.;.=.I I 0 = l.k.f.p.u.u.i.a.t.9.9.9.^ Q ",
"! G 1.9.I W E E W ! ~ / s.u.  w.9.9.9.9.0.;.;.;.;.;.;.;.;.;.;.;.;.;.;.;.;.;.;.;.;.;.;.;.;.=.I I q = j.i               = 9.9.^ W ",
"W F 1.9.A A Z Z A S G U i.i.  w.9.9.9.9.0.;.;.;.;.;.;.;.;.;.;.;.;.;.;.;.;.;.;.;.;.;.;.;.;.=.I I t - f.y               = 9.9.~ R ",
"E F 1.9.9.9.9.9.9.9.9.q.p.r.  9.9.9.9.9.0.;.;.;.;.;.;.;.;.;.;.;.;.;.;.;.;.;.;.;.;.;.;.;.;.=.I I t - d.0.9.9.9.9.9.9.9.9.9.9.~ Y ",
"R F 1.9.9.9.9.9.9.9.9.9.e.e.  9.9.9.9.9.0.;.;.;.;.;.;.;.;.;.;.;.;.;.;.;.;.;.;.;.;.;.;.;.;.=.I I r - g.w.9.9.0.q.q.0.9.0.9.9.! P ",
"R F 1.9.                N e.  9.9.9.9.9.0.;.;.;.;.;.;.;.;.;.;.;.;.;.;.;.;.;.;.;.;.;.;.;.;.=.I I e ; k.s.w.w.u.a.s.i.r.r.9.9.! K ",
"R F 1.9.                S r.  9.9.9.9.9.q.;.;.;.;.;.;.;.;.;.;.;.;.;.;.;.;.;.;.;.;.;.;.;.;.=.I I e ; l.k.h.g.j.l.l.k.h.s.0.9.! J ",
"E F 1.9.9.9.0.q.0.0.q.i.h.r.  9.9.9.9.9.q.;.;.;.;.;.;.;.;.;.;.;.;.;.;.;.;.;.;.;.;.;.;.;.;.=.I I w ; l.l.l.l.l.l.l.l.l.h.q.9.Q J ",
"W G 1.9.0.w.y.i.i.t.i.h.l.r.  9.9.9.9.9.q.;.;.;.;.;.;.;.;.;.;.;.;.;.;.;.;.;.;.;.;.;.;.;.;.=.I I q : l.l.l.l.l.l.l.l.l.h.w.9.! J ",
"~ K 2.d.j.d.g.j.k.h.g.k.l.0.  9.9.9.9.9.q.;.;.;.;.;.;.;.;.;.;.;.;.;.;.;.;.;.;.;.;.;.;.;.;.=.I I q : l.l.l.l.l.l.l.l.l.h.w.9.! J ",
"/ P 2.l.l.j.l.l.l.l.l.l.l.0.  9.9.9.9.9.w.;.;.;.;.;.;.;.;.;.;.;.;.;.;.;.;.;.;.;.;.;.;.;.;.=.I I 0 : l.l.l.l.l.l.l.l.l.j.e.9.! J ",
">.U 2.l.l.l.l.l.l.l.l.l.l.0.  9.9.9.9.9.r.;.;.;.;.;.;.;.;.;.;.;.;.;.;.;.;.;.;.;.;.;.;.;.;.=.I I 8 ; l.l.l.l.l.l.l.l.l.j.t.9.! J ",
">.U 2.l.l.l.l.l.l.l.l.l.l.0.  9.9.9.9.9.t.;.;.;.;.;.;.;.;.;.;.;.;.;.;.;.;.;.;.;.;.;.;.;.;.=.I I 8 ; l.l.l.l.l.l.l.l.l.j.y.9.! J ",
">.U 2.r.h.l.l.l.l.l.l.l.l.w.  9.9.9.9.0.t.;.;.;.;.;.;.;.;.;.;.;.;.;.;.;.;.;.;.;.;.;.;.;.;.=.I I 0 > l.l.l.l.l.l.l.l.l.j.y.9.! J ",
"/ I 2.q.d.g.f.f.f.g.h.k.l.q.  9.9.9.9.0.t.;.;.;.;.;.;.;.;.;.;.;.;.;.;.;.;.;.;.;.;.;.;.;.;.=.I I 0 > l.l.l.l.l.l.l.l.l.k.y.9.! J ",
">.U 2.0.                I w.  9.9.9.9.0.t.;.;.;.;.;.;.;.;.;.;.;.;.;.;.;.;.;.;.;.;.;.;.;.;.=.I I 0 > l.l.l.l.l.l.l.l.l.k.u.9.! K ",
"/ I 2.9.                G e.  9.9.9.9.0.y.;.;.;.;.;.;.;.;.;.;.;.;.;.;.;.;.;.;.;.;.;.;.;.;.=.I I 0 > l.l.l.l.l.l.l.l.l.k.u.9.! K ",
"/ I 2.9.9.9.9.9.9.0.0.0.u.y.  9.9.9.9.0.y.;.;.;.;.;.;.;.;.;.;.;.;.;.;.;.;.;.;.;.;.;.;.;.;.=.I I q : l.l.l.l.l.l.l.l.l.k.u.9.! I ",
"^ P 2.9.9.0.q.e.t.y.t.r.i.p.  9.9.9.9.0.y.;.;.;.;.;.;.;.;.;.;.;.;.;.;.;.;.;.;.;.;.;.;.;.;.=.I I q : l.l.l.l.l.l.l.l.l.k.u.9.^ T ",
"~ L 2.9.0.t.a.f.h.j.h.d.g.p.  9.9.9.9.0.t.;.;.;.;.;.;.;.;.;.;.;.;.;.;.;.;.;.;.;.;.;.;.;.;.=.I I q : l.l.l.l.l.l.l.l.l.k.i.9./ E ",
"^ L 2.0.y.f.k.l.l.l.l.l.k.a.  9.9.9.9.0.e.;.;.;.;.;.;.;.;.;.;.;.;.;.;.;.;.;.;.;.;.;.;.;.;.=.I I 0 ; l.l.l.l.l.l.l.l.l.k.p.9./ W ",
"^ P 3.e.f.l.l.l.l.l.l.l.l.i.  9.9.9.9.9.q.;.;.;.;.;.;.;.;.;.;.;.;.;.;.;.;.;.;.;.;.;.;.;.;.=.I I 0 - l.l.l.l.l.l.l.l.l.l.p.9./ W ",
"^ P 3.y.j.l.l.l.l.l.l.l.l.y.  9.9.9.9.9.0.;.;.;.;.;.;.;.;.;.;.;.;.;.;.;.;.;.;.;.;.;.;.;.;.*.I I r : l.l.l.l.l.l.l.l.l.k.p.9./ E ",
"/ I 4.p.l.l.l.l.l.l.l.l.l.y.  9.9.9.9.9.+.;.;.;.;.;.;.;.;.;.;.;.;.;.;.;.;.;.;.;.;.;.;.;.;.I I I r : l.l.l.l.l.l.l.l.l.k.p.9.^ T ",
"/ I 4.s.l.l.l.l.l.l.l.l.l.y.O I 9.9.9.9.:.;.;.;.;.;.;.;.;.;.;.;.;.;.;.;.;.;.;.;.;.;.;.;.=.I I I : 1 l.l.l.l.l.l.l.l.l.k.p.9.^ Y ",
">.I 5.d.l.l.l.l.l.l.l.l.l.i.3 l 9.9.9.<.;.;.;.;.;.;.;.;.;.;.;.;.;.;.;.;.;.;.;.;.;.;.;.;.I I I I X a l.l.l.l.l.l.l.l.l.k.p.9.^ Y ",
"/ I 4.a.l.l.l.l.l.l.l.l.l.y.j - 9.9./ v $.;.;.;.;.;.;.;.;.;.;.;.;.;.;.;.;.;.;.;.;.;.=.I I I I p   J l.l.l.l.l.l.l.l.l.k.p.9.^ T ",
"/ P 3.u.k.l.l.l.l.l.l.l.l.r.9.% i N z z z z -.;.;.;.;.;.;.;.;.;.;.;.;.;.;.;.;.;.;.%.I I I I x X 5 q.l.l.l.l.l.l.l.l.l.k.p.9.^ T ",
"/ L 2.r.g.l.l.l.l.l.l.l.l.i.q.C o @ g z z z z z z z z x x x v n M V Z S F G J K P I I I I k . # E e.l.l.l.l.l.l.l.l.l.k.p.9.^ Y ",
"^ J 1.q.s.l.l.l.l.l.l.l.l.l.t.9.C + . 1 u u z z z z z z z z z z x z x x x c b M S A k d 4   & E 9.h.l.l.l.l.l.l.l.l.l.k.p.9.^ Y ",
"! G 1.0.u.j.l.l.l.l.l.l.l.l.j.9.9./ i $                                                 2 s 6.p.a.l.l.l.l.l.l.l.l.l.l.k.p.9.^ Y "
};
