/* XPM */
static char * table_xpm[] = {
"65 65 304 2",
"  	c #FF00FF",
". 	c #69697A",
"+ 	c #535767",
"@ 	c #4D515E",
"# 	c #4B4F5C",
"$ 	c #515564",
"% 	c #474A54",
"& 	c #3F434A",
"* 	c #383C40",
"= 	c #363A3E",
"- 	c #3B3F45",
"; 	c #43474F",
"> 	c #4A4D59",
", 	c #4F5361",
"' 	c #484C57",
") 	c #41454D",
"! 	c #393D42",
"~ 	c #3D4147",
"{ 	c #444952",
"] 	c #57576A",
"^ 	c #394045",
"/ 	c #415057",
"( 	c #49626E",
"_ 	c #4F7488",
": 	c #4F788D",
"< 	c #4D7486",
"[ 	c #4C7182",
"} 	c #4B6E7D",
"| 	c #496C7A",
"1 	c #476A77",
"2 	c #4B7582",
"3 	c #476670",
"4 	c #3F4E56",
"5 	c #3A4348",
"6 	c #373D41",
"7 	c #3E4C52",
"8 	c #46636A",
"9 	c #4E8B97",
"0 	c #4F8192",
"a 	c #4F7D8F",
"b 	c #54859C",
"c 	c #527E96",
"d 	c #4F7A90",
"e 	c #4E7689",
"f 	c #4B6F7F",
"g 	c #4A6C7B",
"h 	c #4A7481",
"i 	c #4C7E8A",
"j 	c #4B8A96",
"k 	c #4C8E9A",
"l 	c #4B8691",
"m 	c #46656E",
"n 	c #405056",
"o 	c #3C464B",
"p 	c #435860",
"q 	c #4B7E87",
"r 	c #4B8995",
"s 	c #50A4B1",
"t 	c #53A0AF",
"u 	c #56A7B9",
"v 	c #5797AE",
"w 	c #598EAA",
"x 	c #55839F",
"y 	c #50788E",
"z 	c #4D7285",
"A 	c #4B6F80",
"B 	c #4A727F",
"C 	c #4B8D98",
"D 	c #50B0BC",
"E 	c #4EA7B3",
"F 	c #4E98A3",
"G 	c #4C8894",
"H 	c #4A7784",
"I 	c #4B8994",
"J 	c #4A7580",
"K 	c #445A63",
"L 	c #3D494F",
"M 	c #415259",
"N 	c #49717E",
"O 	c #4EA2AE",
"P 	c #4D939F",
"Q 	c #52BAC5",
"R 	c #53B9C7",
"S 	c #54B2C2",
"T 	c #55A4B7",
"U 	c #51899A",
"V 	c #4A707F",
"W 	c #4B7181",
"X 	c #4D929D",
"Y 	c #4F9CA8",
"Z 	c #4EA6B2",
"` 	c #50AEB9",
" .	c #51B1BC",
"..	c #4FAEBA",
"+.	c #52BECA",
"@.	c #52B9C5",
"#.	c #51B0BB",
"$.	c #4FA1AD",
"%.	c #4C8F9B",
"&.	c #4C818D",
"*.	c #486D7A",
"=.	c #46616C",
"-.	c #373C40",
";.	c #486C78",
">.	c #4FA9B4",
",.	c #50ADB9",
"'.	c #53BDC8",
").	c #54BFCA",
"!.	c #50B2BE",
"~.	c #4D95A1",
"{.	c #53B7C3",
"].	c #4C8893",
"^.	c #4A7885",
"/.	c #4A7682",
"(.	c #4C7C89",
"_.	c #486D7B",
":.	c #4B7A87",
"<.	c #4D8D98",
"[.	c #4B8692",
"}.	c #496B78",
"|.	c #57828A",
"1.	c #46585D",
"2.	c #3E4C53",
"3.	c #4F9AA6",
"4.	c #54BFCB",
"5.	c #53BCC8",
"6.	c #51B6C5",
"7.	c #56A7BB",
"8.	c #56A5B9",
"9.	c #52A6B6",
"0.	c #4F91A2",
"a.	c #508899",
"b.	c #508296",
"c.	c #4F7B8F",
"d.	c #4E788C",
"e.	c #486A77",
"f.	c #476A78",
"g.	c #486A78",
"h.	c #4C8490",
"i.	c #4B8C97",
"j.	c #4B8591",
"k.	c #4B7B88",
"l.	c #405058",
"m.	c #415055",
"n.	c #545567",
"o.	c #557B84",
"p.	c #6DBECD",
"q.	c #66A9B6",
"r.	c #4B686E",
"s.	c #476973",
"t.	c #4F9BA7",
"u.	c #51B6C1",
"v.	c #519DAC",
"w.	c #539FAE",
"x.	c #5691A7",
"y.	c #5795AF",
"z.	c #5793AC",
"A.	c #568FA7",
"B.	c #578CA5",
"C.	c #568AA3",
"D.	c #5688A0",
"E.	c #54859D",
"F.	c #538299",
"G.	c #4F7B8E",
"H.	c #4E788A",
"I.	c #4D7586",
"J.	c #4E7789",
"K.	c #4A6E7D",
"L.	c #476672",
"M.	c #3B454A",
"N.	c #629FAA",
"O.	c #507179",
"P.	c #555668",
"Q.	c #2C2F3A",
"R.	c #373A47",
"S.	c #535164",
"T.	c #506D75",
"U.	c #6BB3C2",
"V.	c #4B646C",
"W.	c #3A4145",
"X.	c #435861",
"Y.	c #4B828E",
"Z.	c #4A7683",
"`.	c #4B7382",
" +	c #507B8F",
".+	c #588DA8",
"++	c #588DA7",
"@+	c #588CA6",
"#+	c #588CA7",
"$+	c #598EA9",
"%+	c #568AA4",
"&+	c #53849C",
"*+	c #518096",
"=+	c #4D7485",
"-+	c #496B79",
";+	c #465F69",
">+	c #373B40",
",+	c #49505B",
"'+	c #565568",
")+	c #454456",
"!+	c #2E313D",
"~+	c #353845",
"{+	c #514C61",
"]+	c #4A4F5C",
"^+	c #4A5663",
"/+	c #484C5C",
"(+	c #4A5262",
"_+	c #4E626D",
":+	c #3C4348",
"<+	c #41535B",
"[+	c #486874",
"}+	c #486B78",
"|+	c #5689A3",
"1+	c #53839A",
"2+	c #507E93",
"3+	c #538298",
"4+	c #4D7587",
"5+	c #507D91",
"6+	c #4F798D",
"7+	c #465C67",
"8+	c #3C4449",
"9+	c #4A5966",
"0+	c #4A5764",
"a+	c #484C58",
"b+	c #545366",
"c+	c #3D3E4E",
"d+	c #31333F",
"e+	c #4C4C5D",
"f+	c #4F636F",
"g+	c #3E494F",
"h+	c #466571",
"i+	c #507C91",
"j+	c #4D7484",
"k+	c #4D7384",
"l+	c #42535C",
"m+	c #3F4950",
"n+	c #4A5765",
"o+	c #514F62",
"p+	c #3D404F",
"q+	c #629DAC",
"r+	c #5E959F",
"s+	c #3E4B52",
"t+	c #455E69",
"u+	c #4C7283",
"v+	c #4C7282",
"w+	c #4F798C",
"x+	c #4E7688",
"y+	c #4C7181",
"z+	c #3D484C",
"A+	c #5B8B95",
"B+	c #5A8594",
"C+	c #383B48",
"D+	c #2A2D38",
"E+	c #444858",
"F+	c #494D5E",
"G+	c #4E5363",
"H+	c #49525D",
"I+	c #5B8D97",
"J+	c #49545F",
"K+	c #4D5161",
"L+	c #282B35",
"M+	c #19181E",
"N+	c #202027",
"O+	c #434756",
"P+	c #4D5662",
"Q+	c #577C85",
"R+	c #4A525D",
"S+	c #434857",
"T+	c #1D1C23",
"U+	c #0C0C0D",
"V+	c #1C1920",
"W+	c #101113",
"X+	c #393D48",
"Y+	c #404453",
"Z+	c #333542",
"`+	c #4D4B5E",
" @	c #537079",
".@	c #547981",
"+@	c #33363F",
"@@	c #2F323B",
"#@	c #464A5A",
"$@	c #4A485A",
"%@	c #4C5C66",
"&@	c #444857",
"*@	c #24262C",
"=@	c #27222C",
"-@	c #141518",
";@	c #1C1D22",
">@	c #1B1A20",
",@	c #252730",
"'@	c #575268",
")@	c #23232B",
"!@	c #17171C",
"~@	c #23222B",
"{@	c #0E0E10",
"]@	c #141418",
"^@	c #15161A",
"/@	c #17181D",
"(@	c #1D1E25",
"_@	c #22232B",
":@	c #1B1C22",
"<@	c #191A1F",
"[@	c #1F2128",
"}@	c #272933",
"                                                                                                                                  ",
"                                                                                                                                  ",
"                                                                                                                                  ",
"                                                                                                                                  ",
"                                                                                                                                  ",
"                                                                                                                                  ",
"                                                                                                                                  ",
"                                                                                                                                  ",
"                                                                                                                                  ",
"                                                                                                                                  ",
"                                                                                                                                  ",
"                                                                                                                                  ",
"                                                                                                                                  ",
"                                                                                                                                  ",
"                                                                                                                                  ",
"                                                                                                                                  ",
"                                                                                                                                  ",
"                                                                                                                                  ",
"                                                                                                                                  ",
"                                                                                                                                  ",
"                                                                                                                                  ",
"                                                                                                                                  ",
"                                                                                                                                  ",
"                                                                                                                                  ",
"                                                                                                                                  ",
"                                                                                                                                  ",
"                                                                                                                                  ",
"                                                  . . . . . . . . . . . . . . . .                                                 ",
"                                            . . . + + @ # # # # # # # # # # # $ . . . . .                                         ",
"                                    . . . + + @ % & * = = = = = = = = = = = = = - ; > + . . . .                                   ",
"                              . . + + , ' ) ! = = = = = = = = = = = = = = = = = = = = = ~ { @ + . . . .                           ",
"                      . . + + $ > ; - = = = = = = = = = = = = = = = = = = = = = = = = = = = = * & % , + . . . .                   ",
"              . . ] + + # { ~ = = = = = = = = = = = ^ / ( _ : < [ } | 1 2 3 4 5 = = = = = = = = = = = ! ) ' $ + . . .             ",
"            . + + $ & = = = = = = = = = = = 6 7 8 9 0 a b c d e [ f g 1 h i j k l m n ^ = = = = = = = = = = = - > + + .           ",
"            + + + { = = = = = = = = = o p q r k s t u v w x c y z A g 1 B C D E F G H I J K L 6 = = = = = = = = ! + + + .         ",
"          . + + , = = = = = = = = = M N O P O Q R S T U V W H X Y Z `  .F P ..+.@.#.$.%.&.B *.=.= = = = = = = = = ' + + .         ",
"          + + + ) = = = = = = = = -.;.r >.,.'.).!.P C ~. .{. .P ].^.N /.(.(.2 _.:.<.D ..Z [./.}.5 = = = = = = = = ~ + + + .       ",
"        . + + , |.1.= = = = = = = 2.N 3.>.!.Q 4.+.4.5.6.7.8.9.0.a.b.c.d.V } V e.f.g.e.e.h.i.j.k.l.= = = = = = = m.1.@ + + .       ",
"      . n.+ + # o.p.q.r.= = = = = 5 s.I t.>.#.u.#.s v.w.x.y.z.A.B.C.D.E.F.D.G.H.I.J.K.f.f.g.1 L.M.= = = = = 1.N.p.O.> + + P..     ",
"      . Q.R.S.+ + ' T.U.U.V.W.= = = = ^ X.Y.i.I Z.H `. +D..+.+.+++.+@+#+.+$+%+@+&+*+=+K.-+;+o = = = = >+V.q.U.o.,+$ + '+)+!+.     ",
"      . Q.Q.Q.~+{++ + ]+^+/+(+_+:+= = = = ^ <+[+e.}+}+V c.D..+@+|+%+&+D.@+1+2+3+4+5+6+7+^ = = = = 8+9+/+/+0+a++ + b+c+Q.Q.Q..     ",
"      . Q.Q.Q.Q.Q.d+e+/+/+/+/+/+/+f+g+= = = = 6 2.h+}+}+V D..+%+1+i+6+6+b j+ +k+} l+6 = = = = m+n+/+/+/+/+/+/+o+~+Q.Q.Q.Q.Q..     ",
"        . . Q.Q.Q.Q.p+/+/+/+/+/+/+/+q+r+1.= = = = = s+t+}+u+|+C. +}.v+w+x+y+L.2.= = = = = z+A+B+/+/+/+/+/+/+/+C+Q.Q.Q.Q.. .       ",
"            . . D+Q.E+/+/+/+/+/+F+G+H+o.p.N.r.= = = = = = = = = = = = = = = = = = = = 1.N.p.I+J+K+/+/+/+/+/+/+p+Q.L+. .           ",
"                M+N+/+/+/+/+/+/+O+S.+ + P+T.U.U.r.= = = = = = = = = = = = = = = = r.N.p.Q+R++ + n./+/+/+/+/+/+S+T+U+              ",
"                V+W+X+/+/+/+/+/+Y+Q.Z+`++ + @  @N.p.z+= = = = = = = = = = = = = .@U.T.# + + S.~+Q./+/+/+/+/+/++@U+U+              ",
"                V+U+U+@@/+/+/+#@C+Q.Q.Q.d+$@P.+ , %@{ { { { { { { { { { { { { { { , + + `+d+Q.Q.Q.p+/+/+/+&@*@U+U+U+              ",
"                =@U+U+U+U+-@;@>@,@Q.Q.Q.Q.Q.!+)+'@'@'@'@'@'@'@'@'@'@'@'@'@'@'@'@'@'@)+!+Q.Q.Q.Q.Q.,@)@;@-@U+U+U+U+U+              ",
"                . U+U+U+U+U+U+U+U+!@,@Q.Q.Q.Q.Q.Q.Q.Q.Q.Q.Q.Q.Q.Q.Q.Q.Q.Q.Q.Q.Q.Q.Q.Q.Q.Q.Q.Q.,@!@U+U+U+U+U+U+U+U+U+              ",
"                ~@U+U+U+U+U+U+U+U+U+U+!@,@Q.Q.Q.Q.Q.Q.Q.Q.Q.Q.Q.Q.Q.Q.Q.Q.Q.Q.Q.Q.Q.Q.Q.Q.,@!@U+U+U+U+U+U+U+U+U+U+U+              ",
"              . ,@U+U+U+U+U+U+U+U+U+U+U+U+!@,@Q.Q.Q.Q.Q.Q.Q.Q.Q.Q.Q.Q.Q.Q.Q.Q.Q.Q.Q.Q.,@!@U+U+U+U+U+U+U+U+U+U+U+U+{@.             ",
"              . L+U+U+U+U+U+U+U+U+U+U+U+U+U+U+!@~@~@~@~@~@~@~@~@~@~@~@~@~@~@~@~@~@~@]@U+U+U+U+U+U+U+U+U+U+U+U+U+U+^@.             ",
"              Q.Q.{@U+U+U+U+U+U+U+U+U+U+U+U+U+U+U+U+U+U+U+U+U+U+U+U+U+U+U+U+U+U+U+U+U+U+U+U+U+U+U+U+U+U+U+U+U+U+U+/@Q..           ",
"            . Q.Q.D+(@{@U+U+U+U+U+U+U+U+U+U+U+U+U+U+U+U+U+U+U+U+U+U+U+U+U+U+U+U+U+U+U+U+U+U+U+U+U+U+U+U+U+U+U+W+_@Q.Q..           ",
"              . . Q.Q.D+:@U+U+U+U+U+U+U+U+U+U+U+U+U+U+U+U+U+U+U+U+U+U+U+U+U+U+U+U+U+U+U+U+U+U+U+U+U+U+U+U+W+_@Q.Q.. .             ",
"                  . . Q.Q.L+<@U+U+U+U+U+U+U+U+U+U+U+U+U+U+U+U+U+U+U+U+U+U+U+U+U+U+U+U+U+U+U+U+U+U+U+U+{@[@Q.Q.. .                 ",
"                      . Q.Q.Q.}@^@U+U+U+U+U+U+U+U+U+U+U+U+U+U+U+U+U+U+U+U+U+U+U+U+U+U+U+U+U+U+U+U+{@(@D+Q.Q..                     ",
"                        . . Q.Q.Q.,@^@U+U+U+U+U+U+U+U+U+U+U+U+U+U+U+U+U+U+U+U+U+U+U+U+U+U+U+U+{@(@D+Q.Q.. .                       ",
"                            . . Q.Q.Q._@W+U+U+U+U+U+U+U+U+U+U+U+U+U+U+U+U+U+U+U+U+U+U+U+U+U+:@D+Q.Q.. .                           ",
"                                . Q.Q.Q.Q._@{@U+U+U+U+U+U+U+U+U+U+U+U+U+U+U+U+U+U+U+U+U+<@L+Q.Q.Q..                               ",
"                                    . Q.Q.Q.D+(@{@U+U+U+U+U+U+U+U+U+U+U+U+U+U+U+U+U+<@L+Q.Q.Q.. .                                 ",
"                                      . . Q.Q.Q.D+[@(@(@(@(@(@(@(@(@(@(@(@(@(@(@(@L+Q.Q.Q.. . .                                   ",
"                                          . . Q.Q.Q.Q.Q.Q.Q.Q.Q.Q.Q.Q.Q.Q.Q.Q.Q.Q.Q.Q.Q.. .                                       ",
"                                              . Q.Q.Q.Q.Q.Q.Q.Q.Q.Q.Q.Q.Q.Q.Q.Q.Q.Q.. .                                           ",
"                                                . . . . . . . . . . . . . . . . . .                                               "};
