/* XPM */
static char * C:\Users\pc\Documents\door\wall_e_xpm[] = {
"64 64 59 1",
" 	c #835959",
".	c #7A4141",
"+	c #FF7070",
"@	c #D57171",
"#	c #D13131",
"$	c #FF8585",
"%	c #381B1B",
"&	c #3D2020",
"*	c #412323",
"=	c #462828",
"-	c #492A2A",
";	c #533131",
">	c #4D2C2C",
",	c #563434",
"'	c #4B2A2A",
")	c #533333",
"!	c #452727",
"~	c #543434",
"{	c #402222",
"]	c #FF8484",
"^	c #FF6E6E",
"/	c #D47171",
"(	c #4F2E2E",
"_	c #3C1F1F",
":	c #CF3030",
"<	c #D26E6E",
"[	c #492B2B",
"}	c #391C1C",
"|	c #D03131",
"1	c #D37070",
"2	c #371B1B",
"3	c #583636",
"4	c #371A1A",
"5	c #603D3D",
"6	c #6A4444",
"7	c #361A1A",
"8	c #6D4646",
"9	c #593737",
"0	c #7E5454",
"a	c #412424",
"b	c #774F4F",
"c	c #6D4747",
"d	c #815656",
"e	c #674141",
"f	c #7F5555",
"g	c #472828",
"h	c #785050",
"i	c #613D3D",
"j	c #724A4A",
"k	c #6E4747",
"l	c #633F3F",
"m	c #3E2121",
"n	c #583535",
"o	c #684242",
"p	c #4C2C2C",
"q	c #794040",
"r	c #825757",
"s	c #773F3F",
"t	c #784040",
"                                                                ",
" .............................................................. ",
" .+@++++@++++@+@+++++++@++++@++++@++++@++++@+@+++++++@++++@+++. ",
" .@+@+#@+@+#@+@+@+#@+#@+@+#@+@+#@+@+#@+@+#@+@+@+#@+#@+@+#@+@+#. ",
" .#@++#@+@+$@+@+#@+@+#@+@+#@++#+#@+#+#@+#+#@#@+#++#+#@+#+#@+#+. ",
" .+@+#+#@+#+#@+#+#@+$+$@+#+#@++++@++++@++++@+@+++++++@++++@+++. ",
" .+#@+@+$@+@+#@+@+#@+@+#@+$+@@+#@+@+#@+#@+@+$@+@+#@+@+#@+@+#@+. ",
" .#+#@+#+#@+#+#@+$+$@+#+#@#@+$@+@+#@+@+#@+@+#@++#+#@+$+$@+#+#@. ",
" .+$+@++#+@++++@++#+@++$+@+#@+#@+#+#@+$+$@+#+#@++++@++#+@++$+@. ",
" %+#@+@+$@+@+#@+@+#@+@+#@+$+@#+@++++@++#+@++$+@@+#@+@+#@+@+#@+& ",
" *#+#@+#+#@+#+#@+$+$@+#+#@#@+$@+@+#@+@+#@+@+#@++#+#@+$+$@+#+#@= ",
" -+$+@++#+@++++@++#+@++$+@+#@+#@+#+#@+$+$@+#+#@++++@++#+@++$+@; ",
" >+#@+@+$@+@+#@+@+#@+@+#@+$+@#+@++++@++#+@++$+@@+#@+@+#@+@+#@+, ",
" '#+#@+#+#@+#+#@+$+$@+#+#@#@+$@+@+#@+@+#@+@+#@++#+#@+$+$@+#+#@) ",
" !+$+@++#+@++++@++#+@++$+@+#@+#@+#+#@+$+$@+#+#@++++@++#+@++$+@~ ",
" {+#@+@+$@+@+#@+@+#@+@+#@+]^/#+@++++@++#+@++$+@@+#@+@+#@+@+#@+( ",
" _+#@+@+$@+@+#@+@+#@+@+#@+:<^$@+@+#@+@+#@+@+#@++#+#@+$+$/+#+#@[ ",
" }#+#@+#+#@+#+#@+$+$@+#+#@^|1+#@+#+#@+$+$/+#+#@++++@++|+/+^]^/( ",
" 2+$+@++#+@++++@++#+@++$+@]+/#+@++++@++|+/+^]^/@+#/+/+|/^/^:<^3 ",
" 4+#@+@+$@+@+#@+@+#@+@+#@+|@+$@+@+#/+/+|/^/^:<^+#+|@+]+]/+|^|15 ",
" 2#+#@+#+#@+#+#@+$+$@+#+#@+#/+#@+#+|@+]+]/+|^|1++++/++#+/++]+/6 ",
" 7+$+@++#+@++++@++#+@++$+@$+@#+@++++/++#+/++]+/@+#@+@+#@+@+|@+8 ",
" 7+#@+@+$@+@+#@+@+#@+@+#@+$+@]/+@+#@+@+#@+@+|@++#+#@+$+$@+#+#/90",
" 7#+#@+#+#@+#+#@+$+$@+#+#@#@++#@+#+#@+$+$@+#+#/++++@++#+@++$+@ab",
" 7+$+@++#+@++++@++#+@++$+@+#@#+@++++@++#+@++$+@++++@++#+@++$+@cd",
" 7+#@+@+$@+@+#@+@+#@+@+#@+$+@#+@++++@++#+@++$+@@+#@+@+|@+@+#@+ef",
" 7#+#@+#+#@+#+#@+$+$/+#+#@#@+$@+@+#@+@+|@+@+#@+@+#@+@+#@+@+#@+gh",
" 7+$+@++#+@++++@++|+/+^]^/+#@+#@+#+#@+$+$@+#+#@+#+#@+$+$@+#+#@id",
" 7+#@+@+$@+@+#/+/+|/^/^:<^@++#+@++++@++#+@++$+@++++@++#+@++$+@j ",
" 7#+#/+#+#@+#+|@+]+]/+|^|1+@+$@+@+#/+@+#@+@+#@+@+#@+@+#@+@+#@+k ",
" }+$+@++#+@++++/++#+/++]+/@+#+#@+#+#@+$+$@+#+#@+#+#@+$+$@+#+#@l ",
" m+#@+@+]/+@+#@+@+#@+@+|@+@++#+@++++@++#+@++$+@++++@++#+@++$+@n ",
" &#+#@+#+#@+#+#@+$+$@+#+#/@++#+@++++@++#+@++$+@@+#@+@+#@+@+#@+9 ",
" _+$+@++#+@++++@++#+@+#@+@+$@+@+#+#@+@+$@+@+#@+@+#@+@+#@++#+#@l ",
" *+$+@++#+@++++@++#+@#+#@+#+#@+#+#+#@+#+#@+#+#@+$+$@+#+#@++$+@o ",
" p+#@+@+$@+@+#@+@+|@++$+@++#+@++++$+@++#+@++++@++#+@++$+@@+#@+{ ",
" p#+#@+#+#@+#+#@+$+$@+#@+@+$@+@+#+#@+@+#@+@+$@+@+#@+@+#@+@+#@+7 ",
" .+$+@++#+@++++@++#+@#+#@+#+#@+#+#+#@+#+#@+#+#@+#+#@+$+$@+#+#@. ",
" .+#@+@+$@+@+#/+@+#@++$+@++#+@++++$+@++$+@++#+@++++@++#+@++$+@. ",
" .#+#@+#+#@+#+#@+$+$@+#@+@+$@+@+#+#@+@+#@+@+$@+@+#@+@+#@+@+#@+. ",
" .++$+@++#+@++++@++#+#+#@+#+#@+#+#+#@+#+#@+#+#@+#+#@+$+$@+#+#@. ",
" .@+#@+@+$@+@+#@+@+#@+$+@++#+@++++$+@++$+@++#+@++++@++#+@++$+@. ",
" .+#+#@+#+#@+#+#@+$+$+#@+@+$@+@+#+#@+@+#@+@+$@+@+#@+@+#@+@+#@+. ",
" .++$+@++#+@++++@++#+#+#@+#+#@+#+#+#@+#+#@+#+#@+#+#@+$+$@+#+#@. ",
" .@+#@+@+$@+@+#@+@+#@+$+@++#+@++++$+@++$+@++#+@++++@++#+@++$+@. ",
" .+#+#@+#+#@+#+#@+$+$+#@+@+$@+@+#+#@+@+#@+@+$@+@+#@+@+#@+@+#@+. ",
" .++$+@++#+@++++@++#+#+#/+#+#@+#+#+#/+#+#@+#+#@+#+#@+$+$/+#+#@. ",
" .@+#@+@+$@+@+#@+@+#@+$+@++#+@++++$+@++$+@++#+@++++@++|+/+^]^/. ",
" .+#+#@+#+#@+#+#@+$+$+#@+@+]/+@+#+#@+@+#@+@+$@+@+#/+/+|/^/^:<^. ",
" .++$+@++#+@++++@++|+#+#@+#+#@+#+#+#@+#+#/+#+#@+#+|@+]+]/+|^|1. ",
" .@+#@+@+$@+@+#/+/+|/+$+@++#+@++++$+@++$+@++#+@++++/++#+/++]+/q ",
" .+#+#/+#+#@+#+|@+]+]+$+@++#+@++++$+@++#@+@+]/+@+#@+@+#@+@+|@+qr",
" .++$+@++#+@++++/++#++#@+@+$@+@+#+#@+@#+#@+#+#@+#+#@+$+$@+#+#/s ",
" .@+#@+@+]/+@+#@+@+#@#+#@+#+#@+#+#+#@++$+@++#+@++++@++#+@++$+@t ",
" .+#+#@+#+#@+#+#@+$+$+$+@++#+@++++$+@++$+@++#+@++++@++#+@++$+@. ",
" .++$+@++#+@++++@++#++#@+@+$@+@+#+#@+@+#@+@+$@+@+#@+@+|@+@+#@+. ",
" .++$+@++#+@++++@++#+#+#@+#+#@+#+#+#@+#+#@+#+#@+#+#@+$+$@+#+#@. ",
" .@+#@+@+$@+@+#@+@+|@+@+#@+#+#@+#+#/+@+$+@++#+@++++@++#+@++$+@. ",
" .+#+#@+#+#@+#+#@+$+$@+#+#@+#+@++++@+++#@+@+$@+@+#/+@+#@+@+#@+. ",
" .++$+@++#+@++++@++#+@++$+@+$@+@+#@+@+#+#@+#+#@+#+#@+$+$@+#+#@. ",
" .@+#@+@+$@+@+#/+@+#@+@+#@+#+#@+#+#@+@+#@+@+$@+@+#@+@+#@+@+#@+. ",
" .+#+#@+#+#@+#+#@+$+$@+#+#@+#+@++++@++#+#@+#+#@+#+#@+$+$@+#+#@. ",
"  ............................................................  ",
"                                                                "};
