/* XPM */
static char * C:\Users\pc\Documents\door\wall_xpm[] = {
"64 64 333 2",
"  	c #2B2929",
". 	c #2C2B2C",
"+ 	c #2A2929",
"@ 	c #303030",
"# 	c #2C2C2C",
"$ 	c #2A2A29",
"% 	c #2A2828",
"& 	c #2D2B2C",
"* 	c #2D2C2C",
"= 	c #2B2B2A",
"- 	c #2B2A2A",
"; 	c #272525",
"> 	c #2C2C2D",
", 	c #272827",
"' 	c #282726",
") 	c #272625",
"! 	c #282727",
"~ 	c #252424",
"{ 	c #252324",
"] 	c #272727",
"^ 	c #252425",
"/ 	c #272425",
"( 	c #292728",
"_ 	c #282827",
": 	c #272726",
"< 	c #242425",
"[ 	c #242323",
"} 	c #242426",
"| 	c #1F1E20",
"1 	c #22201F",
"2 	c #262324",
"3 	c #2A292B",
"4 	c #282728",
"5 	c #272626",
"6 	c #242324",
"7 	c #262526",
"8 	c #232424",
"9 	c #232324",
"0 	c #232223",
"a 	c #222123",
"b 	c #262325",
"c 	c #252526",
"d 	c #222121",
"e 	c #222122",
"f 	c #2C2B2B",
"g 	c #2C2D2E",
"h 	c #2C2A2A",
"i 	c #282627",
"j 	c #272627",
"k 	c #252323",
"l 	c #242424",
"m 	c #242524",
"n 	c #1F2020",
"o 	c #242123",
"p 	c #282729",
"q 	c #282928",
"r 	c #262626",
"s 	c #242223",
"t 	c #272828",
"u 	c #232224",
"v 	c #232122",
"w 	c #2C2B2D",
"x 	c #2F2E2F",
"y 	c #2D2D2E",
"z 	c #282626",
"A 	c #2A2728",
"B 	c #292726",
"C 	c #2E2D2F",
"D 	c #232121",
"E 	c #272728",
"F 	c #1F1F1E",
"G 	c #232425",
"H 	c #282829",
"I 	c #262627",
"J 	c #222223",
"K 	c #2E2C2E",
"L 	c #323132",
"M 	c #282929",
"N 	c #2A2928",
"O 	c #232222",
"P 	c #212022",
"Q 	c #292828",
"R 	c #292929",
"S 	c #262525",
"T 	c #252626",
"U 	c #222222",
"V 	c #242224",
"W 	c #221F21",
"X 	c #2D2F2F",
"Y 	c #2B2A29",
"Z 	c #212222",
"` 	c #1D1F1E",
" .	c #1B1B1A",
"..	c #292928",
"+.	c #2B2A2B",
"@.	c #292628",
"#.	c #232323",
"$.	c #2B2C2C",
"%.	c #292829",
"&.	c #1B1B1B",
"*.	c #181718",
"=.	c #191718",
"-.	c #1E1D1E",
";.	c #282527",
">.	c #2B2B2C",
",.	c #2A2827",
"'.	c #272928",
").	c #232322",
"!.	c #1B1B1C",
"~.	c #262726",
"{.	c #282625",
"].	c #282828",
"^.	c #1F1D1E",
"/.	c #232123",
"(.	c #2F2E2E",
"_.	c #282628",
":.	c #1E1E1C",
"<.	c #222020",
"[.	c #272526",
"}.	c #292627",
"|.	c #222323",
"1.	c #302E2F",
"2.	c #2F2E2D",
"3.	c #2A2829",
"4.	c #292A2A",
"5.	c #252525",
"6.	c #262727",
"7.	c #20211F",
"8.	c #1D1B17",
"9.	c #212020",
"0.	c #222322",
"a.	c #2D2B2D",
"b.	c #2C2A29",
"c.	c #202020",
"d.	c #161513",
"e.	c #1E1A19",
"f.	c #222221",
"g.	c #201F21",
"h.	c #303130",
"i.	c #2E2E2E",
"j.	c #2C2C2B",
"k.	c #2F2D2E",
"l.	c #242222",
"m.	c #191C1A",
"n.	c #110F0E",
"o.	c #1A1416",
"p.	c #242225",
"q.	c #2E2D2D",
"r.	c #2E2D2C",
"s.	c #272624",
"t.	c #252224",
"u.	c #161816",
"v.	c #0E0D0B",
"w.	c #181316",
"x.	c #262625",
"y.	c #323232",
"z.	c #2F2F2F",
"A.	c #2D2B2B",
"B.	c #2E2D2E",
"C.	c #2D2D2C",
"D.	c #2A2A2A",
"E.	c #252325",
"F.	c #232325",
"G.	c #1A1B1B",
"H.	c #121211",
"I.	c #181616",
"J.	c #252426",
"K.	c #292827",
"L.	c #1B1919",
"M.	c #1E1E1D",
"N.	c #2E2E2D",
"O.	c #1E1E1E",
"P.	c #201E1F",
"Q.	c #262426",
"R.	c #343334",
"S.	c #252322",
"T.	c #1D1D1D",
"U.	c #2E2F2F",
"V.	c #222021",
"W.	c #2E2E2F",
"X.	c #2C2B2A",
"Y.	c #2E2C2C",
"Z.	c #323031",
"`.	c #292727",
" +	c #2B292B",
".+	c #2D2C2B",
"++	c #2D2B2A",
"@+	c #2E2C2B",
"#+	c #323133",
"$+	c #1E1C1B",
"%+	c #1E1F1F",
"&+	c #2A2A28",
"*+	c #2C292A",
"=+	c #313030",
"-+	c #1A1817",
";+	c #1C1E1B",
">+	c #262425",
",+	c #242726",
"'+	c #1B1D1A",
")+	c #262424",
"!+	c #252624",
"~+	c #1D1D1C",
"{+	c #363536",
"]+	c #2F2D2D",
"^+	c #333334",
"/+	c #2F2F30",
"(+	c #232423",
"_+	c #1E1D1C",
":+	c #242122",
"<+	c #333333",
"[+	c #242322",
"}+	c #212121",
"|+	c #1A1A18",
"1+	c #1E1B1B",
"2+	c #292527",
"3+	c #252625",
"4+	c #2D2E2D",
"5+	c #222321",
"6+	c #1E1F1E",
"7+	c #1D1B1A",
"8+	c #292626",
"9+	c #1A1B1A",
"0+	c #1B1918",
"a+	c #232020",
"b+	c #191B19",
"c+	c #252223",
"d+	c #2F2F2E",
"e+	c #31302F",
"f+	c #2B2828",
"g+	c #2B2928",
"h+	c #1D201F",
"i+	c #232022",
"j+	c #1D211E",
"k+	c #343234",
"l+	c #242121",
"m+	c #1D1B1C",
"n+	c #1F1E1D",
"o+	c #323131",
"p+	c #2C2929",
"q+	c #252423",
"r+	c #1F1D1D",
"s+	c #2E2F2E",
"t+	c #2B2A28",
"u+	c #333232",
"v+	c #272725",
"w+	c #1D1D1A",
"x+	c #333132",
"y+	c #2C2C2A",
"z+	c #232525",
"A+	c #302F2F",
"B+	c #2C2928",
"C+	c #2F2D2F",
"D+	c #2D2E2C",
"E+	c #2F2D2C",
"F+	c #2A292A",
"G+	c #262523",
"H+	c #2F2E2C",
"I+	c #2A2927",
"J+	c #302D2D",
"K+	c #2B2C2B",
"L+	c #232524",
"M+	c #232221",
"N+	c #282525",
"O+	c #333233",
"P+	c #2F2C2D",
"Q+	c #2D2D2D",
"R+	c #2D2D2B",
"S+	c #353534",
"T+	c #2D292A",
"U+	c #343434",
"V+	c #30302E",
"W+	c #2E2B2C",
"X+	c #2B2B2B",
"Y+	c #302D2E",
"Z+	c #2B2927",
"`+	c #302D2F",
" @	c #2D2F2E",
".@	c #292927",
"+@	c #2C2A2B",
"@@	c #353334",
"#@	c #373736",
"$@	c #302F2E",
"%@	c #292B29",
"&@	c #302E30",
"*@	c #343333",
"=@	c #2E2D2B",
"-@	c #2E2E2C",
";@	c #2F2C2C",
">@	c #2F302F",
",@	c #2E2C2D",
"'@	c #31312F",
")@	c #302C2E",
"!@	c #282A29",
"~@	c #232220",
"{@	c #2B2C2D",
"]@	c #292A29",
"^@	c #2A2725",
"/@	c #21201F",
"(@	c #353535",
"_@	c #201F1E",
":@	c #282425",
"<@	c #353435",
"[@	c #312F30",
"}@	c #2D2C2A",
"|@	c #202121",
"1@	c #211F1F",
"2@	c #2C282A",
"3@	c #282927",
"4@	c #333433",
"5@	c #353434",
"6@	c #2F2C2B",
"7@	c #282725",
"8@	c #242423",
"9@	c #323030",
"0@	c #343233",
"a@	c #302E2D",
"b@	c #313132",
"c@	c #2B2827",
"d@	c #313133",
"e@	c #292725",
"f@	c #2B2A2C",
"g@	c #2C2B28",
"h@	c #2A2B2B",
"i@	c #262524",
"j@	c #262323",
"k@	c #2B2829",
"l@	c #343435",
"m@	c #2C2D2C",
"n@	c #302F30",
"o@	c #312F2F",
"p@	c #323233",
"q@	c #2D2E2E",
"r@	c #2A2B2A",
"  . +   @ @ # $ + % + + + & * = - $ ; & > , , ' $ ) ; ! ~ { + , ] ^ / ( _ : ^ ^ < [ } | 1 2 3 ~ 4 ^ ^ 5 6 7 8 7 9 0 a b c d e e ",
"! + +   . = + - = f - + & g , + . + , ! + ; . h = ~ ! ! ; i ' ! : j < k - _ : l ^ ; m n | o p 5 ; - q ! ! r s t 6 u 0 7 0 v 9 d ",
"- w w * x y $ $ z x $ + w g m / A   > B . + % C $ ' ! ! ~ ~ { ^ D 5 6 5 ~ { E 6 / - m n | F u G o ; 4 ( H 6 b I J J e u 0 J d d ",
"$ & # - K L _ A + M 6 z . # $ % # N + ! , % w $ + - $ + _ ) 5 < O ; 4 ' ; ! 5 ^ ^ ^ ^ ^ 6 P | o 6 l ^ { Q R S j T U V s Q 8 d W ",
"% x f -   X - + + + + + = = Y - : ^ 5 : 5 % - , + , + ] { { 5 ) + 5 5 ; ! ! : 5 ! : ~ ^ 6 Z e | `  .| o 5 ..Q +.$ 5 t [ @.r #.0 ",
". $.5 % x f - $ ! ! 4 m i ! + , ! ! 5 % - - w $ ] ^ A = m ^ ~ z + 5 %._ ! z Q m ^ 4 : ^ 5 G | &.*.=.-.| W ;.+ ..T S 8 6 u 6 6 e ",
">.# & * * # + - $ ! ! - - - + : ~ ; i - + + + , ! + _ , ~ { / % - + f ,.* = '.).! H < d / } | P | !.F F o ~.~.8 J b j t #.V u d ",
"= - x y * @ y w # % w - w # , : {.- ' ! + M ! ' ! ] : : ; - $ , ! + 5 5 ^ / q ) ! %.].; - , m l n ^.e d e F /.7 7 7 r [ 7 7 O 7 ",
"K w -   K x - & * & w % (.x = N f $ _ 5 _.A + N + ] s + N + Y = m 4 m z - , , ].! : m m < d ^ Z d W P n e :.<.[.S }.Q r 8 |.9 9 ",
"K 1.2.x * w * w w K L = - ! ' + ) ) [ 2   f . - + m ^ j ) ! 5 i z , ^ ^ 5 : 5 ! 3.4.m 5.l u l [ m d s { 6.7.8.W ;.j 8 v I O 0 9.",
"f w   1.L @ @ f f w $., m 4 k h $ 0.O / a.= b.y , < s % + ' i + ' + ~.~ ~ < |.#.6 5 5 T 6 < [ 6 Z d d e e c.d.e.;.5 I f.u O c g.",
"L h.(.i.j.* k.i.+ % - $ - $ ^ ; ) ~ l.k i A   y N $ ~ A * = : ) ) ) 5 ; ; z Q m 6 { - : 5 ^ l 6 d o u Z n m.n.o.p.d a 0 v 0 d V ",
"k.(.L i.f k.q.r.* Q %.  y = 5 ; z + s.; ] [ s ! _ _ A + Y # _ ' m O t.( %.].! 4 : ~ ^ ^ t Z d ^ d u Z Z n u.v.w.V u #.V 7 O o x.",
"x r.y.h.z.1.L z.* A.B.C.D.- w f $ , ~ { 5 l [ l.{ ) A , ) % - $ m ~ { j ^ / q m 6 s 6 d ^ ~ E.< d F.| d n G.H.I.W J.6 b ..#.d 6 ",
"x * B.q.x * j.D.f f x j._ K.  = m s ; z N _ ! ) / ; - - - $ ' + $ 5 + m ^ ~ / 5 [ m d d / Q 5 ^ ^ E.^ [ 9 c.&.L.W @.r 8 e e e M.",
"* @ z.N.x i.C.+ h h A.C.j...h q.- - ' z _ ) ; N N ' + m ~ ^ { + 5 ! m ^ ~ s s m O ^ < ~ { Q m 5 m e d d d a e O.P.Q.S j T e e 9.",
"* 1.R.z.* * R z K C.* C.D.z A.B.j.- % * * $ : S.+ , ) + + ) { ! ) ; j 5 ~ { ^ l 6 0 o [ ; : 6 [ 5 m ^ ^ 7 < c.T.o @.~.Q Q Q T 9.",
"x L z.U...h * $ * j.* * f + h @ z.j.- h y , ' z & # ' + _ ! - ' N + : 5 ! ) ].[ s { ^ { %._ r o ! m ^ ; Q 6.d V.t.Q ~.r S 7 U g.",
"i.q.W.C.j.f h q.j.X.q.Y.Z.L z.N.q.x N.* * & $ !   h # , ^ / z - ' ] l.! l O ; ! : ; %.' %.].m { ].< ~ ( `.R Z e t. +..S Q r 8 v ",
"i.x j..+@ y Q * j.....N A.(.C.++@ z.1.@ C.X.- Y f . = $ 5 ! ! A m m { , ~ s { q m l ^ ; Q m [ 5 E [ / 5 S 7 8 d M.V.[.5 ~.#.J 9.",
"x x j.@+#+y R K.+ R K.+ K.f j.++i.f q.C..+& (.y w - . D.5 + + - N % + _ ' j v ( : 6 [ ^ ^ ; Q : ) / - : S 8 e n $+V [.5 r 7 |.%+",
"y.h.j.f C.f A.* .+* X.f K.K.% * X.++z.&+*+=+y * x # = $ z & z.$ % x $ ~ ~ ^ ! ( >.: ~ l 6 { - Q ! : m ^ ^ 6 #.` -+P.V [ 7 8 9 ;+",
"y.z.C.* * f A.C.j.f q.C.D.% h * A.A.q.@+A.j.* x # = - - - f $ _ ' z + ' 4 ! ].' : ! 4 ~ ! ) z Q m 5 5 5 5 >++ ,+'+P.6 #.6 [ u #.",
"L h.j.`.A.@ q.k.k.1.x C.K.3.h C.% A.j.)+X.$ + h & w = - $ 5 ; 4 ~ ; - - $ l ; ].|.9 0 v 5 5 [ 5 !+d o 4 l 0 6 9 ~+W [.S r [ Q x.",
"Z.{+y.z.]+^+z.(.=+L h./+$ + + X.h * R K.z A..+h (.@ # - f ! - : m [ { + N - D.(+O ^ ^ ! m d o /   _ ^ < 6 s 5 Z _+:+; 5 r O 8 9.",
"R.<+y.(.i.C..+=+L (.(.(..+* D.,.q.q.q.q.X.q.C.f ..N   K @ (.y $ + + _ [+/ - $ ) { ; ! : : [ d d { ) Q ' 5 d 6 }+|+1+2+$ 3+O 0 O ",
"R.R.N.2.@ q.A.(.q.x h z.4+C.X.* h h $ D.X.q.$ ' ' % - Y - +   = = _ m O ; ! N z %.Q ].~ / ^ 5+d { z = {.- x.< 6+|+7+a e /.S 8 O ",
"h.z.A.=+L 4+X.Y.=+@ (.i.C.@ N.# K.`.+ Q % ++h N f $ N _ z h w = Y - : 8+= ! z + _ Q f ..' 5 Z F o 6 [ l.! 9 6+9+0+P.0 d V.S #.a+",
"@ =+Z.h.C.q.q.Y.y.2.W.f h A.W.+ % q.C.,.h f N ..N * j.' ;   * = $ : k B + : ) 4 ].^ z f K.Q : [ s t 6 ~ ~ 6 Z b+7+c+~.9 <.>+j S ",
"d+e+@ R.j.* j..+A.(.C.* k.(.* h A.r.(.j.K.h * K.f+A.* $ _ ' % $ m ~ 5 ' Y ' - _ m z Q ; 5 ) m l.A = m d d e ` -+W j #.U d <.7 S ",
"z.z.e+^+N.X.f h A.L r.(.r.(.C.`.k.2.W.g+Y.q.r.B.q.X.B.j.Q %   >.5 ^ 6 [ s { % %   f ].'   # m { z 3.Q ) `.t h+d.i+5 8 #.d d a 9.",
"z.]+#+z.r.* $ ,.A.L h.e+]+z.* Y.z.* z.++(.* A.C.X.f X.f h = B # = _ s ! ~ ; - g+* ..Q   h g 8 ^ 5 l.s /   4.j+-+V.>+j [ 0 0 7 O ",
"R.<+h.d+]+@ @ C..+]+k+R.h.r.A.q.C.X.B.j..+A.q.X.* j.X.f ! % - N = _ 5 m ^ ~ { ; ] {.- K.Q t d s { { l+o ^ Z '+m+d /.S 8 6 6 [ c+",
"k.@ N.* A.(.r.q.j.N * j.X.A.Y.(.* h j.Q _ `.* A.q.N g+(.r.A.y N + : #.O { A z A + {.q s.3.- _ m [ ; ) {.! : U n+/.V u #.D j 8 9.",
"L o+@ N.C..+A.C.p+=+L h.2.1.N.r.* f * ..! + B A.#+C.X.h B.B.j._ ' , [ v 8+f = N N + , 6 5 ) 5 ~ 5 ].l q+{ Q 6.n r+b S s b 3.3+a+",
"@ y.r.r.x .+q.r.A.Y.L i.% x q.Y.(.@ e+z.X.% % h * N N *+* h (.* f _ ~ 5 ; A f . = N Y : 6 / 5 ~ 5 l d l+z _ 9 6+^.V.6 S [.Q 8 [ ",
"=+R.s+X.h * r.1.(.N.i.C.A.(.r.(..+j.t+q..+A.* h (..+Y.1.C.A./+A./+$ : k + ! , k + _ : ) { ^ m l.4 Z d k ! Z F d d 0 [ 6 5 ~.5 6 ",
"u+y.d+N.C.j.g+x .+* f * C.X.h (.j..+j.K.h (.(.X.* f q.C.f B.i.q.# = _ ' - N + , m m l.! : ~ ! ! Z 5+o A v+Z w+W d V.v s >+~.[+; ",
"x+^+4+N % X.X.X.h z.$ h @ q.f X.X.* y+' `.A.@ f $ % q.q.@ r.r./+X.Y   A.(.= ' - _ ! ' ' ].~ / - _ ) ; K.(+7.W d 0 :+[.x.S 8 d i+",
"L h.j.B (..+A.2.C..+f X.q..+* * h q.r..+j.++]+(.f A.(.(.@ z.* q.C.Y K h., ' + _ ) % + K.- - ! q (+{ 3.3+F 1 b S #.d [.8 d 0 D s ",
"(.d+(.r.i.$ ,.A.Y.r.W.C..+A.X.X.q..+.+.+* j.X.* % Y.2.N..+* X.h .+* f (.y - + ' {.& = ] ' - K.`.f _ m z+F o ;   $ x.S #.O O l.; ",
"2.(.C.Q f X.* A.Y.A+r.A+q.* X.f % h .+j.X.A.r.X.B+q.g+f .+j.N * j.j.Y h * Y   Y ' z % + ' Q K.`.* q _ m 7.s / + x.O s S #.d V.s ",
"i.r.Y.C+h q.X.h * X.A.q.r.q.X.* X.A.r.C..+A..+f B+(.j.X.++f N + R )+  Y w X.  * Y -   @ # . Y %.K.K.Q m F W o Q 8 [ >+r O 8 d >+",
"#+j.A+=+++A.L D+,.E+L N.r..+++C+.+(.C.y+.+X.X.X.p+q.% % q.f % % F+K.Q ' % h X.X.h y $ - . f A.y.= - Q m n W / + 0.D 5 x.G+Q 8 [ ",
"@ f Y.H+q.++h q.% A.W.N B+A+A+@ ++L 4+I+h q.Y.J+=+N.q.i.$ N h A.j.N `.+ _ '   h * K+% A.h.= f >.'   $.L+F d / - 3+M+S [ N+- ) 8 ",
"A+A+O+o+A+N.X.P+C+X.Y.A+N.r..+Q+g+Z.O+L e+R+C.++N.&+% q.h f N % $ `.* = $ m k & j.j.$ Y   = _ ' A * , 5+F / ; + + ..) S >+5 8 9.",
"S+y.o+Z.R.=+N.r.q.C.r.L N.X.N f X.X.Y.L d+.+2.R+y+X.h (.r.* N T+1.@ @ z.= _ z f j.=   (.y * * w X.f '.5+d l.3...K.+ : x.S S r O ",
"U+<+O+x+U+V+X.f `.* N * r.A.Y.A+j.g+Z.O+O+N.2.q.R+$ ,.h (.(.2.H+@ N.C.X.  - Y - - Y W+h..+K (.j.= v+l d o { ! K.+.X+~.5 5 [ [ l.",
"R.<+A+R.<+C.N h Y.L C.f q.C.h L @ r.q.Y.y..+Y+(.C.&+Z+`+C.% % h * x 1.O+ @N   h y Y h * f z.X .@Q ~ / 4 ! ].k `.- ..Q `.$ ) 5 G+",
"O+O+y.y.@ C.K.K.h L r.A.O+x+O+u+y..+.+Y.A+E+Z.O+h.d+h L h.C.,.Y.(.(.2.@ C.++@ C.= ! A f h .+X : ; { ; `.%._ ; - ..+@f - $ x.5 ) ",
"@@#@<+y.$@O+C.N p+h A+W.t+A+Z.O+$@A+A+@+L =+r.]+e+R.h.@ =+Z.=+O+h.(.2.(.r.z.= N   - ) g+1.h.%@).O @.A &@Y 3.- K.Q K.K.- ..0.D `.",
"*@<+<+O+x+O+N.=@A+A+N.-@++;@R.>@$ N A.,@A+E+x+'@e+@ N.2.]+Z.y.j.++1.Y.(.2.y Y )@y.K+' A * !@~@b `.> K.f = z Q f+k.{@K.$ ) S S `.",
"R.W.A.O+Q+* q.=@r.A+C.X.f B ;@y.]@^@Z.O+O+=+V+y.N.f `.q.C.f A.z.X.B.$ ,.* ' % 1.X $ ' z $ m /@/ K y _ : ~ / Q ' `.+ ~.) ; }.`.% ",
"(@y.L O+N.g+A+r.r.L C.++h Y.L y.=@E+W.X.j..+r.e+x+h.j.X.A.k.Y.z.@+L s+$ B   A.2.z._ z $ m O _@:@# X.- M k `.Q ' }.f $ + N % - - ",
"<@y.q.[@O+$@O+L Y.x+*@V+E+$@-@}@* =@r.j.N ++J+O+o+L h.r.i.&+`.+ g+q.C.* A.h A.2.z.X.f , 0.|@1@2@w = = q `.- 3@' }.h $ ) + ~.x.) ",
"4@<+u+5@y.N.Y.R.R.o+L V+.+.+A.C..@% N )+,@6@x+R.h.2.1.@ 4+f f X.A.C..+.+A.@ C.y - & X m D 5 k   j.K.q ! Q .._ ' +.~.S `...) r l.",
"y.o+O+L Z.y..+A+y.=+=+r.Y.j.$ N * y+$ 7@h Z.>@.+(.@+]+@ N.r.Y.=+@ .+A.(.@+q.h L z.2.g 8@/ - Y Y # ....K._ k K.Q 3+O b % N + N $ ",
"(@9@0@<+y.W.g+Y.A+W.N )+% f N N + N B ++Y.A+C.g+1.#+d+d+a@d+}@=+k+y.N.Y.k.r.@ h.y X.L , k & = ' A f ..K.`.- ' 4 5 `.- ..Q % - - ",
"U+u+r.Z.R.$@Z.O+O+b@$ 7@,.;@Q+Q K.B `.K.c@$@.+X.h x 2.(.E+z.++]+L d+X.A.d@d+z.f A.K y $ _ z . : ) ; - K.`.# Y f - Y - $ K.`.N + ",
"<@u+L $@O+O+$@Z.O+y.C.t+e@J+y.C.N ,.+ )+p+Z.N.j.++Z.i.X.A.j.X.B.A.h.y+B.C.r.j.- A.y # $ N f ..: {.  q 8@2 {.z `.- q )+`.+.  f@$ ",
"<+x+<@<+g@* g@A+5@o+L C.7@h y.* f N N + % A+.+X.% q.r..+++q.Y.@ z.h@i@+ ++=+h.]+k+<+X , [ [ s ~ j@k@q ) { ) Q _ K.+ N f $ ..K.! ",
"<+Z.x+l@R+A.Y.@+R.o+=+++r.E+[@r.A+j.,.% % W.g+A.++k.r.z.j.j.X.X.q.j...)+f+i.j.- b.(.@ z._ ^ O O 2   , _ v+) 5 {.% - Y $ ,.f X+: ",
"(@O+R.R.$@A+y.}@x+U+m@K.h q.$@n@N.X.@+o@x+p@Z+Y.]+L h.z.X.A.W.$ $ X.h h q.j.$ - b.(.2.q@- f ~.~@/ - _ ].: m ~ ~ ; `.% Y % f h@) ",
"(@y.L x+<+E+<+H+x+R.R.$@Y.L y.W..+++h Y.A+A+q.j.g+=+d+4+++(.C.+ ..K.`.+ N f B & f = = Y @ y , [+; _ ) {.Q _ ! ~ N+  A+r@K.: K.z "};
