/* XPM */
static char * C:\Users\pc\Documents\door\wall_xpm[] = {
"64 64 487 2",
"  	c #835959",
". 	c #7A4141",
"+ 	c #FF7070",
"@ 	c #D57171",
"# 	c #D13131",
"$ 	c #7B4242",
"% 	c #7B4343",
"& 	c #7A4242",
"* 	c #7C4545",
"= 	c #794040",
"- 	c #381B1B",
"; 	c #412424",
"> 	c #4D2C2C",
", 	c #482A2A",
"' 	c #3C1F1F",
") 	c #361A1A",
"! 	c #3A1E1E",
"~ 	c #412323",
"{ 	c #3C2121",
"] 	c #4F2E2E",
"^ 	c #3E2121",
"/ 	c #381C1C",
"( 	c #422424",
"_ 	c #3D2020",
": 	c #402121",
"< 	c #654141",
"[ 	c #563434",
"} 	c #371A1A",
"| 	c #452727",
"1 	c #613D3D",
"2 	c #472929",
"3 	c #472828",
"4 	c #391C1C",
"5 	c #371B1B",
"6 	c #3F2121",
"7 	c #492A2A",
"8 	c #7D5353",
"9 	c #5A3838",
"0 	c #5E3B3B",
"a 	c #583636",
"b 	c #6B4545",
"c 	c #6A4444",
"d 	c #5D3939",
"e 	c #3E2020",
"f 	c #4D2D2D",
"g 	c #704A4A",
"h 	c #734B4B",
"i 	c #734C4C",
"j 	c #4A2B2B",
"k 	c #442626",
"l 	c #402323",
"m 	c #FF8585",
"n 	c #794141",
"o 	c #482929",
"p 	c #633F3F",
"q 	c #644040",
"r 	c #5B3838",
"s 	c #6E4747",
"t 	c #533333",
"u 	c #3A1F1F",
"v 	c #513131",
"w 	c #5F3C3C",
"x 	c #422626",
"y 	c #462828",
"z 	c #6D4646",
"A 	c #523232",
"B 	c #6E4949",
"C 	c #513030",
"D 	c #573535",
"E 	c #773F3F",
"F 	c #533131",
"G 	c #503131",
"H 	c #3F2222",
"I 	c #644141",
"J 	c #929292",
"K 	c #989696",
"L 	c #A7A7A7",
"M 	c #B4B4B4",
"N 	c #B3B3B3",
"O 	c #B1B1B1",
"P 	c #AEAEAE",
"Q 	c #AAAAAA",
"R 	c #A2A2A2",
"S 	c #9F9F9F",
"T 	c #A3A3A3",
"U 	c #A5A5A5",
"V 	c #9D9D9D",
"W 	c #989898",
"X 	c #868686",
"Y 	c #613E3E",
"Z 	c #969696",
"` 	c #ABABAB",
" .	c #B5B5B5",
"..	c #ACACAC",
"+.	c #A7A5A5",
"@.	c #AAA9A9",
"#.	c #ADADAD",
"$.	c #D2D2D2",
"%.	c #613C3C",
"&.	c #4B2A2A",
"*.	c #593636",
"=.	c #694343",
"-.	c #B7B7B7",
";.	c #B9B9B9",
">.	c #BABABA",
",.	c #AFAFAF",
"'.	c #B8B8B8",
").	c #B6B6B6",
"!.	c #664242",
"~.	c #603D3D",
"{.	c #B0B0B0",
"].	c #553333",
"^.	c #391E1E",
"/.	c #674141",
"(.	c #543434",
"_.	c #402222",
":.	c #4C2C2C",
"<.	c #563535",
"[.	c #A0A0A0",
"}.	c #9E9E9E",
"|.	c #A1A1A1",
"1.	c #623E3E",
"2.	c #724B4B",
"3.	c #BBBBBB",
"4.	c #503030",
"5.	c #A9A9A9",
"6.	c #815656",
"7.	c #563333",
"8.	c #BCBCBC",
"9.	c #492B2B",
"0.	c #4C2B2B",
"a.	c #3C1E1E",
"b.	c #543232",
"c.	c #432323",
"d.	c #785050",
"e.	c #593737",
"f.	c #653F3F",
"g.	c #C7C7C7",
"h.	c #462727",
"i.	c #684242",
"j.	c #CACACA",
"k.	c #D0D0D0",
"l.	c #623F3F",
"m.	c #7E5454",
"n.	c #4E2E2E",
"o.	c #754D4D",
"p.	c #795151",
"q.	c #4F3030",
"r.	c #774F4F",
"s.	c #664040",
"t.	c #D1D1D1",
"u.	c #6D4747",
"v.	c #CDCDCD",
"w.	c #7F5555",
"x.	c #3B2020",
"y.	c #C3C3C3",
"z.	c #5E3939",
"A.	c #BFBFBF",
"B.	c #3D1F1F",
"C.	c #5F3B3B",
"D.	c #724A4A",
"E.	c #949494",
"F.	c #744D4D",
"G.	c #888888",
"H.	c #9A9A9A",
"I.	c #472A2A",
"J.	c #6C4646",
"K.	c #FF6E6E",
"L.	c #784040",
"M.	c #583535",
"N.	c #A8A8A8",
"O.	c #D03131",
"P.	c #A09E9E",
"Q.	c #8A8A8A",
"R.	c #9C9C9C",
"S.	c #979797",
"T.	c #939393",
"U.	c #CCCCCC",
"V.	c #7B5353",
"W.	c #603C3C",
"X.	c #5A3737",
"Y.	c #805656",
"Z.	c #6F4949",
"`.	c #4E2D2D",
" +	c #7C4444",
".+	c #7B4444",
"++	c #7C4646",
"@+	c #774242",
"#+	c #683B3B",
"$+	c #CF3232",
"%+	c #D37171",
"&+	c #D47171",
"*+	c #FC6B6B",
"=+	c #FF6D6D",
"-+	c #B72A2A",
";+	c #7C4242",
">+	c #6C2D2D",
",+	c #4B2929",
"'+	c #5B2424",
")+	c #7C3333",
"!+	c #BB5757",
"~+	c #ED6565",
"{+	c #8E1F1F",
"]+	c #2B1010",
"^+	c #0B0606",
"/+	c #050505",
"(+	c #020202",
"_+	c #000000",
":+	c #070303",
"<+	c #432121",
"[+	c #F66969",
"}+	c #B95050",
"|+	c #261010",
"1+	c #030303",
"2+	c #0E0606",
"3+	c #1D0909",
"4+	c #100606",
"5+	c #020101",
"6+	c #010101",
"7+	c #501010",
"8+	c #CE6C6C",
"9+	c #F76A6A",
"0+	c #FF8383",
"a+	c #E76262",
"b+	c #492626",
"c+	c #040404",
"d+	c #1E0606",
"e+	c #793F3F",
"f+	c #C25252",
"g+	c #B15D5D",
"h+	c #C95555",
"i+	c #9D4242",
"j+	c #5C2929",
"k+	c #C15151",
"l+	c #BE5454",
"m+	c #532121",
"n+	c #964646",
"o+	c #9D5353",
"p+	c #0A0404",
"q+	c #120303",
"r+	c #B74E4E",
"s+	c #CB3030",
"t+	c #C32D2D",
"u+	c #D06D6D",
"v+	c #C96A6A",
"w+	c #C26767",
"x+	c #452424",
"y+	c #1B1B1B",
"z+	c #5B3636",
"A+	c #FE6C6C",
"B+	c #673737",
"C+	c #070606",
"D+	c #843737",
"E+	c #D26E6E",
"F+	c #8F3D3D",
"G+	c #3C0A0A",
"H+	c #CC5656",
"I+	c #CF3131",
"J+	c #BF5454",
"K+	c #201717",
"L+	c #1E1C1C",
"M+	c #884545",
"N+	c #D47070",
"O+	c #672A2A",
"P+	c #070505",
"Q+	c #C45454",
"R+	c #BB6363",
"S+	c #2B1313",
"T+	c #A02424",
"U+	c #A64B4B",
"V+	c #7B3D3D",
"W+	c #D05B5B",
"X+	c #AC4D4D",
"Y+	c #181313",
"Z+	c #A44949",
"`+	c #CC3030",
" @	c #4A2929",
".@	c #2D1717",
"+@	c #AF2929",
"@@	c #CC5959",
"#@	c #180E0E",
"$@	c #271212",
"%@	c #F07272",
"&@	c #A25656",
"*@	c #2C1B1B",
"=@	c #231C1C",
"-@	c #9A5353",
";@	c #764141",
">@	c #141212",
",@	c #241C1C",
"'@	c #965151",
")@	c #EF6666",
"!@	c #B05C5C",
"~@	c #E36161",
"{@	c #CE3030",
"]@	c #F96B6B",
"^@	c #241E1E",
"/@	c #B54F4F",
"(@	c #EC6565",
"_@	c #EB6464",
":@	c #BF6464",
"<@	c #E26060",
"[@	c #B62929",
"}@	c #C62D2D",
"|@	c #894A4A",
"1@	c #0C0909",
"2@	c #3A1010",
"3@	c #F06767",
"4@	c #8C3F3F",
"5@	c #181414",
"6@	c #382323",
"7@	c #A82828",
"8@	c #723535",
"9@	c #161414",
"0@	c #2C2020",
"a@	c #733737",
"b@	c #2D1616",
"c@	c #0B0202",
"d@	c #220707",
"e@	c #682C2C",
"f@	c #B62A2A",
"g@	c #FF8484",
"h@	c #662E2E",
"i@	c #111111",
"j@	c #471C1C",
"k@	c #911F1F",
"l@	c #A65656",
"m@	c #D15757",
"n@	c #AD5B5B",
"o@	c #D75B5B",
"p@	c #DD6666",
"q@	c #6B3B3B",
"r@	c #5D2727",
"s@	c #D16E6E",
"t@	c #863D3D",
"u@	c #191818",
"v@	c #412626",
"w@	c #E86363",
"x@	c #C56868",
"y@	c #5D2B2B",
"z@	c #141414",
"A@	c #1D1B1B",
"B@	c #090606",
"C@	c #502020",
"D@	c #C46767",
"E@	c #CF3030",
"F@	c #C82E2E",
"G@	c #7A4040",
"H@	c #080303",
"I@	c #020000",
"J@	c #7A3131",
"K@	c #B42929",
"L@	c #C76969",
"M@	c #F56868",
"N@	c #C96969",
"O@	c #5F2A2A",
"P@	c #6F2E2E",
"Q@	c #FF7A7A",
"R@	c #CB6B6B",
"S@	c #1C1A1A",
"T@	c #491E1E",
"U@	c #B86161",
"V@	c #E06060",
"W@	c #0D0B0B",
"X@	c #1B0D0D",
"Y@	c #532929",
"Z@	c #6C2B2B",
"`@	c #1E0C0C",
" #	c #010000",
".#	c #993F3F",
"+#	c #D37070",
"@#	c #C06565",
"##	c #0D0505",
"$#	c #512323",
"%#	c #733E3E",
"&#	c #BF5050",
"*#	c #DF5F5F",
"=#	c #AE2828",
"-#	c #F76969",
";#	c #BE2C2C",
">#	c #3D2323",
",#	c #6F1919",
"'#	c #FB6B6B",
")#	c #BD6464",
"!#	c #432222",
"~#	c #6D3434",
"{#	c #A75A5A",
"]#	c #271717",
"^#	c #090909",
"/#	c #5A2727",
"(#	c #FF7979",
"_#	c #C86969",
":#	c #C85454",
"<#	c #260606",
"[#	c #4E2727",
"}#	c #825757",
"|#	c #A95959",
"1#	c #060404",
"2#	c #060606",
"3#	c #0A0909",
"4#	c #160606",
"5#	c #431B1B",
"6#	c #FF7878",
"7#	c #F26868",
"8#	c #321C1C",
"9#	c #5C2424",
"0#	c #C92E2E",
"a#	c #AF5E5E",
"b#	c #2B1919",
"c#	c #151313",
"d#	c #8C3E3E",
"e#	c #935050",
"f#	c #1B1313",
"g#	c #131313",
"h#	c #661B1B",
"i#	c #662A2A",
"j#	c #060505",
"k#	c #883939",
"l#	c #3A0D0D",
"m#	c #140B0B",
"n#	c #060303",
"o#	c #C62E2E",
"p#	c #CC6C6C",
"q#	c #532222",
"r#	c #0B0303",
"s#	c #7A3737",
"t#	c #8F4A4A",
"u#	c #602727",
"v#	c #811B1B",
"w#	c #964343",
"x#	c #121111",
"y#	c #1C1C1C",
"z#	c #682020",
"A#	c #7F3838",
"B#	c #5E2929",
"C#	c #F46868",
"D#	c #BC5050",
"E#	c #B32929",
"F#	c #864545",
"G#	c #040101",
"H#	c #0C0303",
"I#	c #040303",
"J#	c #C35252",
"K#	c #6F3E3E",
"L#	c #0D0D0D",
"M#	c #100E0E",
"N#	c #4D2222",
"O#	c #FB7575",
"P#	c #FD6C6C",
"Q#	c #5C1C1C",
"R#	c #7C4343",
"S#	c #AE4A4A",
"T#	c #420D0D",
"U#	c #7D3434",
"V#	c #643333",
"W#	c #250D0D",
"X#	c #E05F5F",
"Y#	c #FE6D6D",
"Z#	c #522E2E",
"`#	c #060101",
" $	c #773232",
".$	c #B35E5E",
"+$	c #C85555",
"@$	c #331919",
"#$	c #301616",
"$$	c #B56060",
"%$	c #C72E2E",
"&$	c #BA6262",
"*$	c #A14444",
"=$	c #CF5959",
"-$	c #F86A6A",
";$	c #140606",
">$	c #030101",
",$	c #1D0B0B",
"'$	c #1B0707",
")$	c #B54C4C",
"!$	c #D25A5A",
"~$	c #984F4F",
"{$	c #BD5151",
"]$	c #2A0909",
"^$	c #090404",
"/$	c #1C0B0B",
"($	c #6E2C2C",
"_$	c #A32424",
":$	c #F36767",
"<$	c #D56464",
"[$	c #9A5050",
"                                                                                                                                ",
"  . . . . . . . . . . . . . . . . . . . . . . . . . . . . . . . . . . . . . . . . . . . . . . . . . . . . . . . . . . . . . .   ",
"  . + @ + + + + @ + + + + @ + @ + + + + + + + @ + + + + @ + + + + @ + + + + @ + + + + @ + @ + + + + + + + @ + + + + @ + + + .   ",
"  . @ + @ + # @ + @ + # @ + @ + @ + # @ + # @ + @ + # @ + @ + # @ + @ + # @ + @ + # @ + @ + @ + # @ + # @ + @ + # @ + @ + # .   ",
"  . # @ + # + # @ + # + # @ # @ + # + + # + # @ + # + # @ + # + # @ + # + # @ + # + # @ # @ + # + + # + # @ + # + # @ + # + .   ",
"  . + @ + + + + @ + + + + @ + @ + + + + + + + @ + + + + @ + + + + @ + + + + @ + + + + @ + @ + + + + + + + @ + + + + @ + + + .   ",
"  . @ + @ + # @ + @ + # @ + @ + @ + # @ + # @ + @ + # @ + @ + # @ + @ + # @ + @ + # @ + @ + @ + # @ + # @ + @ + # @ + @ + # .   ",
"  . # @ + # + # @ + # + # @ # @ + # + + # + # @ + # + # @ + # + # @ + # + # @ + # + # @ # @ + # + + # + # @ + # + # @ + # + .   ",
"  . . . . . . . . . . . . . . . . . . . . . . . . . . # + # @ + # + # @ + . . $ . % & & % . . . . . . . . $ * % % . = . % % .   ",
"  - ; > , ' ) ! ~ { ] ^ ) ) ) / ( _ : < [ ! - ( _ } . + # + @ + + + + @ + . ( [ | 1 ( ~ < 2 3 4 5 6 ' } } 7 8 9 1 ^ ) _ 0 a _   ",
"  ~ b 0 c d e f g > h 7 5 ) ) ( i [ { j k 5 l g d ' . + m @ + @ + # @ + @ n o p o p ( l q r s l 6 p t ! ) u 7 7 v u ) | w x y   ",
"  7 z A 9 B n n n n n n n n n n n n n n n n n C D _ . # + # @ + # + # @ + E ! _ ' n n n n n n n n n n n n n n n n n / ( ^ a F   ",
"  > G | H I n J K L M N O P Q R S T U V W X n ] Y ^ . + # + @ + + + + @ + n 2 0 ~ . X Z `  ...U L +.@...#.` R V $.n _ ' u %.[   ",
"  &.t j *.=.n ..-.M ;.>.>.;.;.>.>.>.>.;.-.U n ! ^ 5 . + m @ + @ + # @ + @ = { ~ ! . ,.'.>.>.>.;.'.'.-.-.'.'.;.).>.n j / / 7 t   ",
"  | 7 j !.~.n P Q O N >.;.N M -.-.{.Q {.).,.n 5 e H . # + # @ + # + # @ + = _ ; ! . ;.>.>.>.;. .O ..L L #.).>.;.>.n ].^._ /.(.  ",
"  _.:.9 <.( n #.T ` ).>.;.[.N >.-.}.|.P  .O n 6 1.< . + # + @ + + + + @ + . j 2.k . >.>.>.;.-.;.>.>.;.'.;.;.>.'.3.n 4.H 9 d ]   ",
"  ' p c ^ 6 n ,.{.M ;.;.'.5.>.>.>.,.N -.;.O n 7 6.7.. + m @ + @ + # @ + @ . ! k / . >.>.>.>.>.'.-.;.;.'.-.M >.'.8.n 3 ( w _.9.  ",
"  4 1 0 - H n N ).Q -.).#.O >.>.>.{.;.>.>.{.n v 0.a.. # + # @ + # + # @ + . / ( ! . ;.>.;.'.>.;.-.>.).O  .N ;.'.8.n | k v k ]   ",
"  5 9 b./ c.n N  .V ).;.O '.>.>.>.,.;.>.>.#.n d.4.( . + # + @ + + + + @ + E 6 j o . ;.>.'.;.>.;.-.>.>.;.;.{.'.'.8.n 3 ^ 4 | a   ",
"  } e.< ~ | n O ).U '.>.N >.>.>.>.O >.>.>.` n j f.1 . + m @ + @ + # @ + @ = 4 k u . >.;. .>.>.>.>.>.O M ;.N -.N g.n h.5 ) H ~.  ",
"  5 a i.| y n ,.-.R '.>.;.>.>.>.>.M >.>.>...n 5 _.6 . # + # @ + # + # @ + . ) ) ) . ;.'.M >.>.;.>.>.O '.;.N ).P j.n o u } , c   ",
"  ) ] y ( , n Q ;.5.;.>.>.;.>.>.>.N >.;.;.P n ^.o ! . + # + @ + + + + @ + . / ( 4 . '. .-.'.;.'.>.>.). .-.M ).{.k.n y ^ ) 7 z   ",
"  ) C 0 l.> n U >.>.>.>.>.;.;.>.M O >.).;.O n y m.o . + m @ + @ + # @ + @ . k c o . O {.;. .>.;.>.>.O -.).-. .{.$.n ~ _ ) ^.e.m.",
"  ) n.o.p.:.n U >.>.>.>.>.;.>.>.;.).>.N ;.M n y A _ . # + # @ + # + # @ + . 4 ^.u n ).O ;.N >.>.>.>.'.-. .'. .{.$.n ' ! ) q.; r.",
"  ) ^ 4.s | n U >.>.>.>.>.>.>.>.>.;.;.N -.-.n *.s.^ . + # + @ + + + + @ + . 5 _ - . '.{.>.N >.;.'.;.'.). .>.-.{.t.n / / - 1.u.6.",
"  ) ' ! w l n 5.>.>.>.>.>.>.>.>.>.>.;.M  .'.n _ H 5 . + m @ + @ + # @ + @ . l 9 ^ . ).,.>.M >.;.N -.;.>.-.>.>.O v.n ' - u < /.w.",
"  ) x./ 0 l n {.>.'.>.>.>.>.).>.>.>.;.O -.'.n ) ) ) . # + # @ + # + # @ + . ( ].6 .  .P >.-.;.>.).-.>.;.-.;.>.{.j.n 6 ~ y e.3 d.",
"  ) _ / 0 l n  .>.{.'.>.>.;.O ;.>.;.-...'.).n 5 6 ^.. + # + @ + + + + @ + . / / - n M {.>.-.-.;.;.;.>.'.'.;.'.#.y.n 6 H ' } 1 6.",
"  ) _ / z.~ n ;.>.U O >.>.>.N >.>.{.O ,.M P n H < j . + m @ + @ + # @ + @ . / l / . ).O >.M ).;.;.;.>.;.>.;.-.N A.n B.' ! C.D.  ",
"  ) H / 9 6 n >.;.[.{.;.>.'.).;.;.S E.,.-.P n ' [ k . # + # @ + # + # @ + . ( F.| . '.O ;.-.'.>.>.>.>.>.>.>. .;.8.n ' k ( 2.s   ",
"  4 0.! a ' n >.'.}.N ;.;.'.).{.N J G.H.).M n 5 B.( . + # + @ + + + + @ + . ' q._ . ;.N '.;.;.'.;.'.>.>.>.>. .;.3.n _ I.| p p   ",
"  ^ < =.w ! n M -.L ` {.). .M P #.` Q #.-.M n ) l J.. K.m @ + @ + # @ + @ . ! e a.L.;.-.).N O ,.O M -.>.;.;.M ;.>.n _ M.e ^.M.  ",
"  _ w ].d ! n T ;.'.'.-.-.). .M M N N N -.N.n - l :.. O.+ # @ + # + # @ + . ; f.h.n '.;.'.'.'.;.'.-.-.-. .). .'.>.n H a 4 5 e.  ",
"  ' a | ]./ n X P.N.Q 5.N.U T R R T U 5.U Q.n l w _.. + # + @ + + + + @ + . / _.4 . V L ` P #.L |.[.S R.S.E.T.R U.n H ] / / p   ",
"  ~ !.].C ) n n n n n n n n n n n n n n n n n , i._.. + m @ + @ + # @ + @ L.) ) 5 . . % & . . $ & . . . % & . . . n y ~ ) 7 i.  ",
"  :.V.o.j ) ' [ W./.6 ) ) 5 ( 4.u ) ' a D _.b.d | 5 . # + # @ + # + # @ + . ! o H 5 ^ w h.5 ' A h.( _ _ e.7 3 y x.n.X.H 5 y _.  ",
"  :.Y.s._ ) l J.4.~ - ) ) 4 ] i.H ) ^.f f _ j 4.! ) . + # + @ + + + + @ + . ~ Z.`./ ^ W.h.5 H !.b.s [ ; 0 ] w ~.~ v 0 l 4 k )   ",
"  . . . . . . . . . . . . . . . . . . & & . & $ . . . + m @ + @ + # @ + @ . &  +$ . . % & . . .+% ++.+. % $ % % . $ @+#+#+L..   ",
"  . @ + # @ + @ + m @ + @ + # @ + @ + # @ + @ + # @ + # + # @ + # + # @ + @ + # @ + @ + m @ + @ + O.@ + @ + # @ + @ + $+%++ .   ",
"  . + # + # @ + # + # @ + # + # @ + m + m @ + # + # @ + # + @ + + + + &+*+=+O.+ # @ + # + # @ + # + # @ + m + m @ + # + # @ .   ",
"  . + + m + @ + + # + @ + + + + @ + + # + @ + + m + @ + m @ + @ =+-+;+>+,+'+)+!+~+@ + + # + @ + + + + @ + + # + @ + + m + @ .   ",
"  . @ + # @ + @ + m @ + @ + # @ + @ + # @ + @ + # @ + # + # @ K.{+]+^+/+(+_+(+:+<+[+@ + m @ + @ + # @ + @ + # @ + @ + # @ + .   ",
"  . + # + # @ + # + # @ + # + # @ + m + m @ + # + # @ + # + @ }+|+1+1+2+3+4+5+6+7+8++ # + # @ + # + # @ + m 9+0+@ + # + # @ .   ",
"  . + + m + @ + + # + @ + + + + @ + + # + @ + + m + @ + m @ a+b+c+d+e+f+g+h+i+j+k+@ + + # + @ + + + + @ + l+m+n+8++ + m + @ .   ",
"  . @ + # @ + @ + m @ + @ + # @ + @ + # @ + @ + # @ + # + # o+p+q+r+s+@ + @ + t+u++ v+[+0+@ + @ + # @ + w+x+y+z+A+@ + # @ + .   ",
"  . + # + # @ + # + # @ + # + # @ + m + m @ + # + # @ + # + B+C+D+=++ @ + + # + # E+F+G+H+# @ + I++ # @ J+K+L+M+N++ # + # @ .   ",
"  . + + m + @ + + # + @ + + + + @ + + # + @ + + m + @ + m @ O+P+Q+# @ + @ + + m + R+S+:+T++ @ K.U+V+W+@ X+Y+L+Z+@ + + m + @ .   ",
"  . @ + # @ + @ + m @ + @ + # @ + @ + # @ + @ + # @ + # + `+ @.@+@+ # @ + @ + # @ @@#@$@%@@ + &@*@=@-@+ ;@>@,@'@)@!@~@{@@ + .   ",
"  . + # + # @ + # + # @ + # + # @ + m + m &++ # + # @ + # ]@v ^@/@(@_@:@<@a+[@a+}@|@1@2@3@# &+4@5@6@7@N+8@9@0@a@b@c@d@e@f@@ .   ",
"  . + + m + @ + + # + @ + + + + @ + + O.+ &++ K.g@K.&+K.g@E+h@i@j@k@l@m@n@o@o@p@~@q@P+r@}@=+s@t@u@v@w@x@y@z@A@B@5+_+_+(+C@D@.   ",
"  . @ + # @ + @ + m @ + @ + # &++ &++ O.&+K.&+K.E@E+K.{@A+F@G@H@I@J@K@L@M@N@M@F@D@O@1+P@Q@R@~+7 S@T@U@V@*@W@X@Y@Z@`@ #_+5+.#=   ",
"  . + # + # &++ # + # @ + # + O.@ + g@+ g@&++ O.K.O.+#=+{@=+@#T@6+##$#%#&#*#=#-#;#>#c+,#'#`+)#!#L+~#}@{#]#^#/#(#_#:#<#6+6+[#= }#",
"  . + + m + @ + + # + @ + + + + &++ + # + &++ + g@+ &+K.g@N+K.|#j@1#2#3#2+4#5#6#7#8#(+9#0#+ a#b#c#d#K.e#f#g#h#K.N+A+i#C+j#<+E   ",
"  . @ + # @ + @ + g@&++ @ + # @ + @ + # @ + @ + O.@ + # + O.&+K.f@k#l#m#n#n#O@o#p#q#6+r#s#t#u#C+(+v#&+w#x#y#z#N++ &+A#W@2#B#L.  ",
"  . + # + # @ + # + # @ + # + # @ + m + m @ + # + # &++ # + @ + + K.C#n@D#D#E#+ O.F#4+6+(+G#H#I#p+J## K#L#M#N#O#&+P#Q#^#2#R#.   ",
"  . + + m + @ + + # + @ + + + + @ + + # + @ + + m + @ + m @ + &++ # @ + @ + + m + v+S#q#T#U#V#I#W#X#Y#Z#/+_+`# $.$+$@$6+#$$$.   ",
"  . + + m + @ + + # + @ + + + + @ + + # + @ + + m + @ + m @ + @ + # @ + @ + + m + @ + ]@%$K.&$*$=$K.-$x ##;$6+>$,$3+_+'$)$N+.   ",
"  . @ + # @ + @ + m @ + @ + # @ + @ + O.@ + @ + # @ + # + # @ + # + # &++ @ + # @ + @ + m @ + @ + # s@!$~${$]$^$:+/$($_$s@+ .   ",
"  . + # + # @ + # + # @ + # + # @ + m + m @ + # + # @ + # + @ + + + + @ + + # + # @ + # + # @ + # + # @ + m :$<$[$*#s++ # @ .   ",
"  . + + m + @ + + # + @ + + + + @ + + # + @ + + m + @ + m @ + @ + # @ + @ + + m + @ + + # + @ + + + + @ + + # + @ + + m + @ .   ",
"  . @ + # @ + @ + m @ + @ + # &++ @ + # @ + @ + # @ + # + # @ + # + # @ + @ + # @ + @ + m @ + @ + # @ + @ + # @ + @ + # @ + .   ",
"  . + # + # @ + # + # @ + # + # @ + m + m @ + # + # @ + # + @ + + + + @ + + # + # @ + # + # @ + # + # @ + m + m @ + # + # @ .   ",
"    . . . . . . . . . . . . . . . . . . . . . . . . . . . . . . . . . . . . . . . . . . . . . . . . . . . . . . . . . . . .     ",
"                                                                                                                                "};
