/* XPM */
static char *result[] = {
/* columns rows colors chars-per-pixel */
"64 64 46 1 ",
"  c black",
". c #6A6A6A",
"X c gray42",
"o c #6C6C6C",
"O c #6D6D6D",
"+ c gray43",
"@ c #6F6F6F",
"# c gray44",
"$ c #717171",
"% c #727272",
"& c gray45",
"* c #747474",
"= c gray46",
"- c #767676",
"; c #777777",
": c gray47",
"> c #797979",
", c gray48",
"< c #7B7B7B",
"1 c #7C7C7C",
"2 c gray49",
"3 c #7E7E7E",
"4 c gray50",
"5 c #808080",
"6 c #818181",
"7 c #888888",
"8 c #8B8B8B",
"9 c gray55",
"0 c #8D8D8D",
"q c #8E8E8E",
"w c gray56",
"e c #909090",
"r c gray57",
"t c #929292",
"y c #939393",
"u c gray58",
"i c #959595",
"p c gray59",
"a c #979797",
"s c #989898",
"d c gray60",
"f c #9A9A9A",
"g c #9B9B9B",
"h c gray61",
"j c #9D9D9D",
"k c gray62",
/* pixels */
"666666666gppppiiiiiiiiiiiiiiiiiiiiiiiiiiiiiiiiiiiiiiipp166666666",
"666666665hsassappaaaaaaaaaaaaaaasdffffffffffddssaapipit>56666666",
"6666664<>idhjjhgghjjjjjjjjhhhhjjjkkkkkkkkkkkkkkjjhdsduq=:3556666",
"66653<*+6qdkkkkkkkkkkkkkkkkkkkkkkkkkkkkkkkkkkkkkkkjjjp07%%-,4666",
"665;rw00qegkkkkkkkkkkkkkkkkkkkkkkkkkkkkkkkkkkkkkkkkkkgtrw00e>666",
"662@990tiskkkkkkkkkkkkkkkkkkkkkkkkkkkkkkkkkkkkkkkkkkkkhgse90=566",
"661o89tfkkkkkkkkkkkkkkjjkkkkkkkkkkkkkkkkkkkkkkkkkkkkkkkkkg09*566",
"66<o8qakkkkkkkkkkkkkkkjjkkkkkkkkkkkkkkkkkkkkkkkkkkkkkkkkkkq0%466",
"66<o8wdkkkkkkkkkkkkkkkkkkkkkkkkkkkkkkkkkkkkkkkkkkkkkkkkkkki9%466",
"661o9wfkkkkkkkkkkkkkkkkkkkkkkkkkkkkkkkkkkkkkkkkkkkkkkkkkkka9$466",
"661O9wfkkkkkkkkkjhjjkkkkkkkkkkkkkkkkkkkkkkkkkkkkkkkkkkkkkjp0$466",
"662O9wfkkkkkkkkhghjkkkkkkkkkkkkkkkkkkkkkkkkkkkjkkkkkkkkkkku0$466",
"663+9efkkkkkkkjghjjkkkkkkkkkkkkkkkkkkkkkkkkkkkkjjkkkkkkkkkf0#366",
"664@9rgkkkkkkjhghjkkkkkkkkkkkkkkkkkkkkkkkkkkkkkkjkkkkkkkjkf0@366",
"664$0yhkkkkkkjhhjjkkkkkkkkkkkkkkkkkkkkkkkkkkkkkkjkkkkkkkjkf0@266",
"665$0ujkkkkkkhhhjkkkkkkkkkkkkkkkkkkkkkkkkkkkkkkkjjkkkkkkjkd0$366",
"665%0ujkkkkkkhhjjkkkkkkkkkkkkkkkkkkkkkkkkkkkkkkkkjkkkkkkjksq%466",
"665%0yhkkkkkkjjjkkkkkkkkkkkkkkkkkkkkkkkkkkkkkkkkkjkkkkkkjkaq&466",
"665%0rhkkkkkkkkjjjhjkkkkkkkjjjkkkkkkkkkkkkkkkkkkkjkkkkkkkkpq*466",
"664#0egkkkkkkkkfsaadhkkkkkhfsdhkkkkkkkkkkkkkjhhjkjkkkkkkkkaw=566",
"662@9wgkkkkkkkjsp--->46665<ppp>466666666kkk    shjkkkkkkkkaw-566",
"661+9wfkkkkkkkjai----26663;iii;266666666kkk    pdjkkkkkkkjpw-566",
"661O9wfkkkkkkkhpi----<6662-iii-166666666kkj    iahkkkkkkkgrw;566",
"662+0wfkkkkkkkhpi----<6661-iii-266666666kkj    iphkkkkkkkgew-566",
"662@0wfkkkkkkkhpi----<6661-iii-266666666kkj    ipgkkkkkkkgrw=566",
"661@0wgkkkkkkkhpi----<6661-iii-266666666kkj    ipgkkkkkkkgrq&366",
"65:+0rjkkkkkkkhpi----,6662-iii-166666666kkj    ipgkkkkkkkhrq#<66",
"5>#X0akkkkkkkkhpi---->5662-iii-166666666kkh    iphkkkkkkkht0O=46",
"4%090gkkkkkkkkgpi---->5663-iii-<56666666kkh    iahkkkkkkkhy00r>4",
"4@99whkkkkkkkkgpi----:5663-iii-,56666666kkh    ishkkkkkkkju090%1",
"4@99jjkkkkkkkkfpi----:5663-iii-,56666666kkg    idhkkkkkkkji099+<",
"4@89kkkkkkkkkkfpi---->5663;iii-,56666666kkg    idhkkkkkkkji099O<",
"4@99kkkkkkjkkjdpi----,5663;iii-,56666666kkg    idhkkkkkkkju999O1",
"3@99jjkkkkhdgdaii----,3442;iii->45666666kkf    ifgkjgspppat999O<",
"1+99        pppii-------;>-iii-;::>>><13hfa    ifgh        999O,",
",+90        iiiii----------iii----------ppi    ifgd        998o:",
">+90qwrtupaiiiiii----------iii----------iii    idfaiiiiiuq9998X-",
":+00weryiasiiiiiiiiiiiiiiiiiiiiiiiiiiiiiiiiippppssappppiiw0098.&",
":+0q        iiiiiiiiiiiiiiiiiiiiiiiiiiiiiipadggfddffffdaairr98.$",
">@qq        iiiiiiiiiiiiiiiiiiiiiiiiiiiiipafjkkkjjkkkkkjjjgs98.#",
">@qwetuaddaippppi----------iii---;;:::;-pafjkkkkkkkkkkkkkkkgq8.#",
",$wetisfggssdddap----;;;,>-iii--->45651;pdjkkkkkkkkkkkkkkkkhw9.#",
"2&edjgjkkjjkkkjfp-------;;-iii--;166665,pgkkkkkkkkkkkkkkkkkhw8.#",
"4-rkkjkkkkkkkkkha----------iii--:4666662ahkkkkkkkkkkkkkkkkkhr8.#",
"5;tkkkkkkkkkkkkjs----------iii--:5666662ahkkkkkkkkkkkkkkkkkjy9.#",
"5:tkkkkkkkkkkkkjd;---------iii--:5666661ahkkkkkkkkkkkkkkkkkku9.#",
"5:yajkkkkkkkkkkjf;---------iii--;566666<ajkkkkkkkkkkkkkkkkkku9.#",
"5:ypjkkkkkkkkkkkf;---------iii-->566666<ajkkkkkkkjkkkkkkkkkku9.#",
"5>uajkkkkkkkkkkjd----------iii--<6666661ajkkkkkkkjkkkkkkkkkki9.$",
"5>iajkkkkkkkkkkja----------iii-;16666662sjkkkkkkkjkkkkkkkkkki9.$",
"4>isjkkkkkkkkkkha----------iii-;16666662ajkkkkkkkjkkkkkkkkkki9X*",
"4:isjkkkkkkkkkkgp----------iii-;16666662agkkkkkkkjkkkkkkkkkki9O;",
"3:isjkkkkkkkkkkgp----------iii--<666666<psjkkkkkkjkkkkkkkkkkp9+>",
"1:isjkkkkkkkkkkgp----------iii--,666666,iagkkkkkkjkkkkkkkkkkp9+,",
";:idjkkkkkkkkkkgp----------iii--:566665>iphkkkkkkkkkkkkkkkkkp9+,",
"--pfkkkkkkkkkkkgp----------iii--;266662;iahkkkkkkkkkkkkkkkkkp9+>",
"--ifkkkkkkkkkkkfp----------iii---:,11,:-psjkkkkkkkkkkkkkkkkjiq+;",
"--pdkkkkkkkkkkjspiiiiiiiiiiiiiiiiippppiipfkkkkkkkkkkkkkkkkjsiu$-",
"--iahkkkkkkkkkkfpiiiiiiiiiiiiiiiiiiiiiiipdkkkkkkkjkkkkkkkkdpii*-",
"--ipfkkkkkkkkkkjdpiiiiiiiiiiiiiiiiiiiiiiiajkkkkkkkkkkkkkkjspii=;",
"--ipagkkkkkkkkkkjfsppppppppiiiiiiiiipsddsafkkkkkkkkkkkkkjfaiii-;",
":-iipagjkkkkkkjhhhggffddddsssssddddddfffdddgjjkkkkkkkkjhdapiii*-",
"<-iiippsfggggdapppppppppiiiiiiiiiiiiiiiiiippaasdddddddspppiiiu%-",
";-iiiiipppaapppiiiiiiiiiiiiiiiiiiiiiiiiiiiiiiippppppppiiiiiiii--"
};
