/* XPM */
static char * C:\Users\pc\Documents\door\door_xpm[] = {
"64 64 549 2",
"  	c #FF00FF",
". 	c #09101D",
"+ 	c #212E4A",
"@ 	c #293959",
"# 	c #1E2A44",
"$ 	c #FD00FE",
"% 	c #FD00FD",
"& 	c #1F2B46",
"* 	c #2B3B5D",
"= 	c #2D3D60",
"- 	c #2C3D60",
"; 	c #2A395A",
"> 	c #1B273F",
", 	c #111A2C",
"' 	c #304166",
") 	c #3B507B",
"! 	c #2C3C5F",
"~ 	c #0C1322",
"{ 	c #162035",
"] 	c #314369",
"^ 	c #415685",
"/ 	c #435A8A",
"( 	c #435888",
"_ 	c #3F5582",
": 	c #2D3E61",
"< 	c #121A2D",
"[ 	c #080D1A",
"} 	c #FE00FE",
"| 	c #070C18",
"1 	c #0E1626",
"2 	c #29395A",
"3 	c #33456C",
"4 	c #243350",
"5 	c #1C2841",
"6 	c #2F4064",
"7 	c #3E5380",
"8 	c #475F91",
"9 	c #475D91",
"0 	c #465B8E",
"a 	c #465A8E",
"b 	c #465B8F",
"c 	c #475E91",
"d 	c #465E90",
"e 	c #3B517B",
"f 	c #202D48",
"g 	c #283757",
"h 	c #080F1C",
"i 	c #10192B",
"j 	c #162036",
"k 	c #0F1729",
"l 	c #172138",
"m 	c #314368",
"n 	c #415786",
"o 	c #475E90",
"p 	c #45598D",
"q 	c #435389",
"r 	c #435288",
"s 	c #435489",
"t 	c #455C8E",
"u 	c #435989",
"v 	c #3D527E",
"w 	c #2F3F63",
"x 	c #1F2C46",
"y 	c #2B3C5D",
"z 	c #2E3F63",
"A 	c #1D2943",
"B 	c #1D2842",
"C 	c #45598E",
"D 	c #44558A",
"E 	c #425187",
"F 	c #424F86",
"G 	c #44568B",
"H 	c #141E32",
"I 	c #364972",
"J 	c #445B8C",
"K 	c #3D527F",
"L 	c #2C3D5F",
"M 	c #1A253D",
"N 	c #314268",
"O 	c #405584",
"P 	c #3E537F",
"Q 	c #0B1221",
"R 	c #435388",
"S 	c #425186",
"T 	c #425086",
"U 	c #424F85",
"V 	c #435287",
"W 	c #2E3E62",
"X 	c #141D31",
"Y 	c #34466D",
"Z 	c #445B8B",
"` 	c #465D8F",
" .	c #3F5482",
"..	c #2D3D61",
"+.	c #1E2B46",
"@.	c #2E3F64",
"#.	c #3D507E",
"$.	c #44598B",
"%.	c #415485",
"&.	c #374972",
"*.	c #243250",
"=.	c #404E83",
"-.	c #3E4C82",
";.	c #3E4C81",
">.	c #3C507C",
",.	c #18233A",
"'.	c #263554",
").	c #384B74",
"!.	c #415687",
"~.	c #44588A",
"{.	c #3B4E7B",
"].	c #1A263D",
"^.	c #304367",
"/.	c #405585",
"(.	c #43578A",
"_.	c #3E4E81",
":.	c #313D66",
"<.	c #1C2640",
"[.	c #0B1322",
"}.	c #414F85",
"|.	c #3D4B80",
"1.	c #39477B",
"2.	c #38467A",
"3.	c #3A487C",
"4.	c #3F5583",
"5.	c #131C30",
"6.	c #0D1626",
"7.	c #1F2A46",
"8.	c #33416B",
"9.	c #405082",
"0.	c #435689",
"a.	c #3E5382",
"b.	c #121B2E",
"c.	c #354870",
"d.	c #455B8C",
"e.	c #405282",
"f.	c #323E67",
"g.	c #1F2645",
"h.	c #404E84",
"i.	c #394779",
"j.	c #354474",
"k.	c #354476",
"l.	c #374579",
"m.	c #3B497D",
"n.	c #182339",
"o.	c #0A0E1F",
"p.	c #21294A",
"q.	c #343F6B",
"r.	c #3F5182",
"s.	c #44578A",
"t.	c #182238",
"u.	c #374A72",
"v.	c #425888",
"w.	c #35466F",
"x.	c #1B233D",
"y.	c #080A19",
"z.	c #38477A",
"A.	c #344472",
"B.	c #32426D",
"C.	c #344372",
"D.	c #364578",
"E.	c #131C2F",
"F.	c #0B0F20",
"G.	c #1D2542",
"H.	c #333F6A",
"I.	c #3F5082",
"J.	c #09101E",
"K.	c #2F3F64",
"L.	c #3D517E",
"M.	c #2F3E64",
"N.	c #0A101E",
"O.	c #31426C",
"P.	c #30416A",
"Q.	c #344373",
"R.	c #364476",
"S.	c #3D4B81",
"T.	c #34416C",
"U.	c #415586",
"V.	c #445A8B",
"W.	c #0D1525",
"X.	c #304267",
"Y.	c #43568A",
"Z.	c #3E4E7F",
"`.	c #2B365C",
" +	c #0C1122",
".+	c #39477A",
"++	c #31426B",
"@+	c #2F4169",
"#+	c #2F4168",
"$+	c #304169",
"%+	c #0B0E1F",
"&+	c #1F2945",
"*+	c #384B75",
"=+	c #425887",
"-+	c #0D1425",
";+	c #131B30",
">+	c #34446D",
",+	c #425588",
"'+	c #313D67",
")+	c #1E2544",
"!+	c #0D1323",
"~+	c #3A487D",
"{+	c #374578",
"]+	c #334370",
"^+	c #2F4167",
"/+	c #32426E",
"(+	c #344473",
"_+	c #151D33",
":+	c #34436C",
"<+	c #405383",
"[+	c #303E65",
"}+	c #0A0F1F",
"|+	c #263453",
"1+	c #12182D",
"2+	c #323E68",
"3+	c #3E4D7E",
"4+	c #323D68",
"5+	c #1A213C",
"6+	c #0A0E1E",
"7+	c #172137",
"8+	c #364577",
"9+	c #30426A",
"0+	c #182138",
"a+	c #303B64",
"b+	c #3C4A7B",
"c+	c #2E3A61",
"d+	c #11182C",
"e+	c #0E1627",
"f+	c #12172D",
"g+	c #3D4A7C",
"h+	c #2C365E",
"i+	c #10172A",
"j+	c #1C2840",
"k+	c #31426D",
"l+	c #2E3E65",
"m+	c #2D3D64",
"n+	c #2E3F66",
"o+	c #455C8D",
"p+	c #2F4165",
"q+	c #141B30",
"r+	c #22294B",
"s+	c #303C66",
"t+	c #313F67",
"u+	c #2B3A5D",
"v+	c #11162B",
"w+	c #303B65",
"x+	c #3B4779",
"y+	c #2B345B",
"z+	c #182139",
"A+	c #334371",
"B+	c #2E4067",
"C+	c #2C3B62",
"D+	c #2B385F",
"E+	c #2D3C63",
"F+	c #435187",
"G+	c #314469",
"H+	c #1D2642",
"I+	c #0B1021",
"J+	c #252E50",
"K+	c #2E3961",
"L+	c #202847",
"M+	c #35486F",
"N+	c #2C3C63",
"O+	c #2B385E",
"P+	c #2A355C",
"Q+	c #465C8E",
"R+	c #19243B",
"S+	c #10192A",
"T+	c #283858",
"U+	c #0E1326",
"V+	c #13192F",
"W+	c #080A1A",
"X+	c #151E33",
"Y+	c #39477C",
"Z+	c #334372",
"`+	c #2A375E",
" @	c #29355C",
".@	c #29345B",
"+@	c #2A365D",
"@@	c #2C3C5E",
"#@	c #455B8E",
"$@	c #45588C",
"%@	c #3C4A7F",
"&@	c #374679",
"*@	c #3B497E",
"=@	c #425287",
"-@	c #485F92",
";@	c #486093",
">@	c #314267",
",@	c #364477",
"'@	c #29345A",
")@	c #2F4067",
"!@	c #475F92",
"~@	c #374A73",
"{@	c #32446A",
"]@	c #354475",
"^@	c #2E3F65",
"/@	c #283359",
"(@	c #273157",
"_@	c #273156",
":@	c #35476F",
"<@	c #405685",
"[@	c #455B8D",
"}@	c #414F84",
"|@	c #263055",
"1@	c #242D50",
"2@	c #242D4F",
"3@	c #242E51",
"4@	c #29335A",
"5@	c #415085",
"6@	c #304266",
"7@	c #293858",
"8@	c #10182B",
"9@	c #33426A",
"0@	c #2C3A61",
"a@	c #232C4E",
"b@	c #212949",
"c@	c #222A4B",
"d@	c #232C4F",
"e@	c #252F53",
"f@	c #283259",
"g@	c #38467B",
"h@	c #1D2942",
"i@	c #161E35",
"j@	c #28335A",
"k@	c #263155",
"l@	c #212747",
"m@	c #1F2442",
"n@	c #202747",
"o@	c #232B4D",
"p@	c #232D4F",
"q@	c #2C3C62",
"r@	c #283857",
"s@	c #2E3D62",
"t@	c #3A4877",
"u@	c #414E84",
"v@	c #283258",
"w@	c #252F52",
"x@	c #202645",
"y@	c #1E223F",
"z@	c #212848",
"A@	c #384679",
"B@	c #445A8A",
"C@	c #2F4166",
"D@	c #0A111F",
"E@	c #425988",
"F@	c #324369",
"G@	c #3D517D",
"H@	c #435589",
"I@	c #2F4068",
"J@	c #222B4C",
"K@	c #1D213E",
"L@	c #1E2341",
"M@	c #46598E",
"N@	c #364871",
"O@	c #3D517F",
"P@	c #425586",
"Q@	c #1B263E",
"R@	c #34476E",
"S@	c #455D8F",
"T@	c #263054",
"U@	c #222A4A",
"V@	c #1D203E",
"W@	c #1D1F3C",
"X@	c #202746",
"Y@	c #263156",
"Z@	c #29355B",
"`@	c #2B3960",
" #	c #3B517C",
".#	c #364971",
"+#	c #2A345A",
"@#	c #1A243D",
"##	c #1D203D",
"$#	c #1E2240",
"%#	c #465E91",
"&#	c #2B3B5C",
"*#	c #1A253C",
"=#	c #405684",
"-#	c #1D2341",
";#	c #324269",
">#	c #252E52",
",#	c #273656",
"'#	c #33456B",
")#	c #253452",
"!#	c #1B243E",
"~#	c #090D1D",
"{#	c #171F37",
"]#	c #313E68",
"^#	c #222B4D",
"/#	c #1E213F",
"(#	c #10182A",
"_#	c #262F54",
":#	c #1D203C",
"<#	c #1F2443",
"[#	c #222A4C",
"}#	c #151D34",
"|#	c #313F68",
"1#	c #2F3A63",
"2#	c #182239",
"3#	c #465C90",
"4#	c #304066",
"5#	c #19223B",
"6#	c #141D32",
"7#	c #33466D",
"8#	c #445A8C",
"9#	c #30426B",
"0#	c #273756",
"a#	c #374973",
"b#	c #3E4F80",
"c#	c #273257",
"d#	c #404F84",
"e#	c #232C4D",
"f#	c #10162A",
"g#	c #314068",
"h#	c #425387",
"i#	c #32436F",
"j#	c #212849",
"k#	c #1F2544",
"l#	c #2A365C",
"m#	c #34466E",
"n#	c #45598C",
"o#	c #45578C",
"p#	c #2C3B61",
"q#	c #455A8E",
"r#	c #202D49",
"s#	c #45588D",
"t#	c #415086",
"u#	c #2B3A60",
"v#	c #202646",
"w#	c #35446E",
"x#	c #435688",
"y#	c #3C4F7D",
"z#	c #3F4C82",
"A#	c #3C4A7E",
"B#	c #273258",
"C#	c #2D3E64",
"D#	c #3F4D82",
"E#	c #46598D",
"F#	c #11172C",
"G#	c #3F4F82",
"H#	c #3E527F",
"I#	c #293A5A",
"J#	c #34476D",
"K#	c #3D4B7F",
"L#	c #0B0F21",
"M#	c #242C4E",
"N#	c #374773",
"O#	c #23324F",
"P#	c #455C8F",
"Q#	c #3F4D83",
"R#	c #24314F",
"S#	c #0E1225",
"T#	c #151C33",
"U#	c #172036",
"V#	c #33466C",
"W#	c #43598B",
"X#	c #374A74",
"Y#	c #374B74",
"Z#	c #3C4A80",
"`#	c #425085",
" $	c #151F34",
".$	c #465C8F",
"+$	c #44578B",
"@$	c #2D3E65",
"#$	c #475C90",
"$$	c #415785",
"%$	c #23314E",
"&$	c #475D90",
"*$	c #2A375D",
"=$	c #435A8B",
"-$	c #1C2740",
";$	c #425987",
">$	c #32426F",
",$	c #344374",
"'$	c #040811",
")$	c #000000",
"!$	c #0C1423",
"~$	c #384C75",
"{$	c #03050B",
"]$	c #425787",
"^$	c #293859",
"/$	c #465C8D",
"($	c #405784",
"_$	c #0D1424",
":$	c #45578B",
"<$	c #2C365D",
"[$	c #0C1121",
"}$	c #33436C",
"|$	c #070A18",
"1$	c #475E92",
"2$	c #37457A",
"3$	c #080C1B",
"4$	c #3A4A79",
"5$	c #3E4B7E",
"6$	c #465D90",
"7$	c #304368",
"8$	c #3D4B7D",
"9$	c #2B345A",
"0$	c #0B0F1F",
"a$	c #131B2F",
"b$	c #090F1D",
"c$	c #273655",
"d$	c #394D77",
"e$	c #405283",
"f$	c #3D4C7D",
"g$	c #2F3B63",
"h$	c #0C1424",
"i$	c #455A8C",
"j$	c #34486F",
"k$	c #1A233D",
"l$	c #080B1B",
"m$	c #313B67",
"n$	c #3E4C7F",
"o$	c #394876",
"p$	c #2C3B5E",
"q$	c #1B273E",
"r$	c #3C497E",
"s$	c #2F3963",
"t$	c #3F4D80",
"u$	c #425185",
"v$	c #445689",
"w$	c #242C4D",
"x$	c #34406B",
"y$	c #3B4E7C",
"z$	c #3D4A7F",
"A$	c #445489",
"B$	c #3C4B7B",
"C$	c #35426E",
"D$	c #35456F",
"E$	c #384A74",
"F$	c #333F6B",
"G$	c #202C48",
"H$	c #1C2540",
"I$	c #151E34",
"J$	c #19233A",
"K$	c #1B263F",
"L$	c #384C76",
"M$	c #3A4D77",
"N$	c #3E5180",
"O$	c #394C77",
"P$	c #24324F",
"Q$	c #060B16",
"R$	c #1F2C47",
"S$	c #172238",
"T$	c #212D49",
"U$	c #33446B",
"V$	c #1E2944",
"W$	c #020308",
"X$	c #3B4F7B",
"                                            . + @ # $   % & * = - - - = ; >                                                     ",
"                                            , ' ) ! ~   { ] ^ / ( ( ( / _ : < $ [ }               $ | }                         ",
"                                            1 2 3 4 1 5 6 7 8 9 0 a b c d e 6 ! ; >             . f g 5                         ",
"                              } [ h [ }       i j k l m n d o p q r s a c t u / _ : < $ [ }     < m v w ,                       ",
"                            % x y z * A %         B 6 7 8 9 C D E F E G a a b c d e 6 ! ; >     H I J K L M                     ",
"                            { N O / P * Q       { m n d o p R S T U T E V r s a c t u / _ W ,   X Y Z `  ...,                   ",
"                        . +.@.#.$.%.&.*.h   % A 6 7 8 9 C D T =.-.;.;.;.;.=.E G C a b c d >.! ,.k '.).!.~.{.! ].                ",
"                        < ^./.(._.:.<.[.    { m n d o p R E }.|.1.2.1.1.3.;.}.E r r s a c ` 4.: 5.6.7.8.9.0.a.: ,               ",
"                        b.c.d.e.f.g.    $ A 6 7 8 9 C D T h.|.i.j.k.l.l.2.m.;.h.T T E D a c d >.! n.o.p.q.r.s.{.! > $           ",
"                        t.u.v.w.x.y.    { m n d o p R E }.|.z.A.B.C.D.l.l.2.3.;.}.T T E s a c ` 4.: E.F.G.H.I.s. .L ~     $ | } ",
"                    J.& K.L.%.M.N.  $ A 6 7 8 9 C D T =.|.i.A.O.P.B.Q.R.l.l.2.m.S.;.-.h.E D a c d >.! n.F.p.T.U.V.] W.  . + @ # ",
"                    < X.O Y.Z.`. +  { m n d o p R E }.|..+A.++@+#+$+O.C.D.l.l.2.1.1.3.;.}.E s a c ` 4.: E.%+&+*+=+m -+  , ' ) ! ",
"                    ;+>+,+Z.'+)+!+5 6 7 8 9 C D T =.S.~+{+]+@+^+#+#+$+/+C.Q.(+R.l.l.2.m.;.h.E D a c d >.! n._+:+<+[+}+  1 2 3 |+",
"                    1+2+3+4+5+6+7+m n d o p R E }.|.1.2.8+]+$+#+#+#+#+$+9+9+O.C.D.l.l.2.3.;.}.E s a c ` 4.* 0+a+b+c+d+  } i { e+",
"                    f+'+g+h+i+j+6 7 8 9 C D T =.S.~+l.k.C.k+@+#+#+l+m+n+#+#+$+/+C.Q.(+k.2.m.;.h.S D a c o+p+q+r+s+t+u+A $       ",
"                    v+w+x+y+z+p+n d o p R E }.|.1.2.8+A+++@+#+#+B+C+D+E+B+#+#+$+9+9+O.C.{+2.3.;.T F+s a V.G+X %+H+3 >.! Q       ",
"                    I+J+K+L+z+M+` 9 C D T =.|.~+l.k.C.k+#+#+#+n+N+O+P+D+N+E+m+n+#+#+@+/+Q.k.2.|.}.T V p Q+) ! R+S+T+3 |+h       ",
"                |     U+V+W+X+M+t p q E }.|.Y+2.D.Z+++@+#+#+B+C+`+ @.@ @+@+@`+E+B+#+#+$+O.C.2.|.}.T V p c ` 4.@@1 W.{ e+        ",
"            . f g A         X M+#@$@E T }.%@2.l.D.]+@+#+#+n+N+D+.@.@.@.@.@.@ @D+E+n+#+#+P.A+&@*@;.h.=@p -@;@o+>@W.              ",
"            < ] L.: ~       X M+#@$@E T }.%@2.l.,@]+@+#+B+C+`+ @.@.@.@'@.@.@.@ @`+E+)@#+P.Z+{+2.3.;.E p !@;@J ' W.              ",
"            H ~@u {@1       X M+t $@E T }.%@&@]@C.k+#+^@N+D+.@.@.@/@(@_@(@/@.@.@P+C+)@#+P.C.D.l.2.|.T G a c J ' W.              ",
"            5.:@<@X.W.      X :@[@$@E T }@%@{+A+++$+)@C+`+ @.@.@/@|@1@2@3@_@4@.@P+C+)@#+P.C.{+l.2.|.5@F+s a V.6@W.      | }     ",
"            W.7@{@4         8@9@0.D T =.S.~+{+]+@+#+B+0@ @.@.@/@|@a@b@c@d@e@_@f@P+C+)@#+P.C.{+l.g@|.}.T V p V.X.W.  . f g h@$   ",
"              i j < .       i@2+}@F+}.|.Y+2.8+]+$+#+n+0@ @.@j@k@2@l@m@n@o@p@3@_@ @q@)@#+P.A+8+l.2.|.}.T V p V.X.W.  < ] L.: ~   ",
"                  x r@h@1 # s@t@u@T }.%@2.l.D.]+@+^@N+D+.@v@_@w@o@x@y@m@z@c@p@|@ @E+)@#+$+/+Q.R.A@m.;.h.=@p B@C@D@  X I E@F@1   ",
"                { {@G@@@,.p+O H@E T }.%@2.l.,@]+I@C+`+ @4@|@3@d@J@x@K@K@L@z@d@|@ @C+B+#+#+$+O.Q.{+2.3.;.E M@V.G+b.  H N@=+m W.  ",
"            . +.@.O@P@M.Q@R@S@$@E T }.%@&@]@C.k+)@0@ @.@j@T@a@U@l@m@V@W@K@X@d@Y@Z@`@E+n+#+#+P.A+D.l.2.|.E a Q+ #! R+l .#E@F@1   ",
"            < ^./.(.Z.+#@#Y [@$@E T }@%@{+A+++$+B+0@ @.@/@T@a@X@L@K@####$#n@d@|@'@ @`+E+)@#+P.Z+{+l.2.|.E p %#` 4.&#*#Y =#' W.  ",
"            H .#d.e.f.-#_+;#0.D T =.S.~+{+]+@+#+B+0@Z@v@_@>#o@x@K@W@K@L@x@p.a@e@_@f@ @C+)@#+P.C.{+l.2.|.T G a c o+' 7+,#'#)#h   ",
"            X N@=+w.!#~#{#]#}@F+}.|.Y+2.8+]+$+#+B+0@.@|@3@p@^#x@K@W@/#x@c@o@a@p@3@_@ @q@)@#+P.C.{+l.2.|.5@F+s a V.6@(#W.{ e+    ",
"            d+>+<+M., 5 s@t@u@T }.%@2.l.8+]+$+#+B+0@.@_#a@a@J@x@K@:#K@<#z@[#a@a@2@|@ @N+)@#+P.C.{+l.2.|.}.T V p V.X.W.          ",
"            }#2+b+`.z+p+O H@E T }.%@2.l.8+]+$+#+B+0@.@T@2@a@J@x@K@####K@L@z@o@a@2@|@ @N+)@#+P.C.{+l.2.|.}.T V p V.X.W.          ",
"        . f ! |#1#g.2#c.3#$@E T }.%@2.l.8+]+$+#+B+0@.@(@e@3@o@x@K@####:#/#n@o@a@2@|@ @N+)@#+P.A+{+l.2.|.}.T V p V.X.W.          ",
"        , ' >.4#5#  6#7#8#$@E T }.%@2.l.8+]+$+#+B+0@ @4@v@_#o@x@K@######/#n@o@a@1@|@ @q@)@#+9#C.{+l.2.|.}.T V p V.X.W.          ",
"        1 2 3 )#    W.0#a#b#}.T }.%@2.l.8+]+@+#+B+0@ @.@j@|@o@x@K@W@##:#/#n@a@3@T@c# @C+I@O.]+]@{+l.2.|.}.T V p V.X.W.          ",
"          i { e+      1 7.T.d#T }.%@2.l.8+A+P.#+B+0@ @.@j@|@e#x@/###V@##y@n@a@|@/@4@P+C+@+]+R.{+l.l.2.|.}.T V p V.X.W.          ",
"                        f#g#h#q }.%@2.l.{+j.i#++)@0@ @.@j@T@a@j#x@k#k#$#y@X@d@_@'@.@l#C+$+C.{+l.l.l.2.|.}.T V p V.X.W.          ",
"                |       5.m#n#o#5@%@2.l.l.{+]@i#I@p#P+.@j@|@2@o@J@J@U@k#L@X@d@Y@'@.@l#C+$+C.{+l.l.l.2.|.}.T r q#V.X.W.    $ | } ",
"            J.r#T+5     X M+t s#t#%@2.l.l.l.D.]+#+m+u#`+.@(@e@1@a@a@o@j#v#b@d@k@4@.@P+C+$+C.{+l.l.l.2.|.T s o#3#V.' W.  . + @ # ",
"            < N G@w ,   H M+#@s#t#%@2.l.l.l.8+]+@+B+l+`@ @4@v@_#2@a@a@o@J@o@1@Y@'@.@+@q@$+C.{+l.l.l.1.|.E $@9 -@J ' W.  , ' ) ! ",
"            ;+w#x#y#..M l R@#@$@T z#A#1.l.l.8+]+$+#+B+0@ @.@'@c#e@1@a@a@d@3@T@B#.@`+0@C#$+C.D.l.l.Y+%@D#=@E#-@;@o+>@W.  1 2 3 |+",
"            F#w+G#0.H#I#*#J##@$@E }.=.%@2.l.8+]+$+#+B+0@ @.@.@'@v@_#2@a@1@|@/@4@P+0@n+)@P.C.{+l.g@K#h.}.V p -@;@u 6 W.    i { e+",
"            L#M#f.N#:@O#R+M+P#$@E T }.D#A#Y+{+]+@+#+B+0@ @.@.@.@'@c#T@e@T@v@.@.@P+C+#+O.]+j.l.Y+%@Q#T T V p ` =#.#R#[           ",
"              S#T#z+U#D@H V#W#$@V T T }.=.%@{+]+P.#+B+p#P+.@.@.@.@4@/@/@/@'@.@.@+@q@@+]+R.{+g@K#h.U T T r q#d.M+B D@  } |       ",
"                        W.0#X#e.H@R T T }.%@l.Q.i#9#)@m+`@+@.@.@.@.@.@.@.@.@.@`+0@C#P.C.l.3.%@Q#T T T q o#3#d.' D@  % f @ # %   ",
"                          W.f Y#d.o#V T }.K#2.{+k.i#$+)@l+0@P+.@Z@.@.@.@ @.@+@p#n+)@P.A+A@Z#h.`#T T r $@9 -@u 6 W.   $m ) ! Q   ",
"                            b.c.` .$+$R T D#A#Y+l.j.i#++#+m+0@u#`@+@ @`+`@u#0@@$^+#+P.A+A@S.}.T T q o##$8 $$.#%$i # L R@:@)#h   ",
"                    |       E.V#J -@&$+$E }.=.A#2.D.]@i#@+B+n+n+l+u#*$0@n+n+B+I@@+#+9#Z+2.S.}.T r $@9 -@=$Y 5 | 5.m K {@-$~     ",
"                . + @ h@    W.,#*+;$d $@E T }.%@2.l.D.]+@+^+#+#+)@m+C+C#^+#+@+O.>$>$]+,$2.|.T s o##$8 $$.#%$'$)$< .#v.m Q       ",
"                , ' ) : ,     !$r#~$#@s#V T }.%@2.l.8+A+P.#+@+#+#+)@B+I@@+@+9+A+R.8+8+{+1.|.E $@9 -@=$Y 5 D@{$)$t.&.]$N -+      ",
"                1 ^$c.Y &#-$    < R@/$b +$q }.%@2.l.{+j.]+i#/+9##+^+@+O.i#i#]+]@l.3.*@A#%@D#=@M@` ($N@%$$   h & K.L.%.[+_$      ",
"                  1 x c.v : ~   X :@` -@&$:$t#%@2.l.l.D.,@,@]@i#P.#+9+A+R.,@,@D.2.%@h.}@}@}.V p d.M+B D@    < X.O Y.Z.<$[$      ",
"                    b..#v.F@W.  H c.d ;@!@$@S z#A#1.l.l.l.l.{+j.]+i#]+]@l.l.l.l.2.|.U T T F V p V.C@D@      d+}$,+Z.'+L+|$      ",
"                    X N@=+m W.  5.Y J ;@1$$@E }.=.%@2.l.2$l.l.D.,@,@8+{+l.l.2$l.1.|.}.E E T r q#V.X.W.      i@H.3+4+5+3$        ",
"                    X N@=+m W.  W.,#*+v.9 $@E T }.D#%@A#*@1.l.l.l.l.l.l.2.3.*@A#%@D#T s G +$$@3#d.>@1   . & s@4$5$h+~#          ",
"                    X N@]$N -+    W.f ~@8#$@V T T }.}@}@=.A#2.l.l.l.l.l.2.%@h.}@}@}.=@$@9 6$.$c u 6 W.  < 7$O H@8$9$0$          ",
"                    a$>+e.M.b$      D@c$X#e.H@R T T T T }.%@2.l.l.l.l.{+2.|.`#T T T V p ` =#d$*+R@*.h   H .#o+e$2+L+|$          ",
"                    1+2+f$g$1+        h$f Y#i$+$E T T T }.K#2.l.l.l.2$l.1.|.}.T T T r q#d.j$# 7+7+1     5.R@n Y k$l$            ",
"                    f+m$n$o$p$q$        b.c.S@$@E U T T }.D#A#1.2.Y+*@r$%@D#U T E s $@#$d.' D@          W.7@{@4                 ",
"                    v+s$t$H@a.: ,       E.V#W#$@V T S T T }.=.A#1.%@h.}.}.T S }.u$v$0 c u 6 !$            i { 1                 ",
"                    I+w$x$r.s.y$..5     W.0#X#<+:$o#G R T T }.-.z$D#T A$:$o#0.B$C$D$E$).Y R#[                                   ",
"                      F.G.F$I.0.H#y Q     W.G$.#V.` a Y.V T S t#}.5@r +$0 ` v.F@H$I$J$K$M ,                                     ",
"                        ~#w$f.N#:@)#h       Q ,#.#L$M$e.:$+$o#o#o#:$s.N$O$L$R@P$Q$)$Q$R$g A $                                   ",
"                          S#T#z+7+1           (#l S$T$.#V.` Q+Q+Q+` v.U$V$7+7+1 W$)$, ' X$! Q                                   "};
