/* XPM */
static char * C:\Users\pc\Music\opened_door_xpm[] = {
"64 64 99 2",
"  	c #828282",
". 	c #989898",
"+ 	c #9F9F9F",
"@ 	c #9B9B9B",
"# 	c #969696",
"$ 	c #8D8D8D",
"% 	c #818181",
"& 	c #979797",
"* 	c #9E9E9E",
"= 	c #909090",
"- 	c #898989",
"; 	c #808080",
"> 	c #7C7C7C",
", 	c #777777",
"' 	c #919191",
") 	c #9A9A9A",
"! 	c #9D9D9D",
"~ 	c #949494",
"{ 	c #858585",
"] 	c #797979",
"^ 	c #7F7F7F",
"/ 	c #757575",
"( 	c #6E6E6E",
"_ 	c #8E8E8E",
": 	c #7D7D7D",
"< 	c #727272",
"[ 	c #7B7B7B",
"} 	c #787878",
"| 	c #8B8B8B",
"1 	c #B37271",
"2 	c #B76260",
"3 	c #AE8180",
"4 	c #8C8C8C",
"5 	c #8A8A8A",
"6 	c #7E7E7E",
"7 	c #707070",
"8 	c #939393",
"9 	c #9C9C9C",
"0 	c #B2716F",
"a 	c #878787",
"b 	c #6C6C6C",
"c 	c #848484",
"d 	c #929292",
"e 	c #AE6B6A",
"f 	c #B6615F",
"g 	c #AB7C7B",
"h 	c #A76261",
"i 	c #AF5A57",
"j 	c #B25D5B",
"k 	c #B45F5D",
"l 	c #B5605E",
"m 	c #B35D5C",
"n 	c #B35E5C",
"o 	c #A47473",
"p 	c #8F8F8F",
"q 	c #838383",
"r 	c #959595",
"s 	c #999999",
"t 	c #6D6D6D",
"u 	c #464646",
"v 	c #111111",
"w 	c #000000",
"x 	c #686868",
"y 	c #070707",
"z 	c #010101",
"A 	c #242424",
"B 	c #444444",
"C 	c #5D5D5D",
"D 	c #5E5E5E",
"E 	c #5F5F5F",
"F 	c #606060",
"G 	c #636363",
"H 	c #696969",
"I 	c #020202",
"J 	c #0A0A0A",
"K 	c #515151",
"L 	c #616161",
"M 	c #666666",
"N 	c #717171",
"O 	c #575757",
"P 	c #747474",
"Q 	c #525252",
"R 	c #FF00FF",
"S 	c #222222",
"T 	c #737373",
"U 	c #868686",
"V 	c #7A7A7A",
"W 	c #6B6B6B",
"X 	c #1A1A1A",
"Y 	c #6A6A6A",
"Z 	c #767676",
"` 	c #404040",
" .	c #656565",
"..	c #888888",
"+.	c #272727",
"@.	c #545454",
"#.	c #1B1B1B",
"$.	c #121212",
"%.	c #626262",
"                  . + + + + + + + + + + + + + + + + + + + + + + + + + + + + + + + + + + + + + + + + + + + @ # $                 ",
"                % & + + + + + + + + + + + + + + + + + + + + + + + + + + + + + + + + + + + + + + + + + + * # = - %               ",
"            ; > , ' ) * + + + + + + + + + + + + + + + + + + + + + + + + + + + + + + + + + + + + + + + + ! ~ $ { ] ^ % %         ",
"      % ^ > / ( ] _ ~ ! + + + + + + + + + + + + + + + + + + + + + + + + + + + + + + + + + + + + + + + + * # $ $ : < , [ ;       ",
"    % } | = _ _ _ _ ~ ! + + + + + + + + + + + + 1 2 2 2 2 2 2 2 2 2 2 2 2 2 2 2 3 + + + + + + + + + + + + @ = 4 4 $ _ ' 5       ",
"    6 7 { $ _ 8 # & @ * + + + + + + + + + + ! 9 0 2 2 2 2 2 2 2 2 2 2 2 2 2 2 2 3 + + + + + + + + + + + + + ) = $ 4 4 $ a %     ",
"    : b c $ 8 @ + + + + + + + + + + + + + * ~ d e f 2 2 2 2 2 2 2 2 2 2 2 2 2 2 g ! + + + + + + + + + + + + + * + ) 4 $ { %     ",
"    > b c _ . + + + + + + + + + + + + + + ! $ $ h i j k l f f l k m n n k l l f o . + + + + + + + + + + + + + ! + + $ $ c ;     ",
"    > b c p ) + + + + + + + + + + + + + + * 8 4 $ $ p $ $ $ $ $ $ $ $ $ ' $ $ _ 8 ) + + + + + + + + + + + + + + + * ~ $ q ;     ",
"    : b c p @ + + + + + + + + + + + + ! @ ) . # . # & r 8 d d d 8 8 d ' ' # & s ! + + + + + + + + + + + + + + + * * # 4   ;     ",
"    : b c p @ + + + + + + + + + . = $ 4 $ 4 4 $ = = 8 8 8 8 ' = = = p ' 8 8 8 ~ 8 ' ~ s @ ! * + + + + + + + + + + ! # 4   ;     ",
"    6 t c p ) + + + + + + + + & 4 ; u v w w w w w w w w w w w w w w w w w w w w w w w v u ; 4 & + + + + + + + + + + ~ 4   ;     ",
"    ^ t c = @ + + + + + + * @ $ x y z A B B C D E F G H t t ( ( ( t t H G F E D C B B A z y x $ @ * + + + + + + * + @ 4 % ^     ",
"    ; ( c d 9 + + + + + + @ & x I J K C C C C C C C C D E L G M G L E D C C C C C C C C K J I x & @ + + + + + + * + @ 4 ; 6     ",
"    ; N { 8 ! + + + + + + 9 8 v J O C C C C C C C D E G H ( < P < ( H G E D C C C C C C C O J v 8 9 + + + + + + ! + ) 4 ; 6     ",
"    % < { ~ * + + + + + + & Q y , b C C C C R R R R R R R R R R R R R R R R R R R C C C C b , y Q & + + + + + + * + ) 4 % ^     ",
"    % < { ~ * + + + + + + d S u 4 4 ; F R R R R R R R R R R R R R R R R R R R R R R R F ; 4 4 u S d + + + + + + * + . $   ^     ",
"    % T c d ! + + + + + + ' I x 4 4 4 q R R R R R R R R R R R R R R R R R R R R R R R q 4 4 4 x I ' + + + + + + * + # $ q ;     ",
"    % < c ' 9 + + + + + + _ w 4 4 4 4 4 R R R R R R R R R R R R R R R R R R R R R R R 4 4 4 4 4 w _ + + + + + + + + # $ c ;     ",
"    ; N c p 9 + + + + + + $ w 4 4 4 4 4 R R R R R R R R R R R R R R R R R R R R R R R 4 4 4 4 4 w $ + + + + + + + + # $ { ;     ",
"    6 ( c _ @ + + + + + + _ w 4 4 4 4 4 $ R R R R R R R R R R R R R R R R R R R R R $ 4 4 4 4 4 w _ + + + + + + + + # $ U %     ",
"    : t c $ ) + + + + + + _ w 4 4 4 4 4 $ R R R R R R R R R R R R R R R R R R R R R $ 4 4 4 4 4 w _ + + + + + + + * r $ U %     ",
"    : t c $ ) + + + + + + p w 4 4 4 4 4 $ R R R R R R R R R R R R R R R R R R R R R $ 4 4 4 4 4 w p + + + + + + + @ p $ a %     ",
"    6 t c $ ) + + + + + + = w 4 4 4 4 4 _ R R R R R R R R R R R R R R R R R R R R R _ 4 4 4 4 4 w = + + + + + + + @ _ $ U %     ",
"    6 ( c $ @ + + + + + + = w 4 4 4 4 4 p R R R R R R R R R R R R R R R R R R R R R p 4 4 4 4 4 w = + + + + + + + @ _ $ { %     ",
"    : ( c _ 9 + + + + + + d w 4 4 4 4 4 = R R R R R R R R R R R R R R R R R R R R R = 4 4 4 4 4 w d + + + + + + + @ p $ c ^     ",
"  % ] t c ' * + + + + + + 8 w 4 4 4 4 4 = R R R R R R R R R R R R R R R R R R R R R = 4 4 4 4 4 w 8 + + + + + + + 9 p 4 ; [     ",
"% V N W c & + + + + + + + ~ w 4 4 4 4 4 ' R R R R R R R R R R R R R R R R R R R R R ' 4 4 4 4 4 w ~ + + + + + + + 9 ' 4 6 / ;   ",
"; < { 4 $ @ + + + + + + + # w 4 4 4 4 4 = R R R R R R R R R R R R R R R R R R R R R = 4 4 4 4 4 w # + + + + + + + ! d 4 $ ' 5 ; ",
"; 7 c 4 p 9 + + + + + + + ~ w 4 4 4 4 4 _ R R R R R R R R R R R R R R R R R R R R R _ 4 4 4 4 4 w ~ + + + + + + + * 8 4 4 $ q > ",
"; ( c 4 * * + + + + + + * d w 4 4 4 4 4 _ R R R R R R R R R R R R R R R R R R R R R _ 4 4 4 4 4 w d + + + + + + + * ~ 4 4 4 ^ [ ",
"; 7 c 4 + + + + + + + + 9 p w 4 4 4 4 4 $ R R R R R R R R R R R R R R R R R R R R R $ 4 4 4 4 4 w p + + + + + + + * r 4 4 4 ^ > ",
"; 7 c 4 + + + + + + + * @ p w 4 4 4 4 4 $ R R R R R R R R R R R R R R R R R R R R R $ 4 4 4 4 4 w p + + + + + + + * ~ 4 4 4 ^ : ",
"^ 7 c 4 * * + + + + + + * ~ w $ 4 4 4 4 $ R R R R R R R R R R R R R R R R R R R R R $ 4 4 4 4 $ w ~ + * ) # ~ ~ r & d 4 4 4 ^ > ",
": ( c 4 / [ V V [ : 6 ; . ~ w p 4 4 4 4 $ R R R R R R R R R R R R R R R R R R R R R $ 4 4 4 4 p w ~ ! u w w w w w w w X 4 4 ^ [ ",
"[ t c 4 Y Y H H Y W ( Z r r w p 4 4 4 4 $ R R R R R R R R R R R R R R R R R R R R R $ 4 4 4 4 p w r ) ` w w w w w w w X 4 4 6 ] ",
"V t c 4 4 4 4 4 4 4 4 _ # ' w 4 4 4 4 4 $ R R R R R R R R R R R R R R R R R R R R R $ 4 4 4 4 4 w ' s $ 4 4 4 4 4 4 4 4 4 4 6 , ",
"] t c 4 4 4 4 4 4 4 4 4 = = w 4 4 4 4 4 $ R R R R R R R R R R R R R R R R R R R R R $ 4 4 4 4 4 w = @ p 4 4 $ _ _ $ 4 $ 4 4 : P ",
"] t c 4 w w w w w w w w  .= w 4 4 4 4 4 $ R R R R R R R R R R R R R R R R R R R R R $ 4 4 4 4 4 w = * . p p ~ & . r ' ' 4 4 : < ",
"] t c 4 w w w w w w w w W ' w 4 4 4 4 4 _ R R R R R R R R R R R R R R R R R R R R R _ 4 4 4 4 4 w ' + * 9 @ ! + + * 9 . $ 4 : N ",
"V t c 4 4 4 $ _ $ $ _ r 9 ' w 4 4 4 4 4 _ R R R R R R R R R R R R R R R R R R R R R _ 4 4 4 4 4 w ' + + + + + + + + + 9 _ 4 > N ",
"[ ( c 4 $ p 8 r r d r 9 + ' w 4 4 4 4 4 _ R R R R R R R R R R R R R R R R R R R R R _ 4 4 4 4 4 w ' + + + + + + + + + 9 p 4 : N ",
"6 < { s ! s @ ! * 9 @ * + $ w 4 4 4 4 4 _ R R R R R R R R R R R R R R R R R R R R R _ 4 4 4 4 4 w $ + + + + + + + + + 9 p 4 : N ",
"; P { + + ! + + + + + + + $ w 4 4 4 4 4 p R R R R R R R R R R R R R R R R R R R R R p 4 4 4 4 4 w $ + + + + + + + + + ! = 4 : N ",
"% Z { + + + + + + + + + + $ w 4 4 4 4 4 ' R R R R R R R R R R R R R R R R R R R R R ' 4 4 4 4 4 w $ + + + + + + + + + ! d 4 : N ",
"% Z { + + + + + + + + + + $ w 4 4 4 4 4 d R R R R R R R R R R R R R R R R R R R R R d 4 4 4 4 4 w $ + + + + + + + + + ! 8 4 : N ",
"% Z { ' 9 + + + + + + + + p w 4 4 4 4 $ d R R R R R R R R R R R R R R R R R R R R R d $ 4 4 4 4 w p + + + + + + + + + ! 8 4 : N ",
"; / { _ s @ ) ) ) @ 9 * + _ w 4 4 4 4 $ d R R R R R R R R R R R R R R R R R R R R R d $ 4 4 4 4 w _ + + + + + + + + + * 8 4 : N ",
"% Z { $ w w w w w w w w / p w 4 4 4 4 $ d R R R R R R R R R R R R R R R R R R R R R d $ 4 4 4 4 w p + + + + + + + + + * ~ 4 : < ",
"; / { 4 w w w w w w w w ( = w 4 4 4 4 $ 8 R R R R R R R R R R R R R R R R R R R R R 8 $ 4 4 4 4 w = + + + + + + + + + * ~ 4 : < ",
"; / { 4 4 4 4 4 4 $ $ $ ~ 8 w 4 4 4 4 $ 8 R R R R R R R R R R R R R R R R R R R R R 8 $ 4 4 4 4 w 8 + + + + + + + + + * ~ 4 : / ",
"^ P { 4 4 $ _ = d 8 d ' r # w 4 4 4 4 $ 8 R R R R R R R R R R R R R R R R R R R R R 8 $ 4 4 4 4 w # + + + + + + + + + * ~ 4 ^ } ",
"6 T { 4 $ d & ) 9 ! 9 s @ # w 4 4 4 4 $ d R R R R R R R R R R R R R R R R R R R R R d $ 4 4 4 4 w # + + + + + + + + + * r 4 ; V ",
"^ T { $ 8 ) * + + + + + * & w 4 4 4 4 $ = R R R R R R R R R R R R R R R R R R R R R = $ 4 4 4 4 w & + + + + + + + + + * # 4 ; [ ",
"^ P U = ) + + + + + + + + r w 4 4 4 4 4 _ R R R R R R R R R R R R R R R R R R R R R _ 4 4 4 4 4 w r + + + + + + + + + + # 4 ; [ ",
"^ P U 8 ! + + + + + + + + 8 w 4 4 4 4 4 $ R R R R R R R R R R R R R R R R R R R R R $ 4 4 4 4 4 w 8 + + + + + + + + + * # 4 ; V ",
"; / a # + + + + + + + + + 8 w 4 4 4 4 4 R R R R R R R R R R R R R R R R R R R R R R R 4 4 4 4 4 w 8 + + + + + + + + + * # 4 ^ } ",
"; / a . + + + + + + + + + 8 I / 4 4 4 4 R R R R R R R R R R R R R R R R R R R R R R R 4 4 4 4 / I 8 + + + + + + + + + * # 4 ^ , ",
"% / ..s + + + + + + + + + r +.O 4 4 4 q R R R R R R R R R R R R R R R R R R R R R R R q 4 4 4 O +.r + + + + + + + + + * # 4 ^ , ",
"; / a & + + + + + + + + + 8 @.#.4 4 ; F R R R R R R R R R R R R R R R R R R R R R R R F ; 4 4 #.@.8 + + + + + + + + + * # 4 ^ } ",
"; P U ~ * + + + + + + + + ' 4 $.u  .C C C C R R R R R R R R R R R R R R R R R R R C C C C  .u $.4 ' + + + + + + + + + * # 4 ^ } ",
"; T { ' @ + + + + + + + + r _ x I J K C C C C C C C C D D D F %.F D D D C C C C C C C C K J I x _ r + + + + + + + + + * # 4 ^ , ",
"^ N c _ . + + + + + + + + + d 4 x y z A B B C C C C C C C C C C C C C C C C C C C B B A z y x 4 d + + + + + + + + + + * # 4 ^ , ",
": ( c $ ~ ! + + + + + + + + ! 4 4 ; u v w w w w w w w w w w w w w w w w w w w w w w w v u ; 4 4 ! + + + + + + + + + + * # 4 ^ , "};
