/* XPM */
static char * C:\Users\pc\Documents\door\wall2_xpm[] = {
"32 32 8 1",
" 	c #837D73",
".	c #7B796A",
"+	c #8B857B",
"@	c #73695A",
"#	c #625D52",
"$	c #5A554A",
"%	c #94918B",
"&	c #9C958B",
"  .++ +..@#@@#@  ++ .+#$$++@# @$",
"$  .  @@@$@.+$$@++++.$@++. +####",
"@@  +@$##@%++ @#$@$$#@ ++ . #@+.",
"+#@@$@+ $ %+ +#####$@ %%%%+ # %+",
"  $#@+  @@+ +$#@@#$$+%&%%% @$&%%",
"%  $.%%..#@@$#@ +@#  +%%++ @&%&+",
"   @+%%+.@$#@ &%  $   +++  $+%++",
".  @%%%+.+#@+%%+++@$ +  + @#+%++",
" + $%%%%..@.+&%++ #$@  +. $#.+ .",
"  +@ +%+ +@+.%  +#$@$$+  $##+ + ",
". +# %+%  $#.++$$$+ @##$$@%$$ ++",
" +@#@ +++..#$@#@%+ . ##@&% +$#@ ",
"$@+$$   .++$#$@     @## ++.+##$@",
" @$@$@@.++@@%%#$ +@@@$@$   @$@  ",
"++$## $@$@@%&%+$#@@+%  @#@#@+++ ",
"+ @# & +$@+&&%++$#+%%+  $#@ +&%+",
" .$$+  @$$+%&%%++$+&+%   @ +%%%%",
" .##$$$##@++++++ #++%+ +$ +&%%++",
"+.$$.  @$$++  +++#+++   #%%&&%% ",
".$$ %%++$# ++  +.$  .+ @@++%++  ",
" #++%%%+ #$+++. @# +  .#+ +%. . ",
"@$++%%+. #$##@.@#$@ +@##.++  +++",
"#$$++%  @#&+.@##$#$$####@+  + $#",
"+$#   ..$++   ##$$   .@###.  @@+",
"%+@@+ +$#@ ++@$$ %+++ . $###$$+%",
"+. $##$$$#$ +$$+++%%%+  +@##@+ %",
" . #@$+++.@#$# +%%&%+%++  @#@$ .",
"+ #$+%%%++ $#@ +&%%%+++ ++#$ @# ",
"##@+%&%%+.+ $@++%&%%%+%. +@+% $$",
"@.+%%%&+.   #@ +++++%%++.@ %+ +#",
" %+%%%%... $#@. %%+++    #  .+ #",
"  ++++.++ @#$#@ +++   ++##@$   #"};
